<svg width="1433" height="193" viewBox="0 0 1433 193" fill="none" xmlns="http://www.w3.org/2000/svg">
<path d="M12.8719 133.048H14.4559V136.488H16.9839V133.048H18.5359V142.76H12.8719V133.048ZM14.4559 137.816V141.4H16.9839V137.816H14.4559ZM23.2879 131.704H24.8879V146.328H23.2879V131.704ZM21.1759 137.4H23.8159V138.76H21.1759V137.4ZM20.0559 131.976H21.6399V145.624H20.0559V131.976ZM34.1346 134.232H37.8306V135.576H34.1346V134.232ZM34.0066 137.256H37.7346V138.616H34.0066V137.256ZM37.5586 131.704H39.2386V140.312H37.5586V131.704ZM32.9026 132.76H34.6786C34.6786 136.616 32.2466 139.224 27.9426 140.456L27.2706 139.128C30.9986 138.104 32.9026 136.088 32.9026 133.528V132.76ZM28.0546 132.76H34.0546V134.104H28.0546V132.76ZM34.4386 140.488C37.3986 140.488 39.3186 141.576 39.3186 143.368C39.3186 145.16 37.3986 146.264 34.4386 146.264C31.4786 146.264 29.5586 145.16 29.5586 143.368C29.5586 141.576 31.4786 140.488 34.4386 140.488ZM34.4386 141.784C32.4546 141.784 31.2066 142.36 31.2066 143.368C31.2066 144.376 32.4546 144.936 34.4386 144.936C36.4386 144.936 37.6706 144.376 37.6706 143.368C37.6706 142.36 36.4386 141.784 34.4386 141.784ZM45.5574 133.896H46.9014V135.944C46.9014 139.16 45.2534 142.344 42.7414 143.544L41.7814 142.216C44.0374 141.176 45.5574 138.44 45.5574 135.944V133.896ZM45.9094 133.896H47.2374V135.944C47.2374 138.36 48.7414 140.888 51.0294 141.848L50.1014 143.176C47.5574 142.04 45.9094 139.08 45.9094 135.944V133.896ZM42.3094 133.16H50.4854V134.552H42.3094V133.16ZM52.1974 131.704H53.8774V146.328H52.1974V131.704ZM60.1961 132.392H61.5881V133.8C61.5881 136.568 60.0681 139 57.4281 139.928L56.5961 138.6C58.9161 137.8 60.1961 135.832 60.1961 133.8V132.392ZM60.5161 132.392H61.8921V133.8C61.8921 135.768 63.1721 137.608 65.4441 138.344L64.6121 139.672C62.0041 138.776 60.5161 136.504 60.5161 133.8V132.392ZM58.7561 141.16H68.6121V146.328H66.9321V142.52H58.7561V141.16ZM66.9321 131.704H68.6121V140.472H66.9321V131.704ZM77.1709 137.256H79.7629V138.616H77.1709V137.256ZM82.1629 131.704H83.7629V146.328H82.1629V131.704ZM79.2189 131.976H80.8029V145.624H79.2189V131.976ZM74.5629 132.84C76.4829 132.84 77.7149 134.824 77.7149 138.024C77.7149 141.24 76.4829 143.224 74.5629 143.224C72.6589 143.224 71.4269 141.24 71.4269 138.024C71.4269 134.824 72.6589 132.84 74.5629 132.84ZM74.5629 134.408C73.5709 134.408 72.9629 135.72 72.9629 138.024C72.9629 140.328 73.5709 141.64 74.5629 141.64C75.5709 141.64 76.1789 140.328 76.1789 138.024C76.1789 135.72 75.5709 134.408 74.5629 134.408ZM100.459 131.704H102.059V146.328H100.459V131.704ZM98.2194 137.464H100.859V138.824H98.2194V137.464ZM97.1634 131.992H98.7154V145.608H97.1634V131.992ZM90.0594 141.464H91.0514C93.0354 141.464 94.5074 141.4 96.2194 141.064L96.3634 142.44C94.6034 142.792 93.0994 142.856 91.0514 142.856H90.0594V141.464ZM90.0594 133.448H95.4834V134.808H91.7234V142.12H90.0594V133.448ZM114.042 131.72H115.722V142.664H114.042V131.72ZM115.226 136.36H117.786V137.752H115.226V136.36ZM104.33 133.384H112.938V134.712H104.33V133.384ZM108.634 135.384C110.714 135.384 112.17 136.504 112.17 138.152C112.17 139.816 110.714 140.92 108.634 140.92C106.538 140.92 105.082 139.816 105.082 138.152C105.082 136.504 106.538 135.384 108.634 135.384ZM108.634 136.68C107.482 136.68 106.698 137.24 106.698 138.152C106.698 139.08 107.482 139.624 108.634 139.624C109.786 139.624 110.57 139.08 110.57 138.152C110.57 137.24 109.786 136.68 108.634 136.68ZM107.802 131.704H109.466V134.04H107.802V131.704ZM106.474 144.68H116.314V146.04H106.474V144.68ZM106.474 141.816H108.154V145.256H106.474V141.816ZM130.099 135H133.651V136.376H130.099V135ZM126.147 132.6H127.491V134.296C127.491 137.192 126.051 139.64 123.475 140.632L122.595 139.32C124.867 138.504 126.147 136.456 126.147 134.296V132.6ZM126.483 132.6H127.827V134.328C127.827 136.296 129.059 138.2 131.251 138.984L130.355 140.28C127.891 139.352 126.483 137.016 126.483 134.328V132.6ZM133.059 131.72H134.739V142.584H133.059V131.72ZM125.219 144.68H135.075V146.04H125.219V144.68ZM125.219 141.432H126.899V145.384H125.219V141.432ZM143.073 132.184H144.545V132.936C144.545 135.736 141.969 137.912 138.593 138.456L137.937 137.096C140.897 136.68 143.073 134.856 143.073 132.936V132.184ZM143.377 132.184H144.833V132.936C144.833 134.824 147.025 136.68 149.985 137.096L149.329 138.456C145.953 137.912 143.377 135.72 143.377 132.936V132.184ZM143.073 140.856H144.737V146.328H143.073V140.856ZM137.345 139.8H150.561V141.176H137.345V139.8ZM36.2989 160.128H44.9069V161.472H36.2989V160.128ZM40.6029 162.096C42.6989 162.096 44.1389 163.152 44.1389 164.768C44.1389 166.368 42.6989 167.408 40.6029 167.408C38.5069 167.408 37.0509 166.368 37.0509 164.768C37.0509 163.152 38.5069 162.096 40.6029 162.096ZM40.6029 163.376C39.4509 163.376 38.6669 163.888 38.6669 164.768C38.6669 165.616 39.4509 166.144 40.6029 166.144C41.7549 166.144 42.5389 165.616 42.5389 164.768C42.5389 163.888 41.7549 163.376 40.6029 163.376ZM46.0109 158.704H47.6909V167.856H46.0109V158.704ZM47.2269 162.624H49.7549V164H47.2269V162.624ZM38.0749 168.576H47.6909V173.328H46.0109V169.92H38.0749V168.576ZM39.7709 158.624H41.4349V160.896H39.7709V158.624ZM52.6496 167.056H54.2976V168.8H60.9056V167.056H62.5696V173.152H52.6496V167.056ZM54.2976 170.112V171.808H60.9056V170.112H54.2976ZM52.6496 159.328H61.9936V160.688H52.6496V159.328ZM51.0016 164.544H64.2496V165.904H51.0016V164.544ZM60.9536 159.328H62.6016V160.448C62.6016 161.648 62.6016 162.976 62.1696 164.88L60.4896 164.96C60.9536 163.024 60.9536 161.664 60.9536 160.448V159.328ZM66.3444 160.24H72.8244V161.584H66.3444V160.24ZM68.4564 164.416H70.1044V169.376H68.4564V164.416ZM72.1364 160.24H73.8004V161.2C73.8004 162.496 73.8004 164.336 73.3844 166.928L71.7364 166.784C72.1364 164.272 72.1364 162.48 72.1364 161.2V160.24ZM75.3684 158.704H77.0324V173.328H75.3684V158.704ZM76.5684 164.704H79.2084V166.112H76.5684V164.704ZM65.7524 170.24L65.5764 168.864C68.1844 168.864 71.6564 168.816 74.5844 168.448L74.6644 169.68C71.6724 170.176 68.3124 170.24 65.7524 170.24ZM88.2951 162.384H91.3511V163.76H88.2951V162.384ZM90.8711 158.704H92.5511V167.408H90.8711V158.704ZM87.6711 167.792C90.7271 167.792 92.5991 168.832 92.5991 170.56C92.5991 172.32 90.7271 173.328 87.6711 173.328C84.6151 173.328 82.7431 172.32 82.7431 170.56C82.7431 168.832 84.6151 167.792 87.6711 167.792ZM87.6711 169.088C85.6071 169.088 84.4071 169.6 84.4071 170.56C84.4071 171.52 85.6071 172.032 87.6711 172.032C89.7511 172.032 90.9351 171.52 90.9351 170.56C90.9351 169.6 89.7511 169.088 87.6711 169.088ZM84.0071 160.176H85.3671V161.248C85.3671 163.984 83.8791 166.4 81.2871 167.328L80.4231 166C82.7111 165.2 84.0071 163.248 84.0071 161.248V160.176ZM84.3431 160.176H85.6871V161.232C85.6871 163.056 86.9351 164.864 89.1271 165.616L88.2951 166.944C85.7671 166.064 84.3431 163.76 84.3431 161.232V160.176ZM80.9031 159.696H88.7431V161.04H80.9031V159.696ZM99.2156 160.048H100.8V163.488H103.328V160.048H104.88V169.76H99.2156V160.048ZM100.8 164.816V168.4H103.328V164.816H100.8ZM109.632 158.704H111.232V173.328H109.632V158.704ZM107.52 164.4H110.16V165.76H107.52V164.4ZM106.4 158.976H107.984V172.624H106.4V158.976ZM123.822 158.704H125.518V173.328H123.822V158.704ZM117.31 162.32H118.654V163.36C118.654 166.464 117.054 169.408 114.558 170.56L113.646 169.264C115.902 168.24 117.31 165.76 117.31 163.36V162.32ZM117.662 162.32H118.974V163.36C118.974 165.648 120.414 168.032 122.702 169.024L121.79 170.304C119.278 169.216 117.662 166.368 117.662 163.36V162.32ZM114.078 161.168H122.158V162.512H114.078V161.168ZM117.31 159.008H118.99V161.888H117.31V159.008Z" fill="black"/>
<circle cx="565.5" cy="53.5" r="17.5" fill="#7EB8EE"/>
<path d="M574.005 107.403C560.72 109.395 547.169 106.363 535.999 98.8995C524.83 91.4362 516.843 80.0774 513.598 67.0413C510.354 54.0052 512.085 40.2278 518.454 28.3997C524.823 16.5715 535.372 7.54183 548.041 3.074L550.962 11.3575C540.353 15.0986 531.52 22.6595 526.188 32.5638C520.855 42.468 519.405 54.0043 522.122 64.92C524.839 75.8357 531.526 85.3469 540.879 91.5963C550.232 97.8456 561.579 100.384 572.703 98.7169L574.005 107.403Z" fill="#1F65CE"/>
<circle cx="566" cy="54" r="43" stroke="#B5B5B5" stroke-width="2" stroke-dasharray="4 4"/>
<circle cx="817.5" cy="53.5" r="17.5" fill="#7EB8EE"/>
<path d="M826.005 107.403C817.008 108.752 807.816 107.806 799.282 104.652C790.748 101.498 783.149 96.2398 777.191 89.3644C771.233 82.489 767.109 74.2197 765.201 65.3241C763.293 56.4285 763.663 47.1951 766.278 38.4811C768.893 29.767 773.667 21.8548 780.156 15.479C786.646 9.10315 794.642 4.4704 803.401 2.01081C812.16 -0.448772 821.399 -0.655458 830.259 1.40995C839.119 3.47535 847.314 7.74588 854.083 13.8251L848.214 20.3598C842.546 15.2695 835.684 11.6936 828.265 9.96412C820.846 8.23467 813.11 8.40774 805.776 10.4673C798.441 12.5268 791.746 16.406 786.312 21.7447C780.878 27.0835 776.88 33.7087 774.691 41.0054C772.502 48.302 772.191 56.0335 773.789 63.4822C775.386 70.9308 778.84 77.8551 783.829 83.6121C788.818 89.3692 795.181 93.7725 802.327 96.4131C809.472 99.0538 817.169 99.8462 824.703 98.7169L826.005 107.403Z" fill="#1F65CE"/>
<circle cx="818" cy="54" r="43" stroke="#B5B5B5" stroke-width="2" stroke-dasharray="4 4"/>
<circle cx="1071.5" cy="54.5" r="17.5" fill="#7EB8EE"/>
<path d="M1079.01 107.403C1066.9 109.217 1054.54 106.867 1043.95 100.738C1033.36 94.6094 1025.17 85.0648 1020.71 73.6685C1016.25 62.2722 1015.8 49.7 1019.42 38.0118C1023.04 26.3236 1030.53 16.2125 1040.65 9.33521C1050.77 2.45789 1062.93 -0.777828 1075.13 0.158217C1087.33 1.09426 1098.85 6.14656 1107.81 14.4873C1116.76 22.8281 1122.62 33.9627 1124.41 46.0668C1126.21 58.1708 1123.85 70.5266 1117.7 81.1097L1110.11 76.7001C1115.25 67.8384 1117.23 57.4924 1115.73 47.3572C1114.22 37.2219 1109.32 27.8984 1101.82 20.9144C1094.32 13.9303 1084.68 9.69978 1074.46 8.91599C1064.24 8.1322 1054.06 10.8416 1045.59 16.6003C1037.11 22.359 1030.84 30.8254 1027.81 40.6124C1024.78 50.3995 1025.16 60.9267 1028.89 70.4693C1032.62 80.0119 1039.48 88.004 1048.35 93.136C1057.22 98.2681 1067.57 100.236 1077.7 98.7169L1079.01 107.403Z" fill="#1F65CE"/>
<circle cx="1071" cy="54" r="43" stroke="#B5B5B5" stroke-width="2" stroke-dasharray="4 4"/>
<circle cx="1323.5" cy="54.5" r="17.5" fill="#7EB8EE"/>
<path d="M1377 54C1377 83.8234 1352.82 108 1323 108C1293.18 108 1269 83.8234 1269 54C1269 24.1766 1293.18 0 1323 0C1352.82 0 1377 24.1766 1377 54ZM1277.78 54C1277.78 78.9724 1298.03 99.2165 1323 99.2165C1347.97 99.2165 1368.22 78.9724 1368.22 54C1368.22 29.0276 1347.97 8.78351 1323 8.78351C1298.03 8.78351 1277.78 29.0276 1277.78 54Z" fill="#1F65CE"/>
<circle cx="1323" cy="54" r="43" stroke="#B5B5B5" stroke-width="2" stroke-dasharray="4 4"/>
<circle cx="81.5" cy="53.5" r="17.5" fill="#7EB8EE"/>
<path d="M90.0052 107.403C78.7136 109.096 67.176 107.166 57.05 101.89C46.924 96.6151 38.7308 88.2657 33.6473 78.042L41.5123 74.1314C45.7689 82.6922 52.6294 89.6834 61.1083 94.1007C69.5873 98.5181 79.2482 100.134 88.7031 98.7169L90.0052 107.403Z" fill="#1F65CE"/>
<circle cx="82" cy="54" r="43" stroke="#B5B5B5" stroke-width="2" stroke-dasharray="4 4"/>
<circle cx="323.5" cy="53.5" r="17.5" fill="#7EB8EE"/>
<path d="M332.005 107.403C323.012 108.751 313.824 107.807 305.293 104.656C296.762 101.506 289.165 96.2521 283.207 89.3824C277.248 82.5126 273.121 74.2493 271.208 65.359C269.295 56.4686 269.659 47.2391 272.264 38.5266L280.68 41.0435C278.498 48.3388 278.193 56.0671 279.795 63.5114C281.397 70.9556 284.853 77.8748 289.842 83.6272C294.831 89.3795 301.193 93.7787 308.336 96.4166C315.479 99.0545 323.173 99.8457 330.703 98.7169L332.005 107.403Z" fill="#1F65CE"/>
<circle cx="324" cy="54" r="43" stroke="#B5B5B5" stroke-width="2" stroke-dasharray="4 4"/>
<path d="M244.667 54C244.667 56.9455 247.054 59.3333 250 59.3333C252.946 59.3333 255.333 56.9455 255.333 54C255.333 51.0545 252.946 48.6667 250 48.6667C247.054 48.6667 244.667 51.0545 244.667 54ZM148 55H250V53H148V55Z" fill="#545454"/>
<path d="M490.667 54C490.667 56.9455 493.054 59.3333 496 59.3333C498.946 59.3333 501.333 56.9455 501.333 54C501.333 51.0545 498.946 48.6667 496 48.6667C493.054 48.6667 490.667 51.0545 490.667 54ZM394 55H496V53H394V55Z" fill="#545454"/>
<path d="M737.667 54C737.667 56.9455 740.054 59.3333 743 59.3333C745.946 59.3333 748.333 56.9455 748.333 54C748.333 51.0545 745.946 48.6667 743 48.6667C740.054 48.6667 737.667 51.0545 737.667 54ZM641 55H743V53H641V55Z" fill="#545454"/>
<path d="M989.667 54C989.667 56.9455 992.054 59.3333 995 59.3333C997.946 59.3333 1000.33 56.9455 1000.33 54C1000.33 51.0545 997.946 48.6667 995 48.6667C992.054 48.6667 989.667 51.0545 989.667 54ZM893 55H995V53H893V55Z" fill="#545454"/>
<path d="M1241.67 54C1241.67 56.9455 1244.05 59.3333 1247 59.3333C1249.95 59.3333 1252.33 56.9455 1252.33 54C1252.33 51.0545 1249.95 48.6667 1247 48.6667C1244.05 48.6667 1241.67 51.0545 1241.67 54ZM1145 55H1247V53H1145V55Z" fill="#545454"/>
<path d="M297.01 131.704H298.69V139.192H297.01V131.704ZM289.106 139.896H298.69V143.608H290.77V145.368H289.138V142.376H297.026V141.192H289.106V139.896ZM289.138 144.872H299.122V146.2H289.138V144.872ZM290.274 132.088H291.666V133.192C291.666 135.896 290.114 138.264 287.474 139.144L286.658 137.816C288.962 137.064 290.274 135.16 290.274 133.192V132.088ZM290.594 132.088H291.97V133.192C291.97 135.096 293.282 136.872 295.538 137.56L294.722 138.872C292.114 138.04 290.594 135.816 290.594 133.192V132.088ZM301.345 140.056H314.593V141.416H301.345V140.056ZM307.089 140.904H308.753V146.328H307.089V140.904ZM302.961 132.472H312.945V138.264H302.961V132.472ZM311.297 133.8H304.609V136.936H311.297V133.8ZM320.186 132.664H327.017V139.016H320.186V132.664ZM325.37 134.008H321.834V137.672H325.37V134.008ZM329.402 131.704H331.082V139.976H329.402V131.704ZM330.618 135.064H333.146V136.44H330.618V135.064ZM325.578 141.384H327.002V141.752C327.002 144.04 324.826 145.8 321.658 146.28L321.034 145C323.786 144.616 325.578 143.224 325.578 141.752V141.384ZM325.93 141.384H327.354V141.752C327.354 143.192 329.178 144.616 331.882 145.016L331.274 146.296C328.122 145.832 325.93 143.992 325.93 141.752V141.384ZM321.626 140.76H331.306V142.088H321.626V140.76ZM340.152 139.896H341.816V142.136H340.152V139.896ZM334.376 138.824H347.592V140.168H334.376V138.824ZM340.152 131.656H341.816V133.752H340.152V131.656ZM340.056 133.864H341.528V134.12C341.528 136.408 339.096 137.832 335.544 138.12L335.048 136.856C338.2 136.648 340.056 135.528 340.056 134.12V133.864ZM340.44 133.864H341.912V134.12C341.912 135.528 343.768 136.648 346.904 136.856L346.424 138.12C342.856 137.832 340.44 136.408 340.44 134.12V133.864ZM335.688 133.032H346.28V134.344H335.688V133.032ZM335.96 141.56H345.992V146.152H335.96V141.56ZM344.36 142.872H337.608V144.808H344.36V142.872ZM357.335 135.08H360.183V136.44H357.335V135.08ZM357.319 137.96H360.151V139.304H357.319V137.96ZM349.127 133.176H357.255V134.52H349.127V133.176ZM353.255 135.16C355.239 135.16 356.615 136.248 356.615 137.88C356.615 139.512 355.239 140.6 353.255 140.6C351.287 140.6 349.895 139.512 349.895 137.88C349.895 136.248 351.287 135.16 353.255 135.16ZM353.255 136.424C352.183 136.424 351.463 136.968 351.463 137.88C351.463 138.792 352.183 139.336 353.255 139.336C354.327 139.336 355.063 138.792 355.063 137.88C355.063 136.968 354.327 136.424 353.255 136.424ZM352.439 131.576H354.103V134.104H352.439V131.576ZM359.543 131.704H361.223V141.096H359.543V131.704ZM356.359 141.256C359.415 141.256 361.287 142.2 361.287 143.784C361.287 145.384 359.415 146.312 356.359 146.312C353.303 146.312 351.431 145.384 351.431 143.784C351.431 142.2 353.303 141.256 356.359 141.256ZM356.359 142.552C354.359 142.552 353.191 142.968 353.191 143.784C353.191 144.6 354.359 145.032 356.359 145.032C358.359 145.032 359.527 144.6 359.527 143.784C359.527 142.968 358.359 142.552 356.359 142.552ZM297.127 160.064H306.455V161.424H297.127V160.064ZM295.799 170.032H309.015V171.408H295.799V170.032ZM298.823 165.312H300.487V170.496H298.823V165.312ZM305.959 160.064H307.623V161.6C307.623 163.424 307.623 165.376 307.111 168.208L305.447 168.032C305.959 165.36 305.959 163.376 305.959 161.6V160.064ZM302.439 165.312H304.087V170.496H302.439V165.312ZM313.829 166.304H315.493V169.184H313.829V166.304ZM318.725 166.288H320.389V169.168H318.725V166.288ZM310.501 165.648H323.717V166.992H310.501V165.648ZM311.973 168.608H322.101V173.328H320.437V169.936H311.973V168.608ZM317.109 159.024C320.293 159.024 322.325 160.096 322.325 161.856C322.325 163.616 320.293 164.688 317.109 164.688C313.925 164.688 311.909 163.616 311.909 161.856C311.909 160.096 313.925 159.024 317.109 159.024ZM317.109 160.336C314.933 160.336 313.637 160.864 313.637 161.856C313.637 162.832 314.933 163.376 317.109 163.376C319.285 163.376 320.597 162.832 320.597 161.856C320.597 160.864 319.285 160.336 317.109 160.336ZM325.86 160.24H332.34V161.584H325.86V160.24ZM327.972 164.416H329.62V169.376H327.972V164.416ZM331.652 160.24H333.316V161.2C333.316 162.496 333.316 164.336 332.9 166.928L331.252 166.784C331.652 164.272 331.652 162.48 331.652 161.2V160.24ZM334.884 158.704H336.548V173.328H334.884V158.704ZM336.084 164.704H338.724V166.112H336.084V164.704ZM325.268 170.24L325.092 168.864C327.7 168.864 331.172 168.816 334.1 168.448L334.18 169.68C331.188 170.176 327.828 170.24 325.268 170.24ZM347.811 162.384H350.867V163.76H347.811V162.384ZM350.387 158.704H352.067V167.408H350.387V158.704ZM347.187 167.792C350.243 167.792 352.115 168.832 352.115 170.56C352.115 172.32 350.243 173.328 347.187 173.328C344.131 173.328 342.259 172.32 342.259 170.56C342.259 168.832 344.131 167.792 347.187 167.792ZM347.187 169.088C345.123 169.088 343.923 169.6 343.923 170.56C343.923 171.52 345.123 172.032 347.187 172.032C349.267 172.032 350.451 171.52 350.451 170.56C350.451 169.6 349.267 169.088 347.187 169.088ZM343.523 160.176H344.883V161.248C344.883 163.984 343.395 166.4 340.803 167.328L339.939 166C342.227 165.2 343.523 163.248 343.523 161.248V160.176ZM343.859 160.176H345.203V161.232C345.203 163.056 346.451 164.864 348.643 165.616L347.811 166.944C345.283 166.064 343.859 163.76 343.859 161.232V160.176ZM340.419 159.696H348.259V161.04H340.419V159.696Z" fill="black"/>
<path d="M530.237 132.472H531.613V133.88C531.613 136.744 530.173 139.16 527.581 140.12L526.701 138.792C529.005 137.976 530.237 136.008 530.237 133.88V132.472ZM530.557 132.472H531.917V134.024C531.917 135.912 533.165 137.672 535.357 138.392L534.477 139.704C531.997 138.824 530.557 136.616 530.557 134.024V132.472ZM536.573 131.704H538.253V140.472H536.573V131.704ZM537.789 135.304H540.317V136.696H537.789V135.304ZM533.549 140.84C536.557 140.84 538.413 141.848 538.413 143.576C538.413 145.304 536.557 146.312 533.549 146.312C530.525 146.312 528.669 145.304 528.669 143.576C528.669 141.848 530.525 140.84 533.549 140.84ZM533.549 142.152C531.517 142.152 530.333 142.648 530.333 143.576C530.333 144.504 531.517 145 533.549 145C535.581 145 536.749 144.504 536.749 143.576C536.749 142.648 535.581 142.152 533.549 142.152ZM545.276 132.904H546.652V135.304C546.652 138.84 545.068 142.088 542.444 143.368L541.436 141.976C543.772 140.92 545.276 138.104 545.276 135.304V132.904ZM545.596 132.904H546.956V135.304C546.956 137.992 548.444 140.68 550.748 141.704L549.756 143.048C547.18 141.832 545.596 138.712 545.596 135.304V132.904ZM551.916 131.688H553.596V146.344H551.916V131.688ZM570.245 131.704H571.925V139.192H570.245V131.704ZM562.341 139.896H571.925V143.608H564.005V145.368H562.373V142.376H570.261V141.192H562.341V139.896ZM562.373 144.872H572.357V146.2H562.373V144.872ZM563.509 132.088H564.901V133.192C564.901 135.896 563.349 138.264 560.709 139.144L559.893 137.816C562.197 137.064 563.509 135.16 563.509 133.192V132.088ZM563.829 132.088H565.205V133.192C565.205 135.096 566.517 136.872 568.773 137.56L567.957 138.872C565.349 138.04 563.829 135.816 563.829 133.192V132.088ZM576.195 140.472H577.859V141.96H584.435V140.472H586.099V146.152H576.195V140.472ZM577.859 143.224V144.824H584.435V143.224H577.859ZM574.579 138.248H587.795V139.576H574.579V138.248ZM580.339 131.864H581.779V132.424C581.779 134.968 579.235 136.92 575.891 137.384L575.283 136.072C578.211 135.704 580.339 134.104 580.339 132.424V131.864ZM580.611 131.864H582.051V132.424C582.051 134.088 584.195 135.704 587.091 136.072L586.483 137.384C583.155 136.92 580.611 134.936 580.611 132.424V131.864ZM598.86 137.368H601.42V138.744H598.86V137.368ZM595.692 135.592H596.972V136.184C596.972 139.144 595.9 142.136 593.676 143.448L592.716 142.184C594.732 141 595.692 138.504 595.692 136.184V135.592ZM596.012 135.592H597.292V136.184C597.292 138.456 598.268 140.776 600.284 141.864L599.356 143.112C597.116 141.896 596.012 139.08 596.012 136.184V135.592ZM593.18 134.296H599.788V135.656H593.18V134.296ZM595.692 132.216H597.292V135.368H595.692V132.216ZM603.772 131.704H605.372V146.328H603.772V131.704ZM600.828 131.992H602.396V145.608H600.828V131.992ZM549.009 158.672H552.129V160.016H549.009V158.672ZM548.913 162.336H552.081V163.68H548.913V162.336ZM554.241 154.704H555.857V169.328H554.241V154.704ZM551.281 155.056H552.849V168.624H551.281V155.056ZM548.001 156.496H549.617C549.617 160.464 548.209 163.856 544.209 166.224L543.249 165.04C546.625 163.008 548.001 160.304 548.001 156.816V156.496ZM543.985 156.496H548.609V157.856H543.985V156.496ZM563.258 155.616H572.41V156.944H563.258V155.616ZM561.674 161.856H574.89V163.232H561.674V161.856ZM567.386 162.8H569.066V169.344H567.386V162.8ZM571.578 155.616H573.226V156.896C573.226 158.448 573.226 160.176 572.666 162.704L571.018 162.496C571.578 160.096 571.578 158.384 571.578 156.896V155.616ZM582.152 162.944H583.816V165.184H582.152V162.944ZM576.376 161.984H589.592V163.328H576.376V161.984ZM577.848 164.8H587.976V169.296H586.312V166.144H577.848V164.8ZM582.152 154.672H583.816V156.752H582.152V154.672ZM582.056 156.928H583.528V157.184C583.528 159.52 581.112 160.992 577.576 161.312L577.064 160.048C580.2 159.808 582.056 158.624 582.056 157.184V156.928ZM582.44 156.928H583.912V157.184C583.912 158.624 585.768 159.808 588.904 160.048L588.392 161.312C584.84 160.992 582.44 159.52 582.44 157.184V156.928ZM577.688 156.096H588.28V157.408H577.688V156.096Z" fill="black"/>
<path d="M737.161 134.12H738.521V134.712C738.521 137.224 737.033 139.336 734.425 140.12L733.625 138.808C735.881 138.152 737.161 136.504 737.161 134.712V134.12ZM737.465 134.12H738.841V134.712C738.841 136.36 740.073 137.928 742.313 138.552L741.545 139.864C738.937 139.112 737.465 137.08 737.465 134.712V134.12ZM734.089 133.304H741.913V134.632H734.089V133.304ZM737.161 131.64H738.841V133.864H737.161V131.64ZM743.417 131.704H745.097V140.312H743.417V131.704ZM744.633 135.272H747.161V136.664H744.633V135.272ZM735.769 140.968H745.097V146.152H735.769V140.968ZM743.449 142.296H737.417V144.808H743.449V142.296ZM754.968 134.84H759.192V136.2H754.968V134.84ZM754.968 139.432H759.192V140.792H754.968V139.432ZM752.344 132.776C754.504 132.776 756.04 134.776 756.04 137.928C756.04 141.08 754.504 143.096 752.344 143.096C750.184 143.096 748.648 141.08 748.648 137.928C748.648 134.776 750.184 132.776 752.344 132.776ZM752.344 134.296C751.096 134.296 750.232 135.656 750.232 137.928C750.232 140.216 751.096 141.592 752.344 141.592C753.608 141.592 754.456 140.216 754.456 137.928C754.456 135.656 753.608 134.296 752.344 134.296ZM758.872 131.688H760.536V146.344H758.872V131.688ZM773.511 131.704H775.191V146.328H773.511V131.704ZM769.223 133.256H770.871C770.871 137.592 769.143 141.272 764.119 143.72L763.239 142.376C767.447 140.344 769.223 137.448 769.223 133.544V133.256ZM763.959 133.256H769.975V134.6H763.959V133.256ZM785.205 135.08H789.013V136.44H785.205V135.08ZM781.845 132.344C784.037 132.344 785.653 133.768 785.653 135.784C785.653 137.8 784.037 139.208 781.845 139.208C779.653 139.208 778.037 137.8 778.037 135.784C778.037 133.768 779.653 132.344 781.845 132.344ZM781.845 133.752C780.565 133.752 779.637 134.552 779.637 135.784C779.637 137 780.565 137.816 781.845 137.816C783.125 137.816 784.037 137 784.037 135.784C784.037 134.552 783.125 133.752 781.845 133.752ZM788.277 131.704H789.957V139.56H788.277V131.704ZM780.437 140.248H782.101V141.88H788.293V140.248H789.957V146.152H780.437V140.248ZM782.101 143.192V144.808H788.293V143.192H782.101ZM797.284 132.728C799.572 132.728 801.236 134.168 801.236 136.232C801.236 138.312 799.572 139.752 797.284 139.752C794.996 139.752 793.3 138.312 793.3 136.232C793.3 134.168 794.996 132.728 797.284 132.728ZM797.284 134.168C795.94 134.168 794.948 134.968 794.948 136.232C794.948 137.496 795.94 138.312 797.284 138.312C798.612 138.312 799.604 137.496 799.604 136.232C799.604 134.968 798.612 134.168 797.284 134.168ZM802.916 131.688H804.596V146.344H802.916V131.688ZM792.836 143.256L792.628 141.88C795.252 141.88 798.884 141.848 802.036 141.384L802.164 142.6C798.932 143.224 795.412 143.256 792.836 143.256ZM821.245 131.704H822.925V139.192H821.245V131.704ZM813.341 139.896H822.925V143.608H815.005V145.368H813.373V142.376H821.261V141.192H813.341V139.896ZM813.373 144.872H823.357V146.2H813.373V144.872ZM814.509 132.088H815.901V133.192C815.901 135.896 814.349 138.264 811.709 139.144L810.893 137.816C813.197 137.064 814.509 135.16 814.509 133.192V132.088ZM814.829 132.088H816.205V133.192C816.205 135.096 817.517 136.872 819.773 137.56L818.957 138.872C816.349 138.04 814.829 135.816 814.829 133.192V132.088ZM825.579 140.056H838.827V141.416H825.579V140.056ZM831.323 140.904H832.987V146.328H831.323V140.904ZM827.195 132.472H837.179V138.264H827.195V132.472ZM835.531 133.8H828.843V136.936H835.531V133.8ZM840.298 138.392H853.546V139.64H840.298V138.392ZM841.834 140.616H851.93V143.896H843.53V145.4H841.866V142.792H850.282V141.784H841.834V140.616ZM841.866 145H852.378V146.168H841.866V145ZM841.962 132.056H851.882V135.272H843.642V136.68H841.978V134.184H850.234V133.208H841.962V132.056ZM841.978 136.312H852.154V137.48H841.978V136.312ZM864.275 133.224H865.731V133.768C865.731 136.36 863.251 138.36 859.971 138.856L859.331 137.544C862.195 137.16 864.275 135.496 864.275 133.768V133.224ZM864.739 133.224H866.179V133.768C866.179 135.496 868.275 137.16 871.123 137.544L870.499 138.856C867.203 138.36 864.739 136.36 864.739 133.768V133.224ZM864.355 140.856H866.019V146.328H864.355V140.856ZM858.627 139.912H871.843V141.272H858.627V139.912ZM859.827 132.536H870.595V133.88H859.827V132.536ZM884.209 131.704H885.809V146.328H884.209V131.704ZM879.105 136.84H881.745V138.216H879.105V136.84ZM881.265 131.992H882.833V145.608H881.265V131.992ZM876.145 134.024H877.425V135.72C877.425 138.952 876.337 142.088 874.113 143.496L873.105 142.248C875.185 140.968 876.145 138.328 876.145 135.72V134.024ZM876.513 134.024H877.777V135.72C877.777 138.216 878.705 140.712 880.753 141.912L879.761 143.144C877.537 141.816 876.513 138.856 876.513 135.72V134.024ZM873.569 133.304H880.177V134.664H873.569V133.304ZM888.064 143.24H901.312V144.616H888.064V143.24ZM893.824 140.264H895.488V143.8H893.824V140.264ZM889.616 132.728H899.728V137.352H891.312V140.072H889.648V136.024H898.064V134.072H889.616V132.728ZM889.648 139.384H900.064V140.744H889.648V139.384ZM757.564 166.144H770.812V167.536H757.564V166.144ZM758.652 156.08H769.628V157.44H758.652V156.08ZM758.7 162.192H769.596V163.552H758.7V162.192ZM760.796 157.328H762.476V162.336H760.796V157.328ZM765.82 157.328H767.484V162.336H765.82V157.328ZM772.283 166.24H785.531V167.616H772.283V166.24ZM778.043 163.264H779.707V166.8H778.043V163.264ZM773.835 155.728H783.947V160.352H775.531V163.072H773.867V159.024H782.283V157.072H773.835V155.728ZM773.867 162.384H784.283V163.744H773.867V162.384ZM793.034 158.4H795.53V159.76H793.034V158.4ZM794.938 155.008H796.522V163.536H794.938V155.008ZM789.818 156.752H791.13V157.824C791.13 160.176 790.042 162.448 787.802 163.392L786.938 162.096C788.858 161.296 789.818 159.52 789.818 157.824V156.752ZM790.122 156.752H791.434V157.824C791.434 159.408 792.346 161.04 794.17 161.792L793.338 163.088C791.146 162.192 790.122 160.048 790.122 157.824V156.752ZM787.29 155.824H793.786V157.184H787.29V155.824ZM797.786 154.704H799.37V163.632H797.786V154.704ZM789.466 164.224H799.37V169.328H797.706V165.584H789.466V164.224ZM803.352 162.432H813.496V163.76H803.352V162.432ZM801.72 166.16H814.968V167.536H801.72V166.16ZM803.352 155.872H813.352V157.232H805.048V162.816H803.352V155.872ZM804.52 159.12H813.032V160.432H804.52V159.12ZM825.761 155.184H827.233V155.936C827.233 158.736 824.657 160.912 821.281 161.456L820.625 160.096C823.585 159.68 825.761 157.856 825.761 155.936V155.184ZM826.065 155.184H827.521V155.936C827.521 157.824 829.713 159.68 832.673 160.096L832.017 161.456C828.641 160.912 826.065 158.72 826.065 155.936V155.184ZM825.761 163.856H827.425V169.328H825.761V163.856ZM820.033 162.8H833.249V164.176H820.033V162.8ZM842.112 158.08H845.92V159.44H842.112V158.08ZM838.752 155.344C840.944 155.344 842.56 156.768 842.56 158.784C842.56 160.8 840.944 162.208 838.752 162.208C836.56 162.208 834.944 160.8 834.944 158.784C834.944 156.768 836.56 155.344 838.752 155.344ZM838.752 156.752C837.472 156.752 836.544 157.552 836.544 158.784C836.544 160 837.472 160.816 838.752 160.816C840.032 160.816 840.944 160 840.944 158.784C840.944 157.552 840.032 156.752 838.752 156.752ZM845.184 154.704H846.864V162.56H845.184V154.704ZM837.344 163.248H839.008V164.88H845.2V163.248H846.864V169.152H837.344V163.248ZM839.008 166.192V167.808H845.2V166.192H839.008ZM853.198 156.32H854.59V157.696C854.59 160.416 853.07 162.768 850.462 163.664L849.598 162.352C851.902 161.568 853.198 159.664 853.198 157.696V156.32ZM853.534 156.32H854.91V157.696C854.91 159.568 856.222 161.344 858.478 162.08L857.63 163.392C855.054 162.544 853.534 160.304 853.534 157.696V156.32ZM850.046 155.84H858.03V157.184H850.046V155.84ZM859.838 154.72H861.518V165.344H859.838V154.72ZM851.966 167.68H861.934V169.04H851.966V167.68ZM851.966 164.368H853.646V168.32H851.966V164.368ZM874.973 154.704H876.557V163.92H874.973V154.704ZM872.845 158.512H875.421V159.888H872.845V158.512ZM871.885 154.992H873.453V163.408H871.885V154.992ZM864.109 156.336H871.373V157.648H864.109V156.336ZM867.757 158.272C869.597 158.272 870.893 159.296 870.893 160.8C870.893 162.32 869.597 163.328 867.757 163.328C865.933 163.328 864.621 162.32 864.621 160.8C864.621 159.296 865.933 158.272 867.757 158.272ZM867.757 159.504C866.781 159.504 866.125 160 866.125 160.8C866.125 161.616 866.781 162.112 867.757 162.112C868.733 162.112 869.389 161.616 869.389 160.8C869.389 160 868.733 159.504 867.757 159.504ZM866.925 154.832H868.573V157.168H866.925V154.832ZM871.693 164.128C874.781 164.128 876.637 165.056 876.637 166.72C876.637 168.368 874.781 169.312 871.693 169.312C868.605 169.312 866.749 168.368 866.749 166.72C866.749 165.056 868.605 164.128 871.693 164.128ZM871.693 165.392C869.581 165.392 868.413 165.84 868.413 166.72C868.413 167.584 869.581 168.048 871.693 168.048C873.789 168.048 874.957 167.584 874.957 166.72C874.957 165.84 873.789 165.392 871.693 165.392Z" fill="black"/>
<path d="M971.349 134.12H972.709V134.712C972.709 137.224 971.221 139.336 968.613 140.12L967.813 138.808C970.069 138.152 971.349 136.504 971.349 134.712V134.12ZM971.653 134.12H973.029V134.712C973.029 136.36 974.261 137.928 976.501 138.552L975.733 139.864C973.125 139.112 971.653 137.08 971.653 134.712V134.12ZM968.277 133.304H976.101V134.632H968.277V133.304ZM971.349 131.64H973.029V133.864H971.349V131.64ZM977.605 131.704H979.285V140.312H977.605V131.704ZM978.821 135.272H981.349V136.664H978.821V135.272ZM969.957 140.968H979.285V146.152H969.957V140.968ZM977.637 142.296H971.605V144.808H977.637V142.296ZM989.155 134.84H993.379V136.2H989.155V134.84ZM989.155 139.432H993.379V140.792H989.155V139.432ZM986.531 132.776C988.691 132.776 990.227 134.776 990.227 137.928C990.227 141.08 988.691 143.096 986.531 143.096C984.371 143.096 982.835 141.08 982.835 137.928C982.835 134.776 984.371 132.776 986.531 132.776ZM986.531 134.296C985.283 134.296 984.419 135.656 984.419 137.928C984.419 140.216 985.283 141.592 986.531 141.592C987.795 141.592 988.643 140.216 988.643 137.928C988.643 135.656 987.795 134.296 986.531 134.296ZM993.059 131.688H994.723V146.344H993.059V131.688ZM1007.7 131.704H1009.38V146.328H1007.7V131.704ZM1003.41 133.256H1005.06C1005.06 137.592 1003.33 141.272 998.306 143.72L997.426 142.376C1001.63 140.344 1003.41 137.448 1003.41 133.544V133.256ZM998.146 133.256H1004.16V134.6H998.146V133.256ZM1019.39 135.08H1023.2V136.44H1019.39V135.08ZM1016.03 132.344C1018.22 132.344 1019.84 133.768 1019.84 135.784C1019.84 137.8 1018.22 139.208 1016.03 139.208C1013.84 139.208 1012.22 137.8 1012.22 135.784C1012.22 133.768 1013.84 132.344 1016.03 132.344ZM1016.03 133.752C1014.75 133.752 1013.82 134.552 1013.82 135.784C1013.82 137 1014.75 137.816 1016.03 137.816C1017.31 137.816 1018.22 137 1018.22 135.784C1018.22 134.552 1017.31 133.752 1016.03 133.752ZM1022.46 131.704H1024.14V139.56H1022.46V131.704ZM1014.62 140.248H1016.29V141.88H1022.48V140.248H1024.14V146.152H1014.62V140.248ZM1016.29 143.192V144.808H1022.48V143.192H1016.29ZM1031.47 132.728C1033.76 132.728 1035.42 134.168 1035.42 136.232C1035.42 138.312 1033.76 139.752 1031.47 139.752C1029.18 139.752 1027.49 138.312 1027.49 136.232C1027.49 134.168 1029.18 132.728 1031.47 132.728ZM1031.47 134.168C1030.13 134.168 1029.14 134.968 1029.14 136.232C1029.14 137.496 1030.13 138.312 1031.47 138.312C1032.8 138.312 1033.79 137.496 1033.79 136.232C1033.79 134.968 1032.8 134.168 1031.47 134.168ZM1037.1 131.688H1038.78V146.344H1037.1V131.688ZM1027.02 143.256L1026.82 141.88C1029.44 141.88 1033.07 141.848 1036.22 141.384L1036.35 142.6C1033.12 143.224 1029.6 143.256 1027.02 143.256ZM1049.78 132.728C1052.07 132.728 1053.74 134.168 1053.74 136.232C1053.74 138.312 1052.07 139.752 1049.78 139.752C1047.5 139.752 1045.8 138.312 1045.8 136.232C1045.8 134.168 1047.5 132.728 1049.78 132.728ZM1049.78 134.168C1048.44 134.168 1047.45 134.968 1047.45 136.232C1047.45 137.496 1048.44 138.312 1049.78 138.312C1051.11 138.312 1052.1 137.496 1052.1 136.232C1052.1 134.968 1051.11 134.168 1049.78 134.168ZM1055.42 131.688H1057.1V146.344H1055.42V131.688ZM1045.34 143.256L1045.13 141.88C1047.75 141.88 1051.38 141.848 1054.54 141.384L1054.66 142.6C1051.43 143.224 1047.91 143.256 1045.34 143.256ZM1070.21 131.704H1071.89V142.536H1070.21V131.704ZM1065.72 132.824H1067.49C1067.49 136.68 1064.89 139.56 1060.69 140.888L1059.99 139.56C1063.51 138.424 1065.72 136.248 1065.72 133.56V132.824ZM1060.74 132.824H1066.76V134.184H1060.74V132.824ZM1066.76 134.616H1070.45V135.976H1066.76V134.616ZM1066.61 137.912H1070.39V139.272H1066.61V137.912ZM1062.5 144.68H1072.26V146.04H1062.5V144.68ZM1062.5 141.496H1064.18V145.528H1062.5V141.496ZM1081.09 131.928C1084.37 131.928 1086.31 132.824 1086.31 134.456C1086.31 136.072 1084.37 136.968 1081.09 136.968C1077.81 136.968 1075.89 136.072 1075.89 134.456C1075.89 132.824 1077.81 131.928 1081.09 131.928ZM1081.09 133.176C1078.84 133.176 1077.62 133.624 1077.62 134.456C1077.62 135.288 1078.84 135.72 1081.09 135.72C1083.37 135.72 1084.57 135.288 1084.57 134.456C1084.57 133.624 1083.37 133.176 1081.09 133.176ZM1074.49 137.816H1087.7V139.144H1074.49V137.816ZM1076.05 140.216H1086.05V143.704H1077.73V145.272H1076.07V142.52H1084.41V141.464H1076.05V140.216ZM1076.07 144.904H1086.47V146.2H1076.07V144.904ZM1098.54 132.184H1100.01V132.936C1100.01 135.736 1097.44 137.912 1094.06 138.456L1093.41 137.096C1096.37 136.68 1098.54 134.856 1098.54 132.936V132.184ZM1098.85 132.184H1100.3V132.936C1100.3 134.824 1102.49 136.68 1105.45 137.096L1104.8 138.456C1101.42 137.912 1098.85 135.72 1098.85 132.936V132.184ZM1098.54 140.856H1100.21V146.328H1098.54V140.856ZM1092.81 139.8H1106.03V141.176H1092.81V139.8ZM1110.65 136.632H1112.32V139.352H1110.65V136.632ZM1115.92 136.632H1117.58V139.352H1115.92V136.632ZM1107.52 138.808H1120.73V140.136H1107.52V138.808ZM1114.11 141.08C1117.24 141.08 1119.15 142.024 1119.15 143.688C1119.15 145.368 1117.24 146.312 1114.11 146.312C1110.96 146.312 1109.07 145.368 1109.07 143.688C1109.07 142.024 1110.96 141.08 1114.11 141.08ZM1114.11 142.36C1111.96 142.36 1110.76 142.824 1110.76 143.688C1110.76 144.568 1111.96 145.032 1114.11 145.032C1116.25 145.032 1117.45 144.568 1117.45 143.688C1117.45 142.824 1116.25 142.36 1114.11 142.36ZM1114.12 131.944C1117.32 131.944 1119.34 132.984 1119.34 134.712C1119.34 136.44 1117.32 137.448 1114.12 137.448C1110.92 137.448 1108.92 136.44 1108.92 134.712C1108.92 132.984 1110.92 131.944 1114.12 131.944ZM1114.12 133.24C1111.95 133.24 1110.65 133.752 1110.65 134.712C1110.65 135.656 1111.95 136.168 1114.12 136.168C1116.32 136.168 1117.61 135.656 1117.61 134.712C1117.61 133.752 1116.32 133.24 1114.12 133.24ZM1135.51 131.704H1137.17V146.328H1135.51V131.704ZM1136.79 137.576H1139.45V138.968H1136.79V137.576ZM1125.77 133.96H1134.34V135.304H1125.77V133.96ZM1130.1 136.36C1132.18 136.36 1133.72 137.768 1133.72 139.768C1133.72 141.784 1132.18 143.192 1130.1 143.192C1128.01 143.192 1126.47 141.784 1126.47 139.768C1126.47 137.768 1128.01 136.36 1130.1 136.36ZM1130.1 137.736C1128.92 137.736 1128.07 138.536 1128.07 139.768C1128.07 141 1128.92 141.816 1130.1 141.816C1131.27 141.816 1132.12 141 1132.12 139.768C1132.12 138.536 1131.27 137.736 1130.1 137.736ZM1129.24 131.912H1130.92V134.52H1129.24V131.912ZM1147.12 134.84H1151.35V136.2H1147.12V134.84ZM1147.12 139.432H1151.35V140.792H1147.12V139.432ZM1144.5 132.776C1146.66 132.776 1148.2 134.776 1148.2 137.928C1148.2 141.08 1146.66 143.096 1144.5 143.096C1142.34 143.096 1140.8 141.08 1140.8 137.928C1140.8 134.776 1142.34 132.776 1144.5 132.776ZM1144.5 134.296C1143.25 134.296 1142.39 135.656 1142.39 137.928C1142.39 140.216 1143.25 141.592 1144.5 141.592C1145.76 141.592 1146.61 140.216 1146.61 137.928C1146.61 135.656 1145.76 134.296 1144.5 134.296ZM1151.03 131.688H1152.69V146.344H1151.03V131.688ZM1168.52 131.688H1170.2V146.344H1168.52V131.688ZM1169.82 137.304H1172.48V138.696H1169.82V137.304ZM1159.47 141.368H1160.65C1163.24 141.368 1165.16 141.272 1167.32 140.872L1167.5 142.28C1165.26 142.68 1163.31 142.76 1160.65 142.76H1159.47V141.368ZM1159.47 133.08H1166.27V134.44H1161.13V142.008H1159.47V133.08ZM985.546 156.72H988.074V158.096H985.546V156.72ZM985.546 159.856H988.074V161.232H985.546V159.856ZM978.714 155.536C980.938 155.536 982.602 156.976 982.602 159.04C982.602 161.072 980.938 162.512 978.714 162.512C976.49 162.512 974.842 161.072 974.842 159.04C974.842 156.976 976.49 155.536 978.714 155.536ZM978.714 156.944C977.418 156.944 976.474 157.776 976.474 159.04C976.474 160.304 977.418 161.104 978.714 161.104C980.01 161.104 980.97 160.304 980.97 159.04C980.97 157.776 980.01 156.944 978.714 156.944ZM984.378 154.704H986.058V163.312H984.378V154.704ZM981.354 163.696C984.346 163.696 986.218 164.752 986.218 166.512C986.218 168.272 984.346 169.312 981.354 169.312C978.346 169.312 976.474 168.272 976.474 166.512C976.474 164.752 978.346 163.696 981.354 163.696ZM981.354 165.04C979.322 165.04 978.138 165.552 978.138 166.512C978.138 167.472 979.322 167.984 981.354 167.984C983.386 167.984 984.554 167.472 984.554 166.512C984.554 165.552 983.386 165.04 981.354 165.04ZM999.097 154.72H1000.78V165.664H999.097V154.72ZM1000.28 159.36H1002.84V160.752H1000.28V159.36ZM989.385 156.384H997.993V157.712H989.385V156.384ZM993.689 158.384C995.769 158.384 997.225 159.504 997.225 161.152C997.225 162.816 995.769 163.92 993.689 163.92C991.593 163.92 990.137 162.816 990.137 161.152C990.137 159.504 991.593 158.384 993.689 158.384ZM993.689 159.68C992.537 159.68 991.753 160.24 991.753 161.152C991.753 162.08 992.537 162.624 993.689 162.624C994.841 162.624 995.625 162.08 995.625 161.152C995.625 160.24 994.841 159.68 993.689 159.68ZM992.857 154.704H994.521V157.04H992.857V154.704ZM991.529 167.68H1001.37V169.04H991.529V167.68ZM991.529 164.816H993.209V168.256H991.529V164.816ZM1013.33 156.224H1014.79V156.768C1014.79 159.36 1012.31 161.36 1009.03 161.856L1008.39 160.544C1011.25 160.16 1013.33 158.496 1013.33 156.768V156.224ZM1013.79 156.224H1015.23V156.768C1015.23 158.496 1017.33 160.16 1020.18 160.544L1019.55 161.856C1016.26 161.36 1013.79 159.36 1013.79 156.768V156.224ZM1013.41 163.856H1015.07V169.328H1013.41V163.856ZM1007.68 162.912H1020.9V164.272H1007.68V162.912ZM1008.88 155.536H1019.65V156.88H1008.88V155.536ZM1033.26 154.704H1034.86V169.328H1033.26V154.704ZM1028.16 159.84H1030.8V161.216H1028.16V159.84ZM1030.32 154.992H1031.89V168.608H1030.32V154.992ZM1025.2 157.024H1026.48V158.72C1026.48 161.952 1025.39 165.088 1023.17 166.496L1022.16 165.248C1024.24 163.968 1025.2 161.328 1025.2 158.72V157.024ZM1025.57 157.024H1026.83V158.72C1026.83 161.216 1027.76 163.712 1029.81 164.912L1028.82 166.144C1026.59 164.816 1025.57 161.856 1025.57 158.72V157.024ZM1022.62 156.304H1029.23V157.664H1022.62V156.304ZM1037.63 171.216L1037.23 170.176C1038.33 169.712 1038.97 168.896 1038.97 167.936L1038.85 166.464L1039.61 167.664C1039.39 167.904 1039.1 168 1038.8 168C1038.14 168 1037.55 167.568 1037.55 166.816C1037.55 166.08 1038.14 165.632 1038.85 165.632C1039.74 165.632 1040.27 166.368 1040.27 167.6C1040.27 169.296 1039.29 170.592 1037.63 171.216ZM1048.87 158.32H1050.18V159.36C1050.18 162.432 1048.66 165.392 1046.2 166.56L1045.27 165.264C1047.53 164.208 1048.87 161.728 1048.87 159.36V158.32ZM1049.22 158.32H1050.52V159.36C1050.52 161.584 1051.8 163.952 1053.97 165.024L1053.06 166.288C1050.65 165.136 1049.22 162.272 1049.22 159.36V158.32ZM1045.72 157.168H1053.62V158.512H1045.72V157.168ZM1048.85 155.008H1050.53V157.888H1048.85V155.008ZM1055.13 154.704H1056.81V169.328H1055.13V154.704ZM1056.42 160.56H1059.08V161.952H1056.42V160.56ZM1067.16 156.672H1071.03V157.952H1067.16V156.672ZM1067.16 159.344H1071.03V160.624H1067.16V159.344ZM1070.63 154.704H1072.29V162.272H1070.63V154.704ZM1062.77 162.928H1072.29V166.592H1064.45V168.656H1062.8V165.36H1070.64V164.24H1062.77V162.928ZM1062.8 167.824H1072.79V169.152H1062.8V167.824ZM1060.85 155.344H1062.52V157.264H1065.96V155.344H1067.6V161.776H1060.85V155.344ZM1062.52 158.544V160.448H1065.96V158.544H1062.52ZM1078.52 163.392H1080.2V165.76H1078.52V163.392ZM1084.66 154.704H1086.34V169.328H1084.66V154.704ZM1085.78 160.8H1088.42V162.192H1085.78V160.8ZM1074.96 166.704L1074.74 165.328C1077.32 165.328 1080.85 165.312 1083.84 164.88L1083.97 166.112C1080.85 166.688 1077.48 166.704 1074.96 166.704ZM1075 156.4H1083.68V157.728H1075V156.4ZM1079.35 158.464C1081.41 158.464 1082.85 159.552 1082.85 161.184C1082.85 162.832 1081.41 163.904 1079.35 163.904C1077.28 163.904 1075.86 162.832 1075.86 161.184C1075.86 159.552 1077.28 158.464 1079.35 158.464ZM1079.35 159.744C1078.2 159.744 1077.44 160.304 1077.44 161.184C1077.44 162.08 1078.2 162.624 1079.35 162.624C1080.5 162.624 1081.27 162.08 1081.27 161.184C1081.27 160.304 1080.5 159.744 1079.35 159.744ZM1078.52 154.752H1080.2V157.344H1078.52V154.752ZM1090.95 159.344H1098.05V160.688H1090.95V159.344ZM1093.63 160.192H1095.31V163.056H1093.63V160.192ZM1090.95 155.632H1097.95V156.976H1092.63V159.92H1090.95V155.632ZM1100 154.704H1101.68V165.664H1100V154.704ZM1092.03 167.68H1102.13V169.04H1092.03V167.68ZM1092.03 164.928H1093.71V168.224H1092.03V164.928ZM1089.91 163.904L1089.7 162.56C1092.48 162.56 1095.99 162.512 1098.96 162.176L1099.07 163.392C1096 163.84 1092.63 163.904 1089.91 163.904ZM1107.95 166.144H1121.19V167.536H1107.95V166.144ZM1109.03 156.08H1120.01V157.44H1109.03V156.08ZM1109.08 162.192H1119.98V163.552H1109.08V162.192ZM1111.18 157.328H1112.86V162.336H1111.18V157.328ZM1116.2 157.328H1117.87V162.336H1116.2V157.328ZM1122.67 166.24H1135.91V167.616H1122.67V166.24ZM1128.43 163.264H1130.09V166.8H1128.43V163.264ZM1124.22 155.728H1134.33V160.352H1125.91V163.072H1124.25V159.024H1132.67V157.072H1124.22V155.728ZM1124.25 162.384H1134.67V163.744H1124.25V162.384ZM1143.42 158.4H1145.91V159.76H1143.42V158.4ZM1145.32 155.008H1146.9V163.536H1145.32V155.008ZM1140.2 156.752H1141.51V157.824C1141.51 160.176 1140.42 162.448 1138.18 163.392L1137.32 162.096C1139.24 161.296 1140.2 159.52 1140.2 157.824V156.752ZM1140.5 156.752H1141.82V157.824C1141.82 159.408 1142.73 161.04 1144.55 161.792L1143.72 163.088C1141.53 162.192 1140.5 160.048 1140.5 157.824V156.752ZM1137.67 155.824H1144.17V157.184H1137.67V155.824ZM1148.17 154.704H1149.75V163.632H1148.17V154.704ZM1139.85 164.224H1149.75V169.328H1148.09V165.584H1139.85V164.224ZM1153.74 162.432H1163.88V163.76H1153.74V162.432ZM1152.1 166.16H1165.35V167.536H1152.1V166.16ZM1153.74 155.872H1163.74V157.232H1155.43V162.816H1153.74V155.872ZM1154.9 159.12H1163.42V160.432H1154.9V159.12ZM1008.89 179.24H1015.37V180.584H1008.89V179.24ZM1011 183.416H1012.65V188.376H1011V183.416ZM1014.68 179.24H1016.35V180.2C1016.35 181.496 1016.35 183.336 1015.93 185.928L1014.28 185.784C1014.68 183.272 1014.68 181.48 1014.68 180.2V179.24ZM1017.92 177.704H1019.58V192.328H1017.92V177.704ZM1019.12 183.704H1021.76V185.112H1019.12V183.704ZM1008.3 189.24L1008.12 187.864C1010.73 187.864 1014.2 187.816 1017.13 187.448L1017.21 188.68C1014.22 189.176 1010.86 189.24 1008.3 189.24ZM1030.35 181.08H1034.15V182.44H1030.35V181.08ZM1026.99 178.344C1029.18 178.344 1030.79 179.768 1030.79 181.784C1030.79 183.8 1029.18 185.208 1026.99 185.208C1024.79 185.208 1023.18 183.8 1023.18 181.784C1023.18 179.768 1024.79 178.344 1026.99 178.344ZM1026.99 179.752C1025.71 179.752 1024.78 180.552 1024.78 181.784C1024.78 183 1025.71 183.816 1026.99 183.816C1028.27 183.816 1029.18 183 1029.18 181.784C1029.18 180.552 1028.27 179.752 1026.99 179.752ZM1033.42 177.704H1035.1V185.56H1033.42V177.704ZM1025.58 186.248H1027.24V187.88H1033.43V186.248H1035.1V192.152H1025.58V186.248ZM1027.24 189.192V190.808H1033.43V189.192H1027.24ZM1044.3 177.928C1047.58 177.928 1049.51 178.824 1049.51 180.456C1049.51 182.072 1047.58 182.968 1044.3 182.968C1041.02 182.968 1039.1 182.072 1039.1 180.456C1039.1 178.824 1041.02 177.928 1044.3 177.928ZM1044.3 179.176C1042.04 179.176 1040.82 179.624 1040.82 180.456C1040.82 181.288 1042.04 181.72 1044.3 181.72C1046.57 181.72 1047.77 181.288 1047.77 180.456C1047.77 179.624 1046.57 179.176 1044.3 179.176ZM1037.69 183.816H1050.9V185.144H1037.69V183.816ZM1039.26 186.216H1049.26V189.704H1040.94V191.272H1039.27V188.52H1047.61V187.464H1039.26V186.216ZM1039.27 190.904H1049.67V192.2H1039.27V190.904ZM1057.35 179.064H1066.67V180.424H1057.35V179.064ZM1056.02 189.032H1069.23V190.408H1056.02V189.032ZM1059.04 184.312H1060.71V189.496H1059.04V184.312ZM1066.18 179.064H1067.84V180.6C1067.84 182.424 1067.84 184.376 1067.33 187.208L1065.67 187.032C1066.18 184.36 1066.18 182.376 1066.18 180.6V179.064ZM1062.66 184.312H1064.31V189.496H1062.66V184.312ZM1074.05 185.304H1075.71V188.184H1074.05V185.304ZM1078.94 185.288H1080.61V188.168H1078.94V185.288ZM1070.72 184.648H1083.94V185.992H1070.72V184.648ZM1072.19 187.608H1082.32V192.328H1080.66V188.936H1072.19V187.608ZM1077.33 178.024C1080.51 178.024 1082.54 179.096 1082.54 180.856C1082.54 182.616 1080.51 183.688 1077.33 183.688C1074.14 183.688 1072.13 182.616 1072.13 180.856C1072.13 179.096 1074.14 178.024 1077.33 178.024ZM1077.33 179.336C1075.15 179.336 1073.86 179.864 1073.86 180.856C1073.86 181.832 1075.15 182.376 1077.33 182.376C1079.5 182.376 1080.82 181.832 1080.82 180.856C1080.82 179.864 1079.5 179.336 1077.33 179.336ZM1091.34 183.256H1093.93V184.616H1091.34V183.256ZM1096.33 177.704H1097.93V192.328H1096.33V177.704ZM1093.39 177.976H1094.97V191.624H1093.39V177.976ZM1088.73 178.84C1090.65 178.84 1091.89 180.824 1091.89 184.024C1091.89 187.24 1090.65 189.224 1088.73 189.224C1086.83 189.224 1085.6 187.24 1085.6 184.024C1085.6 180.824 1086.83 178.84 1088.73 178.84ZM1088.73 180.408C1087.74 180.408 1087.13 181.72 1087.13 184.024C1087.13 186.328 1087.74 187.64 1088.73 187.64C1089.74 187.64 1090.35 186.328 1090.35 184.024C1090.35 181.72 1089.74 180.408 1088.73 180.408ZM1113.5 177.72H1115.18V188.456H1113.5V177.72ZM1114.68 181.992H1117.24V183.384H1114.68V181.992ZM1105.93 190.68H1115.77V192.04H1105.93V190.68ZM1105.93 187.4H1107.61V190.984H1105.93V187.4ZM1104.28 178.76H1105.94V181.048H1109.51V178.76H1111.16V186.072H1104.28V178.76ZM1105.94 182.344V184.744H1109.51V182.344H1105.94ZM1125.05 179.72H1129.45V181.08H1125.05V179.72ZM1125.05 183.032H1129.45V184.392H1125.05V183.032ZM1122.49 178.536C1124.65 178.536 1126.29 180.008 1126.29 182.056C1126.29 184.104 1124.65 185.576 1122.49 185.576C1120.31 185.576 1118.68 184.104 1118.68 182.056C1118.68 180.008 1120.31 178.536 1122.49 178.536ZM1122.49 179.96C1121.22 179.96 1120.28 180.776 1120.28 182.056C1120.28 183.32 1121.22 184.152 1122.49 184.152C1123.75 184.152 1124.69 183.32 1124.69 182.056C1124.69 180.776 1123.75 179.96 1122.49 179.96ZM1128.92 177.704H1130.6V186.312H1128.92V177.704ZM1125.72 186.648C1128.76 186.648 1130.65 187.688 1130.65 189.48C1130.65 191.272 1128.76 192.312 1125.72 192.312C1122.68 192.312 1120.79 191.272 1120.79 189.48C1120.79 187.688 1122.68 186.648 1125.72 186.648ZM1125.72 187.944C1123.64 187.944 1122.44 188.488 1122.44 189.48C1122.44 190.456 1123.64 191 1125.72 191C1127.8 191 1129 190.456 1129 189.48C1129 188.488 1127.8 187.944 1125.72 187.944Z" fill="black"/>
<path d="M1218.29 134.12H1219.65V134.712C1219.65 137.224 1218.16 139.336 1215.55 140.12L1214.75 138.808C1217.01 138.152 1218.29 136.504 1218.29 134.712V134.12ZM1218.59 134.12H1219.97V134.712C1219.97 136.36 1221.2 137.928 1223.44 138.552L1222.67 139.864C1220.06 139.112 1218.59 137.08 1218.59 134.712V134.12ZM1215.21 133.304H1223.04V134.632H1215.21V133.304ZM1218.29 131.64H1219.97V133.864H1218.29V131.64ZM1224.54 131.704H1226.22V140.312H1224.54V131.704ZM1225.76 135.272H1228.29V136.664H1225.76V135.272ZM1216.89 140.968H1226.22V146.152H1216.89V140.968ZM1224.57 142.296H1218.54V144.808H1224.57V142.296ZM1236.09 134.84H1240.32V136.2H1236.09V134.84ZM1236.09 139.432H1240.32V140.792H1236.09V139.432ZM1233.47 132.776C1235.63 132.776 1237.16 134.776 1237.16 137.928C1237.16 141.08 1235.63 143.096 1233.47 143.096C1231.31 143.096 1229.77 141.08 1229.77 137.928C1229.77 134.776 1231.31 132.776 1233.47 132.776ZM1233.47 134.296C1232.22 134.296 1231.36 135.656 1231.36 137.928C1231.36 140.216 1232.22 141.592 1233.47 141.592C1234.73 141.592 1235.58 140.216 1235.58 137.928C1235.58 135.656 1234.73 134.296 1233.47 134.296ZM1240 131.688H1241.66V146.344H1240V131.688ZM1254.64 131.704H1256.32V146.328H1254.64V131.704ZM1250.35 133.256H1252C1252 137.592 1250.27 141.272 1245.24 143.72L1244.36 142.376C1248.57 140.344 1250.35 137.448 1250.35 133.544V133.256ZM1245.08 133.256H1251.1V134.6H1245.08V133.256ZM1266.33 135.08H1270.14V136.44H1266.33V135.08ZM1262.97 132.344C1265.16 132.344 1266.78 133.768 1266.78 135.784C1266.78 137.8 1265.16 139.208 1262.97 139.208C1260.78 139.208 1259.16 137.8 1259.16 135.784C1259.16 133.768 1260.78 132.344 1262.97 132.344ZM1262.97 133.752C1261.69 133.752 1260.76 134.552 1260.76 135.784C1260.76 137 1261.69 137.816 1262.97 137.816C1264.25 137.816 1265.16 137 1265.16 135.784C1265.16 134.552 1264.25 133.752 1262.97 133.752ZM1269.4 131.704H1271.08V139.56H1269.4V131.704ZM1261.56 140.248H1263.23V141.88H1269.42V140.248H1271.08V146.152H1261.56V140.248ZM1263.23 143.192V144.808H1269.42V143.192H1263.23ZM1279.58 137.256H1282.17V138.616H1279.58V137.256ZM1284.57 131.704H1286.17V146.328H1284.57V131.704ZM1281.63 131.976H1283.21V145.624H1281.63V131.976ZM1276.97 132.84C1278.89 132.84 1280.12 134.824 1280.12 138.024C1280.12 141.24 1278.89 143.224 1276.97 143.224C1275.07 143.224 1273.83 141.24 1273.83 138.024C1273.83 134.824 1275.07 132.84 1276.97 132.84ZM1276.97 134.408C1275.98 134.408 1275.37 135.72 1275.37 138.024C1275.37 140.328 1275.98 141.64 1276.97 141.64C1277.98 141.64 1278.59 140.328 1278.59 138.024C1278.59 135.72 1277.98 134.408 1276.97 134.408ZM1295.74 136.488H1299.7V137.848H1295.74V136.488ZM1292.01 132.904H1293.37V135.304C1293.37 138.744 1291.86 142.008 1289.35 143.304L1288.3 141.96C1290.6 140.856 1292.01 138.04 1292.01 135.304V132.904ZM1292.34 132.904H1293.69V135.304C1293.69 138.008 1295.08 140.664 1297.34 141.704L1296.33 143.048C1293.8 141.784 1292.34 138.696 1292.34 135.304V132.904ZM1298.87 131.688H1300.54V146.344H1298.87V131.688ZM1317.09 131.704H1318.77V139.192H1317.09V131.704ZM1309.18 139.896H1318.77V143.608H1310.85V145.368H1309.22V142.376H1317.1V141.192H1309.18V139.896ZM1309.22 144.872H1319.2V146.2H1309.22V144.872ZM1310.35 132.088H1311.74V133.192C1311.74 135.896 1310.19 138.264 1307.55 139.144L1306.74 137.816C1309.04 137.064 1310.35 135.16 1310.35 133.192V132.088ZM1310.67 132.088H1312.05V133.192C1312.05 135.096 1313.36 136.872 1315.62 137.56L1314.8 138.872C1312.19 138.04 1310.67 135.816 1310.67 133.192V132.088ZM1332.3 131.704H1333.9V146.328H1332.3V131.704ZM1327.2 136.84H1329.84V138.216H1327.2V136.84ZM1329.36 131.992H1330.93V145.608H1329.36V131.992ZM1324.24 134.024H1325.52V135.72C1325.52 138.952 1324.43 142.088 1322.21 143.496L1321.2 142.248C1323.28 140.968 1324.24 138.328 1324.24 135.72V134.024ZM1324.61 134.024H1325.87V135.72C1325.87 138.216 1326.8 140.712 1328.85 141.912L1327.86 143.144C1325.63 141.816 1324.61 138.856 1324.61 135.72V134.024ZM1321.66 133.304H1328.27V134.664H1321.66V133.304ZM1343.48 133.32H1344.87V134.696C1344.87 137.416 1343.35 139.768 1340.74 140.664L1339.88 139.352C1342.18 138.568 1343.48 136.664 1343.48 134.696V133.32ZM1343.82 133.32H1345.19V134.696C1345.19 136.568 1346.5 138.344 1348.76 139.08L1347.91 140.392C1345.34 139.544 1343.82 137.304 1343.82 134.696V133.32ZM1340.33 132.84H1348.31V134.184H1340.33V132.84ZM1350.12 131.72H1351.8V142.344H1350.12V131.72ZM1342.25 144.68H1352.22V146.04H1342.25V144.68ZM1342.25 141.368H1343.93V145.32H1342.25V141.368ZM1365.25 131.704H1366.84V140.92H1365.25V131.704ZM1363.13 135.512H1365.7V136.888H1363.13V135.512ZM1362.17 131.992H1363.73V140.408H1362.17V131.992ZM1354.39 133.336H1361.65V134.648H1354.39V133.336ZM1358.04 135.272C1359.88 135.272 1361.17 136.296 1361.17 137.8C1361.17 139.32 1359.88 140.328 1358.04 140.328C1356.21 140.328 1354.9 139.32 1354.9 137.8C1354.9 136.296 1356.21 135.272 1358.04 135.272ZM1358.04 136.504C1357.06 136.504 1356.41 137 1356.41 137.8C1356.41 138.616 1357.06 139.112 1358.04 139.112C1359.01 139.112 1359.67 138.616 1359.67 137.8C1359.67 137 1359.01 136.504 1358.04 136.504ZM1357.21 131.832H1358.85V134.168H1357.21V131.832ZM1361.97 141.128C1365.06 141.128 1366.92 142.056 1366.92 143.72C1366.92 145.368 1365.06 146.312 1361.97 146.312C1358.89 146.312 1357.03 145.368 1357.03 143.72C1357.03 142.056 1358.89 141.128 1361.97 141.128ZM1361.97 142.392C1359.86 142.392 1358.69 142.84 1358.69 143.72C1358.69 144.584 1359.86 145.048 1361.97 145.048C1364.07 145.048 1365.24 144.584 1365.24 143.72C1365.24 142.84 1364.07 142.392 1361.97 142.392ZM1378.92 131.72H1380.6V142.664H1378.92V131.72ZM1380.1 136.36H1382.66V137.752H1380.1V136.36ZM1369.21 133.384H1377.81V134.712H1369.21V133.384ZM1373.51 135.384C1375.59 135.384 1377.05 136.504 1377.05 138.152C1377.05 139.816 1375.59 140.92 1373.51 140.92C1371.41 140.92 1369.96 139.816 1369.96 138.152C1369.96 136.504 1371.41 135.384 1373.51 135.384ZM1373.51 136.68C1372.36 136.68 1371.57 137.24 1371.57 138.152C1371.57 139.08 1372.36 139.624 1373.51 139.624C1374.66 139.624 1375.45 139.08 1375.45 138.152C1375.45 137.24 1374.66 136.68 1373.51 136.68ZM1372.68 131.704H1374.34V134.04H1372.68V131.704ZM1371.35 144.68H1381.19V146.04H1371.35V144.68ZM1371.35 141.816H1373.03V145.256H1371.35V141.816ZM1394.86 135.08H1398.67V136.44H1394.86V135.08ZM1391.5 132.344C1393.69 132.344 1395.31 133.768 1395.31 135.784C1395.31 137.8 1393.69 139.208 1391.5 139.208C1389.31 139.208 1387.69 137.8 1387.69 135.784C1387.69 133.768 1389.31 132.344 1391.5 132.344ZM1391.5 133.752C1390.22 133.752 1389.29 134.552 1389.29 135.784C1389.29 137 1390.22 137.816 1391.5 137.816C1392.78 137.816 1393.69 137 1393.69 135.784C1393.69 134.552 1392.78 133.752 1391.5 133.752ZM1397.93 131.704H1399.61V139.56H1397.93V131.704ZM1390.09 140.248H1391.76V141.88H1397.95V140.248H1399.61V146.152H1390.09V140.248ZM1391.76 143.192V144.808H1397.95V143.192H1391.76ZM1402.2 140.056H1415.45V141.416H1402.2V140.056ZM1407.95 140.904H1409.61V146.328H1407.95V140.904ZM1403.82 132.472H1413.8V138.264H1403.82V132.472ZM1412.16 133.8H1405.47V136.936H1412.16V133.8ZM1416.92 138.392H1430.17V139.64H1416.92V138.392ZM1418.46 140.616H1428.56V143.896H1420.16V145.4H1418.49V142.792H1426.91V141.784H1418.46V140.616ZM1418.49 145H1429V146.168H1418.49V145ZM1418.59 132.056H1428.51V135.272H1420.27V136.68H1418.6V134.184H1426.86V133.208H1418.59V132.056ZM1418.6 136.312H1428.78V137.48H1418.6V136.312ZM1216.14 156.064H1225.47V157.424H1216.14V156.064ZM1214.81 166.032H1228.03V167.408H1214.81V166.032ZM1217.84 161.312H1219.5V166.496H1217.84V161.312ZM1224.97 156.064H1226.64V157.6C1226.64 159.424 1226.64 161.376 1226.13 164.208L1224.46 164.032C1224.97 161.36 1224.97 159.376 1224.97 157.6V156.064ZM1221.45 161.312H1223.1V166.496H1221.45V161.312ZM1229.53 166.16H1242.78V167.536H1229.53V166.16ZM1235.29 162.832H1236.96V166.528H1235.29V162.832ZM1231 155.696H1232.68V158.144H1239.58V155.696H1241.24V163.232H1231V155.696ZM1232.68 159.472V161.872H1239.58V159.472H1232.68ZM1255.2 154.704H1256.8V169.328H1255.2V154.704ZM1253.13 160.464H1255.77V161.856H1253.13V160.464ZM1252.03 154.976H1253.6V168.624H1252.03V154.976ZM1247.08 156.976H1248.36V158.48C1248.36 162.032 1247.37 165.024 1245.05 166.416L1244.03 165.136C1246.17 163.92 1247.08 161.392 1247.08 158.48V156.976ZM1247.4 156.976H1248.7V158.48C1248.7 161.12 1249.63 163.52 1251.74 164.608L1250.76 165.888C1248.43 164.624 1247.4 161.776 1247.4 158.48V156.976ZM1244.43 156.32H1251.15V157.68H1244.43V156.32ZM1266 155.456H1267.4V156.8C1267.4 159.664 1265.94 162.064 1263.32 163.024L1262.44 161.696C1264.76 160.88 1266 158.912 1266 156.8V155.456ZM1266.34 155.456H1267.68V156.768C1267.68 158.688 1268.93 160.544 1271.12 161.296L1270.26 162.608C1267.76 161.696 1266.34 159.424 1266.34 156.768V155.456ZM1272.29 154.704H1273.97V163.216H1272.29V154.704ZM1273.51 158.192H1276.04V159.584H1273.51V158.192ZM1264.64 163.84H1273.97V169.152H1264.64V163.84ZM1272.32 165.168H1266.29V167.808H1272.32V165.168ZM1281.17 155.776C1283.35 155.776 1284.91 157.776 1284.91 160.928C1284.91 164.08 1283.35 166.096 1281.17 166.096C1278.99 166.096 1277.43 164.08 1277.43 160.928C1277.43 157.776 1278.99 155.776 1281.17 155.776ZM1281.17 157.296C1279.91 157.296 1279.03 158.656 1279.03 160.928C1279.03 163.216 1279.91 164.592 1281.17 164.592C1282.43 164.592 1283.31 163.216 1283.31 160.928C1283.31 158.656 1282.43 157.296 1281.17 157.296ZM1286.93 154.704H1288.61V169.328H1286.93V154.704ZM1288.23 160.4H1290.88V161.792H1288.23V160.4ZM1295.58 163.008H1308.8V164.32H1295.58V163.008ZM1301.5 163.984H1303.16V166.336H1301.5V163.984ZM1297.2 167.712H1307.36V169.04H1297.2V167.712ZM1297.2 165.408H1298.86V168.496H1297.2V165.408ZM1296.25 155.984H1308.08V157.264H1296.25V155.984ZM1302.19 157.792C1305.24 157.792 1306.99 158.576 1306.99 160.016C1306.99 161.472 1305.24 162.256 1302.19 162.256C1299.15 162.256 1297.39 161.472 1297.39 160.016C1297.39 158.576 1299.15 157.792 1302.19 157.792ZM1302.19 158.992C1300.14 158.992 1299.1 159.328 1299.1 160.016C1299.1 160.704 1300.14 161.056 1302.19 161.056C1304.24 161.056 1305.28 160.704 1305.28 160.016C1305.28 159.328 1304.24 158.992 1302.19 158.992ZM1301.36 154.592H1303.02V156.752H1301.36V154.592ZM1310.89 162.256H1311.96C1314.6 162.256 1316.12 162.192 1317.91 161.872L1318.09 163.232C1316.25 163.552 1314.67 163.616 1311.96 163.616H1310.89V162.256ZM1310.86 155.728H1317.21V160.192H1312.55V163.056H1310.89V158.912H1315.55V157.072H1310.86V155.728ZM1320.75 154.72H1322.43V165.488H1320.75V154.72ZM1318.14 157.056H1321.1V158.4H1318.14V157.056ZM1312.84 167.632H1322.83V168.992H1312.84V167.632ZM1312.84 164.688H1314.51V168.176H1312.84V164.688ZM1318.14 160.336H1321.1V161.696H1318.14V160.336ZM1331.62 154.928C1334.9 154.928 1336.84 155.824 1336.84 157.456C1336.84 159.072 1334.9 159.968 1331.62 159.968C1328.34 159.968 1326.42 159.072 1326.42 157.456C1326.42 155.824 1328.34 154.928 1331.62 154.928ZM1331.62 156.176C1329.37 156.176 1328.15 156.624 1328.15 157.456C1328.15 158.288 1329.37 158.72 1331.62 158.72C1333.9 158.72 1335.1 158.288 1335.1 157.456C1335.1 156.624 1333.9 156.176 1331.62 156.176ZM1325.02 160.816H1338.23V162.144H1325.02V160.816ZM1326.58 163.216H1336.58V166.704H1328.26V168.272H1326.6V165.52H1334.94V164.464H1326.58V163.216ZM1326.6 167.904H1337V169.2H1326.6V167.904ZM1347.07 156.32H1348.47V157.696C1348.47 160.416 1346.95 162.768 1344.34 163.664L1343.47 162.352C1345.78 161.568 1347.07 159.664 1347.07 157.696V156.32ZM1347.41 156.32H1348.79V157.696C1348.79 159.568 1350.1 161.344 1352.35 162.08L1351.51 163.392C1348.93 162.544 1347.41 160.304 1347.41 157.696V156.32ZM1343.92 155.84H1351.91V157.184H1343.92V155.84ZM1353.71 154.72H1355.39V165.344H1353.71V154.72ZM1345.84 167.68H1355.81V169.04H1345.84V167.68ZM1345.84 164.368H1347.52V168.32H1345.84V164.368ZM1368.85 154.704H1370.43V163.92H1368.85V154.704ZM1366.72 158.512H1369.3V159.888H1366.72V158.512ZM1365.76 154.992H1367.33V163.408H1365.76V154.992ZM1357.98 156.336H1365.25V157.648H1357.98V156.336ZM1361.63 158.272C1363.47 158.272 1364.77 159.296 1364.77 160.8C1364.77 162.32 1363.47 163.328 1361.63 163.328C1359.81 163.328 1358.5 162.32 1358.5 160.8C1358.5 159.296 1359.81 158.272 1361.63 158.272ZM1361.63 159.504C1360.66 159.504 1360 160 1360 160.8C1360 161.616 1360.66 162.112 1361.63 162.112C1362.61 162.112 1363.26 161.616 1363.26 160.8C1363.26 160 1362.61 159.504 1361.63 159.504ZM1360.8 154.832H1362.45V157.168H1360.8V154.832ZM1365.57 164.128C1368.66 164.128 1370.51 165.056 1370.51 166.72C1370.51 168.368 1368.66 169.312 1365.57 169.312C1362.48 169.312 1360.62 168.368 1360.62 166.72C1360.62 165.056 1362.48 164.128 1365.57 164.128ZM1365.57 165.392C1363.46 165.392 1362.29 165.84 1362.29 166.72C1362.29 167.584 1363.46 168.048 1365.57 168.048C1367.66 168.048 1368.83 167.584 1368.83 166.72C1368.83 165.84 1367.66 165.392 1365.57 165.392ZM1382.51 154.704H1384.19V163.504H1382.51V154.704ZM1383.73 158.464H1386.25V159.856H1383.73V158.464ZM1374.86 164.256H1384.19V169.152H1374.86V164.256ZM1382.54 165.584H1376.51V167.808H1382.54V165.584ZM1372.8 156.144H1381.41V157.488H1372.8V156.144ZM1377.1 158.08C1379.2 158.08 1380.64 159.136 1380.64 160.704C1380.64 162.288 1379.2 163.312 1377.1 163.312C1374.99 163.312 1373.55 162.288 1373.55 160.704C1373.55 159.136 1374.99 158.08 1377.1 158.08ZM1377.1 159.344C1375.95 159.344 1375.17 159.856 1375.17 160.704C1375.17 161.552 1375.95 162.064 1377.1 162.064C1378.25 162.064 1379.04 161.552 1379.04 160.704C1379.04 159.856 1378.25 159.344 1377.1 159.344ZM1376.27 154.592H1377.93V156.848H1376.27V154.592ZM1394.09 155.552C1397.15 155.552 1399.47 157.184 1399.47 159.664C1399.47 162.16 1397.15 163.792 1394.09 163.792C1391.05 163.792 1388.72 162.16 1388.72 159.664C1388.72 157.184 1391.05 155.552 1394.09 155.552ZM1394.09 156.912C1391.93 156.912 1390.35 157.984 1390.35 159.664C1390.35 161.328 1391.93 162.416 1394.09 162.416C1396.27 162.416 1397.85 161.328 1397.85 159.664C1397.85 157.984 1396.27 156.912 1394.09 156.912ZM1387.5 166.08H1400.75V167.472H1387.5V166.08ZM1402.22 166.24H1415.47V167.616H1402.22V166.24ZM1407.98 163.264H1409.64V166.8H1407.98V163.264ZM1403.77 155.728H1413.88V160.352H1405.47V163.072H1403.8V159.024H1412.22V157.072H1403.77V155.728ZM1403.8 162.384H1414.22V163.744H1403.8V162.384ZM1427.61 154.704H1429.31V169.328H1427.61V154.704ZM1425.39 159.824H1428.41V161.264H1425.39V159.824ZM1418.84 155.936H1420.08V158.864C1420.08 161.504 1419.63 164.544 1417.76 166.032L1416.65 164.848C1418.48 163.472 1418.84 160.928 1418.84 158.864V155.936ZM1419.23 155.936H1420.41V158.864C1420.41 160.816 1420.73 163.488 1422.56 164.96L1421.64 166.208C1419.6 164.672 1419.23 161.36 1419.23 158.864V155.936ZM1422.86 155.936H1424.06V158.864C1424.06 161.424 1423.68 164.688 1421.64 166.208L1420.73 164.96C1422.56 163.52 1422.86 160.896 1422.86 158.864V155.936ZM1423.23 155.936H1424.46V158.864C1424.46 160.976 1424.83 163.488 1426.65 164.848L1425.61 166.08C1423.66 164.592 1423.23 161.536 1423.23 158.864V155.936ZM1278.49 177.704H1280.17V185.192H1278.49V177.704ZM1270.59 185.896H1280.17V189.608H1272.25V191.368H1270.62V188.376H1278.51V187.192H1270.59V185.896ZM1270.62 190.872H1280.61V192.2H1270.62V190.872ZM1271.76 178.088H1273.15V179.192C1273.15 181.896 1271.6 184.264 1268.96 185.144L1268.14 183.816C1270.45 183.064 1271.76 181.16 1271.76 179.192V178.088ZM1272.08 178.088H1273.45V179.192C1273.45 181.096 1274.77 182.872 1277.02 183.56L1276.21 184.872C1273.6 184.04 1272.08 181.816 1272.08 179.192V178.088ZM1282.83 186.056H1296.08V187.416H1282.83V186.056ZM1288.57 186.904H1290.24V192.328H1288.57V186.904ZM1284.45 178.472H1294.43V184.264H1284.45V178.472ZM1292.78 179.8H1286.09V182.936H1292.78V179.8ZM1304.73 179.176H1306.09V180.248C1306.09 182.952 1304.6 185.352 1301.99 186.248L1301.14 184.92C1303.41 184.152 1304.73 182.216 1304.73 180.248V179.176ZM1305.06 179.176H1306.41V180.248C1306.41 182.056 1307.65 183.864 1309.85 184.616L1309.01 185.944C1306.49 185.064 1305.06 182.76 1305.06 180.248V179.176ZM1309.03 181.368H1312.07V182.744H1309.03V181.368ZM1301.62 178.616H1309.46V179.96H1301.62V178.616ZM1303.41 187.16H1313.27V192.328H1311.59V188.52H1303.41V187.16ZM1311.59 177.704H1313.27V186.424H1311.59V177.704ZM1315.86 184.68H1329.08V186.024H1315.86V184.68ZM1322.45 187.048C1325.59 187.048 1327.49 187.992 1327.49 189.688C1327.49 191.384 1325.59 192.328 1322.45 192.328C1319.3 192.328 1317.41 191.384 1317.41 189.688C1317.41 187.992 1319.3 187.048 1322.45 187.048ZM1322.45 188.328C1320.31 188.328 1319.11 188.808 1319.11 189.688C1319.11 190.584 1320.31 191.048 1322.45 191.048C1324.6 191.048 1325.8 190.584 1325.8 189.688C1325.8 188.808 1324.6 188.328 1322.45 188.328ZM1322.47 178.04C1325.65 178.04 1327.68 179.112 1327.68 180.872C1327.68 182.632 1325.65 183.688 1322.47 183.688C1319.28 183.688 1317.27 182.632 1317.27 180.872C1317.27 179.112 1319.28 178.04 1322.47 178.04ZM1322.47 179.352C1320.29 179.352 1319 179.896 1319 180.872C1319 181.848 1320.29 182.376 1322.47 182.376C1324.64 182.376 1325.96 181.848 1325.96 180.872C1325.96 179.896 1324.64 179.352 1322.47 179.352ZM1331.17 184.824H1332.24C1335.06 184.824 1336.48 184.776 1338.18 184.472L1338.36 185.816C1336.6 186.136 1335.12 186.184 1332.24 186.184H1331.17V184.824ZM1331.14 178.568H1337.49V182.92H1332.84V185.688H1331.17V181.64H1335.84V179.912H1331.14V178.568ZM1341.03 177.72H1342.71V186.712H1341.03V177.72ZM1338.4 179.816H1341.36V181.16H1338.4V179.816ZM1338.4 182.872H1341.36V184.232H1338.4V182.872ZM1332.82 187.448H1342.71V192.344H1341.03V188.792H1332.82V187.448ZM1359.77 177.704H1361.37V192.328H1359.77V177.704ZM1354.67 182.84H1357.31V184.216H1354.67V182.84ZM1356.83 177.992H1358.4V191.608H1356.83V177.992ZM1351.71 180.024H1352.99V181.72C1352.99 184.952 1351.9 188.088 1349.68 189.496L1348.67 188.248C1350.75 186.968 1351.71 184.328 1351.71 181.72V180.024ZM1352.08 180.024H1353.34V181.72C1353.34 184.216 1354.27 186.712 1356.32 187.912L1355.32 189.144C1353.1 187.816 1352.08 184.856 1352.08 181.72V180.024ZM1349.13 179.304H1355.74V180.664H1349.13V179.304ZM1365 179.064H1374.35V180.424H1365V179.064ZM1363.63 189.032H1376.84V190.408H1363.63V189.032ZM1368.55 183.896H1370.23V189.72H1368.55V183.896ZM1373.72 179.064H1375.4V180.488C1375.4 182.312 1375.4 184.344 1374.84 187.368L1373.16 187.176C1373.72 184.328 1373.72 182.248 1373.72 180.488V179.064Z" fill="black"/>
</svg>
