<svg width="3921" height="2749" viewBox="0 0 3921 2749" fill="none" xmlns="http://www.w3.org/2000/svg">
<ellipse cx="518.75" cy="1394.61" rx="480.75" ry="480.613" stroke="#BBDFBF" stroke-width="75"/>
<ellipse cx="1479.75" cy="1394.61" rx="480.75" ry="480.613" stroke="#BBDFBF" stroke-width="75"/>
<ellipse cx="2441.75" cy="1394.61" rx="480.75" ry="480.613" stroke="#BBDFBF" stroke-width="75"/>
<ellipse cx="3402.75" cy="1394.61" rx="480.75" ry="480.613" stroke="#BBDFBF" stroke-width="75"/>
<path fill-rule="evenodd" clip-rule="evenodd" d="M1479.26 951.674C1421.05 951.674 1363.41 963.136 1309.63 985.405C1255.85 1007.67 1206.99 1040.31 1165.83 1081.46C1124.67 1122.61 1092.02 1171.46 1069.75 1225.22C1047.47 1278.98 1036.01 1336.6 1036.01 1394.79H961.007C961.007 1326.75 974.412 1259.37 1000.46 1196.51C1026.5 1133.65 1064.68 1076.53 1112.8 1028.42C1160.93 980.311 1218.06 942.148 1280.93 916.111C1343.81 890.075 1411.2 876.674 1479.26 876.674C1547.31 876.674 1614.7 890.075 1677.58 916.112C1740.46 942.148 1797.59 980.311 1845.71 1028.42C1893.84 1076.53 1932.01 1133.65 1958.06 1196.51C1984.1 1259.37 1997.51 1326.75 1997.51 1394.79L1922.51 1394.79C1922.51 1336.6 1911.04 1278.98 1888.77 1225.22C1866.49 1171.46 1833.84 1122.61 1792.69 1081.46C1751.53 1040.32 1702.66 1007.67 1648.89 985.405C1595.11 963.136 1537.47 951.674 1479.26 951.674ZM961.5 1395C961.5 1512.51 914.803 1625.22 831.679 1708.32C748.554 1791.42 635.811 1838.11 518.25 1838.11C400.689 1838.11 287.946 1791.42 204.821 1708.32C121.697 1625.22 75 1512.51 75 1395L0 1395C1.90735e-05 1532.41 54.6038 1664.2 151.796 1761.36C248.987 1858.53 380.805 1913.11 518.25 1913.11C655.695 1913.11 787.513 1858.53 884.704 1761.36C981.896 1664.2 1036.5 1532.41 1036.5 1395H961.5ZM2884.5 1395C2884.5 1512.51 2837.8 1625.22 2754.68 1708.32C2671.55 1791.42 2558.81 1838.11 2441.25 1838.11C2323.69 1838.11 2210.95 1791.42 2127.82 1708.32C2044.7 1625.22 1998 1512.51 1998 1395L1923 1395C1923 1532.41 1977.6 1664.2 2074.8 1761.36C2171.99 1858.53 2303.81 1913.11 2441.25 1913.11C2578.7 1913.11 2710.51 1858.53 2807.71 1761.36C2904.9 1664.2 2959.5 1532.41 2959.5 1395C2959.5 1336.81 2970.96 1279.19 2993.24 1225.43C3015.51 1171.67 3048.16 1122.82 3089.32 1081.67C3130.48 1040.53 3179.34 1007.89 3233.12 985.616C3286.9 963.347 3344.54 951.885 3402.75 951.885C3460.96 951.885 3518.6 963.347 3572.38 985.616C3626.16 1007.89 3675.02 1040.53 3716.18 1081.67C3757.34 1122.82 3789.99 1171.67 3812.26 1225.43C3834.54 1279.19 3846 1336.81 3846 1395L3921 1395C3921 1326.96 3907.59 1259.58 3881.55 1196.72C3855.5 1133.86 3817.33 1076.74 3769.2 1028.63C3721.08 980.522 3663.95 942.359 3601.07 916.322C3538.2 890.286 3470.81 876.885 3402.75 876.885C3334.69 876.885 3267.3 890.285 3204.43 916.322C3141.55 942.359 3084.42 980.522 3036.3 1028.63C2988.17 1076.74 2950 1133.86 2923.95 1196.72C2897.91 1259.58 2884.5 1326.96 2884.5 1395Z" fill="#31AC5B"/>
<path d="M240.807 1369V1358.29H255.117V1316.17H243.057V1307.98C249.717 1306.72 254.307 1305.01 258.537 1302.31H268.347V1358.29H280.857V1369H240.807ZM337.185 1328.23L338.355 1337.59C328.185 1339.84 318.735 1340.29 300.375 1340.29H293.445V1300.42H330.525V1309.87H305.235V1330.75C319.995 1330.66 328.185 1330.12 337.185 1328.23ZM313.965 1347.49V1365.85H358.515V1375.3H302.085V1347.49H313.965ZM355.545 1316.44H366.525V1326.16H355.545V1353.79H343.665V1293.85H355.545V1316.44ZM416.108 1315.72V1295.65H427.178V1373.14H416.108V1345.96H404.588V1336.42H416.108V1325.17H406.118C402.428 1338.85 394.148 1350.37 378.668 1359.55L371.918 1351.27C388.298 1341.28 395.498 1329.31 397.028 1313.11H376.598V1303.66H408.818C408.818 1307.89 408.548 1311.85 408.098 1315.72H416.108ZM433.118 1293.76H444.368V1376.74H433.118V1293.76ZM480.411 1298.8H492.201V1309.69H509.031V1298.8H520.731V1339.03H480.411V1298.8ZM492.201 1318.78V1329.67H509.031V1318.78H492.201ZM488.601 1347.13H545.121V1376.83H533.151V1356.58H488.601V1347.13ZM533.151 1293.85H545.121V1343.35H533.151V1293.85ZM573.194 1312.66V1348.57C581.834 1348.39 588.494 1347.85 595.784 1346.41L596.774 1356.13C587.504 1357.93 579.314 1358.29 567.164 1358.29H561.494V1303.21H593.084V1312.66H573.194ZM601.814 1324.09V1295.38H612.884V1373.05H601.814V1333.72H587.414V1324.09H601.814ZM619.004 1293.76H630.254V1376.65H619.004V1293.76ZM698.647 1293.76H710.527V1376.92H698.647V1293.76ZM665.977 1299.61C678.487 1299.61 687.757 1310.95 687.757 1329.13C687.757 1347.4 678.487 1358.83 665.977 1358.83C653.467 1358.83 644.197 1347.4 644.197 1329.13C644.197 1310.95 653.467 1299.61 665.977 1299.61ZM665.977 1310.32C659.857 1310.32 655.627 1316.89 655.627 1329.13C655.627 1341.46 659.857 1348.03 665.977 1348.03C672.097 1348.03 676.327 1341.46 676.327 1329.13C676.327 1316.89 672.097 1310.32 665.977 1310.32ZM740.22 1333.09V1348.57C751.38 1348.48 760.47 1348.03 770.64 1346.41L771.72 1355.95C759.75 1357.84 749.13 1358.11 735.18 1358.11H728.43V1300.78H766.77V1310.32H740.22V1323.82H763.98V1333.09H740.22ZM782.34 1293.76H794.22V1376.92H782.34V1332.55H768.12V1323.01H782.34V1293.76ZM351.179 1432.4H390.959C390.959 1457.78 382.409 1478.48 352.979 1492.7L346.769 1483.34C367.919 1473.17 377.099 1460.21 378.809 1441.85H351.179V1432.4ZM403.649 1423.76H415.619V1506.65H403.649V1423.76ZM450.352 1481.9V1495.85H495.982V1505.3H438.472V1481.9H450.352ZM450.712 1444.1V1451.3H483.022V1444.1H450.712ZM472.672 1467.59H504.352V1477.04H429.382V1467.59H460.792V1460.66H438.922V1426.82H450.712V1434.92H483.022V1426.82H494.812V1460.66H472.672V1467.59ZM576.485 1470.56L564.875 1469.57C566.765 1457.78 567.035 1448.87 567.035 1441.49H536.075V1432.04H578.735V1438.79C578.735 1446.8 578.735 1456.88 576.485 1470.56ZM558.395 1455.8V1479.92C566.405 1479.65 574.505 1479.11 582.065 1478.21L582.695 1486.76C565.865 1489.64 547.325 1490 532.925 1490.09L531.845 1480.37C536.435 1480.37 541.475 1480.37 546.695 1480.28V1455.8H558.395ZM608.885 1457.15V1467.05H597.725V1506.65H585.845V1423.76H597.725V1457.15H608.885ZM660.358 1443.83H672.778V1423.85H684.658V1473.17H672.778V1453.46H660.358V1443.83ZM665.308 1461.65L659.548 1470.92C650.548 1467.95 644.338 1462.1 640.738 1454.81C637.138 1463.18 630.568 1469.93 620.938 1473.17L614.908 1463.81C628.048 1459.22 634.078 1448.69 634.438 1438.34H618.148V1428.8H662.698V1438.34H646.588C646.948 1447.79 652.708 1457.51 665.308 1461.65ZM656.668 1497.83C667.468 1497.83 673.138 1495.58 673.138 1490.9C673.138 1486.22 667.468 1483.97 656.668 1483.97C645.778 1483.97 640.108 1486.22 640.108 1490.9C640.108 1495.58 645.778 1497.83 656.668 1497.83ZM656.668 1474.97C674.218 1474.97 685.018 1480.82 685.018 1490.9C685.018 1500.98 674.218 1506.83 656.668 1506.83C639.028 1506.83 628.228 1500.98 628.228 1490.9C628.228 1480.82 639.028 1474.97 656.668 1474.97Z" fill="black"/>
<path d="M1198.3 1369V1361.35C1216.39 1345.15 1227.1 1332.64 1227.1 1322.38C1227.1 1315.63 1223.5 1311.58 1217.11 1311.58C1212.25 1311.58 1208.29 1314.73 1204.87 1318.42L1197.67 1311.22C1203.79 1304.65 1209.73 1301.14 1218.82 1301.14C1231.42 1301.14 1239.79 1309.24 1239.79 1321.66C1239.79 1333.72 1229.8 1346.68 1217.65 1358.56C1220.98 1358.2 1225.39 1357.84 1228.54 1357.84H1242.94V1369H1198.3ZM1298.18 1328.23L1299.35 1337.59C1289.18 1339.84 1279.73 1340.29 1261.37 1340.29H1254.44V1300.42H1291.52V1309.87H1266.23V1330.75C1280.99 1330.66 1289.18 1330.12 1298.18 1328.23ZM1274.96 1347.49V1365.85H1319.51V1375.3H1263.08V1347.49H1274.96ZM1316.54 1316.44H1327.52V1326.16H1316.54V1353.79H1304.66V1293.85H1316.54V1316.44ZM1377.11 1315.72V1295.65H1388.18V1373.14H1377.11V1345.96H1365.59V1336.42H1377.11V1325.17H1367.12C1363.43 1338.85 1355.15 1350.37 1339.67 1359.55L1332.92 1351.27C1349.3 1341.28 1356.5 1329.31 1358.03 1313.11H1337.6V1303.66H1369.82C1369.82 1307.89 1369.55 1311.85 1369.1 1315.72H1377.11ZM1394.12 1293.76H1405.37V1376.74H1394.12V1293.76ZM1441.41 1298.8H1453.2V1309.69H1470.03V1298.8H1481.73V1339.03H1441.41V1298.8ZM1453.2 1318.78V1329.67H1470.03V1318.78H1453.2ZM1449.6 1347.13H1506.12V1376.83H1494.15V1356.58H1449.6V1347.13ZM1494.15 1293.85H1506.12V1343.35H1494.15V1293.85ZM1534.19 1312.66V1348.57C1542.83 1348.39 1549.49 1347.85 1556.78 1346.41L1557.77 1356.13C1548.5 1357.93 1540.31 1358.29 1528.16 1358.29H1522.49V1303.21H1554.08V1312.66H1534.19ZM1562.81 1324.09V1295.38H1573.88V1373.05H1562.81V1333.72H1548.41V1324.09H1562.81ZM1580 1293.76H1591.25V1376.65H1580V1293.76ZM1659.65 1293.76H1671.53V1376.92H1659.65V1293.76ZM1626.98 1299.61C1639.49 1299.61 1648.76 1310.95 1648.76 1329.13C1648.76 1347.4 1639.49 1358.83 1626.98 1358.83C1614.47 1358.83 1605.2 1347.4 1605.2 1329.13C1605.2 1310.95 1614.47 1299.61 1626.98 1299.61ZM1626.98 1310.32C1620.86 1310.32 1616.63 1316.89 1616.63 1329.13C1616.63 1341.46 1620.86 1348.03 1626.98 1348.03C1633.1 1348.03 1637.33 1341.46 1637.33 1329.13C1637.33 1316.89 1633.1 1310.32 1626.98 1310.32ZM1701.22 1333.09V1348.57C1712.38 1348.48 1721.47 1348.03 1731.64 1346.41L1732.72 1355.95C1720.75 1357.84 1710.13 1358.11 1696.18 1358.11H1689.43V1300.78H1727.77V1310.32H1701.22V1323.82H1724.98V1333.09H1701.22ZM1743.34 1293.76H1755.22V1376.92H1743.34V1332.55H1729.12V1323.01H1743.34V1293.76ZM1358.35 1458.5L1352.68 1467.77C1343.32 1464.98 1336.93 1459.31 1333.24 1452.02C1329.46 1459.94 1322.71 1466.24 1312.99 1469.3L1307.23 1459.94C1321.09 1455.62 1327.03 1445.09 1327.03 1434.92V1426.91H1339.09V1434.92C1339.09 1444.91 1344.94 1454.63 1358.35 1458.5ZM1332.97 1483.79V1496.48H1364.83V1483.79H1332.97ZM1321.27 1505.75V1474.52H1376.44V1505.75H1321.27ZM1364.47 1423.85H1376.44V1470.65H1364.47V1423.85ZM1439.79 1432.94V1442.3H1391.01V1432.94H1409.55V1424.21H1421.43V1432.94H1439.79ZM1406.49 1461.11C1406.49 1465.52 1410.09 1467.86 1415.49 1467.86C1420.89 1467.86 1424.49 1465.52 1424.49 1461.11C1424.49 1456.88 1420.89 1454.54 1415.49 1454.54C1410.09 1454.54 1406.49 1456.88 1406.49 1461.11ZM1421.43 1476.14V1482.71C1427.82 1482.35 1434.21 1481.9 1440.15 1481L1441.05 1489.55C1423.59 1492.97 1404.96 1492.97 1390.92 1492.97L1389.48 1483.34C1395.42 1483.34 1402.26 1483.34 1409.55 1483.16V1476.14C1400.91 1474.34 1395.24 1468.76 1395.24 1461.11C1395.24 1451.84 1403.61 1445.54 1415.49 1445.54C1427.37 1445.54 1435.74 1451.84 1435.74 1461.11C1435.74 1468.76 1430.07 1474.34 1421.43 1476.14ZM1466.61 1457.6V1467.41H1456.26V1506.74H1444.38V1423.85H1456.26V1457.6H1466.61ZM1537.49 1470.56L1525.88 1469.57C1527.77 1457.78 1528.04 1448.87 1528.04 1441.49H1497.08V1432.04H1539.74V1438.79C1539.74 1446.8 1539.74 1456.88 1537.49 1470.56ZM1519.4 1455.8V1479.92C1527.41 1479.65 1535.51 1479.11 1543.07 1478.21L1543.7 1486.76C1526.87 1489.64 1508.33 1490 1493.93 1490.09L1492.85 1480.37C1497.44 1480.37 1502.48 1480.37 1507.7 1480.28V1455.8H1519.4ZM1569.89 1457.15V1467.05H1558.73V1506.65H1546.85V1423.76H1558.73V1457.15H1569.89ZM1621.36 1443.83H1633.78V1423.85H1645.66V1473.17H1633.78V1453.46H1621.36V1443.83ZM1626.31 1461.65L1620.55 1470.92C1611.55 1467.95 1605.34 1462.1 1601.74 1454.81C1598.14 1463.18 1591.57 1469.93 1581.94 1473.17L1575.91 1463.81C1589.05 1459.22 1595.08 1448.69 1595.44 1438.34H1579.15V1428.8H1623.7V1438.34H1607.59C1607.95 1447.79 1613.71 1457.51 1626.31 1461.65ZM1617.67 1497.83C1628.47 1497.83 1634.14 1495.58 1634.14 1490.9C1634.14 1486.22 1628.47 1483.97 1617.67 1483.97C1606.78 1483.97 1601.11 1486.22 1601.11 1490.9C1601.11 1495.58 1606.78 1497.83 1617.67 1497.83ZM1617.67 1474.97C1635.22 1474.97 1646.02 1480.82 1646.02 1490.9C1646.02 1500.98 1635.22 1506.83 1617.67 1506.83C1600.03 1506.83 1589.23 1500.98 1589.23 1490.9C1589.23 1480.82 1600.03 1474.97 1617.67 1474.97Z" fill="black"/>
<path d="M2268.87 1332.55H2343.75V1341.91H2268.87V1332.55ZM2306.13 1346.41C2324.04 1346.41 2334.93 1351.9 2334.93 1361.62C2334.93 1371.34 2324.04 1376.83 2306.13 1376.83C2288.22 1376.83 2277.42 1371.34 2277.42 1361.62C2277.42 1351.9 2288.22 1346.41 2306.13 1346.41ZM2306.13 1355.41C2295.06 1355.41 2289.39 1357.39 2289.39 1361.62C2289.39 1365.94 2295.06 1367.83 2306.13 1367.83C2317.2 1367.83 2322.87 1365.94 2322.87 1361.62C2322.87 1357.39 2317.2 1355.41 2306.13 1355.41ZM2306.31 1295.65C2324.58 1295.65 2336.37 1301.86 2336.37 1311.85C2336.37 1322.02 2324.58 1328.14 2306.31 1328.14C2288.13 1328.14 2276.34 1322.02 2276.34 1311.85C2276.34 1301.86 2288.13 1295.65 2306.31 1295.65ZM2306.31 1304.74C2295.06 1304.74 2288.58 1307.17 2288.58 1311.85C2288.58 1316.71 2295.06 1319.05 2306.31 1319.05C2317.65 1319.05 2324.13 1316.71 2324.13 1311.85C2324.13 1307.17 2317.65 1304.74 2306.31 1304.74ZM2388.92 1367.83C2399.99 1367.83 2405.66 1365.94 2405.66 1361.71C2405.66 1357.48 2399.99 1355.68 2388.92 1355.68C2377.85 1355.68 2372.18 1357.48 2372.18 1361.71C2372.18 1365.94 2377.85 1367.83 2388.92 1367.83ZM2388.92 1346.68C2406.83 1346.68 2417.72 1352.08 2417.72 1361.71C2417.72 1371.34 2406.83 1376.83 2388.92 1376.83C2371.01 1376.83 2360.21 1371.34 2360.21 1361.71C2360.21 1352.08 2371.01 1346.68 2388.92 1346.68ZM2380.37 1326.25V1333.18H2397.65V1326.34C2395.04 1326.61 2392.16 1326.79 2389.1 1326.79C2385.95 1326.79 2383.07 1326.61 2380.37 1326.25ZM2389.1 1304.11C2377.85 1304.11 2371.37 1306.36 2371.37 1311.04C2371.37 1315.54 2377.85 1317.88 2389.1 1317.88C2400.44 1317.88 2406.92 1315.54 2406.92 1311.04C2406.92 1306.36 2400.44 1304.11 2389.1 1304.11ZM2409.53 1333.18H2426.54V1342.54H2351.66V1333.18H2368.49V1323.19C2362.55 1320.49 2359.13 1316.35 2359.13 1311.04C2359.13 1301.14 2370.83 1295.11 2389.1 1295.11C2407.46 1295.11 2419.16 1301.14 2419.16 1311.04C2419.16 1316.44 2415.65 1320.58 2409.53 1323.28V1333.18ZM2488.1 1321.3V1313.83H2455.79V1321.3H2488.1ZM2499.89 1296.46V1330.57H2444V1296.46H2455.79V1304.92H2488.1V1296.46H2499.89ZM2454.98 1352.53V1365.85H2501.24V1375.3H2443.1V1352.53H2454.98ZM2434.37 1336.33H2509.52V1345.69H2478.92V1358.74H2467.04V1345.69H2434.37V1336.33ZM2539.48 1348.03C2545.6 1348.03 2549.83 1341.46 2549.83 1329.13C2549.83 1316.98 2545.6 1310.32 2539.48 1310.32C2533.27 1310.32 2529.13 1316.98 2529.13 1329.13C2529.13 1341.46 2533.27 1348.03 2539.48 1348.03ZM2539.48 1299.61C2551.99 1299.61 2561.26 1310.95 2561.26 1329.13C2561.26 1347.4 2551.99 1358.83 2539.48 1358.83C2526.88 1358.83 2517.7 1347.4 2517.7 1329.13C2517.7 1310.95 2526.88 1299.61 2539.48 1299.61ZM2593.57 1322.92H2582.14V1337.41H2593.57V1347.13H2582.14V1376.74H2570.26V1293.85H2582.14V1313.2H2593.57V1322.92ZM2281.74 1486.04V1476.68H2338.17V1506.83H2326.29V1486.04H2281.74ZM2313.15 1453.01H2326.29V1444.46H2313.15C2313.42 1445.81 2313.6 1447.16 2313.6 1448.69C2313.6 1450.13 2313.42 1451.57 2313.15 1453.01ZM2291.73 1459.13C2297.85 1459.13 2302.35 1455.26 2302.35 1448.69C2302.35 1442.21 2297.85 1438.34 2291.73 1438.34C2285.7 1438.34 2281.2 1442.21 2281.2 1448.69C2281.2 1455.26 2285.7 1459.13 2291.73 1459.13ZM2326.29 1423.85H2338.17V1472.9H2326.29V1462.46H2308.29C2304.33 1466.69 2298.39 1469.3 2291.73 1469.3C2279.49 1469.3 2269.95 1460.66 2269.95 1448.69C2269.95 1436.81 2279.49 1428.17 2291.73 1428.17C2298.48 1428.17 2304.42 1430.78 2308.38 1435.01H2326.29V1423.85ZM2354.63 1444.82H2380.64V1438.25H2354.54V1428.71H2392.34V1453.64H2366.42V1460.84C2379.92 1460.75 2389.01 1460.21 2399.36 1458.32L2400.35 1467.86C2388.83 1470.02 2378.3 1470.38 2361.74 1470.38H2354.63V1444.82ZM2389.64 1497.74C2400.44 1497.74 2406.02 1495.67 2406.02 1491.08C2406.02 1486.49 2400.44 1484.42 2389.64 1484.42C2378.84 1484.42 2373.26 1486.49 2373.26 1491.08C2373.26 1495.67 2378.84 1497.74 2389.64 1497.74ZM2389.64 1475.33C2406.92 1475.33 2417.72 1481.09 2417.72 1491.08C2417.72 1500.98 2406.92 1506.83 2389.64 1506.83C2372.36 1506.83 2361.56 1500.98 2361.56 1491.08C2361.56 1481.09 2372.36 1475.33 2389.64 1475.33ZM2427.89 1444.64H2416.91V1452.47H2427.89V1462.1H2416.91V1473.8H2405.03V1423.85H2416.91V1435.01H2427.89V1444.64ZM2503 1429.97V1438.43H2455.93V1429.97H2473.57V1423.13H2485.45V1429.97H2503ZM2470.51 1452.74C2470.51 1455.8 2473.93 1457.42 2479.51 1457.42C2485.09 1457.42 2488.42 1455.8 2488.42 1452.74C2488.42 1449.68 2485.09 1448.15 2479.51 1448.15C2473.93 1448.15 2470.51 1449.68 2470.51 1452.74ZM2505.07 1467.41L2505.97 1475.42C2488.6 1478.48 2469.7 1478.66 2455.12 1478.66L2453.86 1469.57C2459.8 1469.57 2466.55 1469.57 2473.57 1469.39V1464.71C2464.75 1463.36 2459.26 1459.04 2459.26 1452.74C2459.26 1445.18 2467.27 1440.5 2479.51 1440.5C2491.75 1440.5 2499.67 1445.18 2499.67 1452.74C2499.67 1459.04 2494.27 1463.36 2485.45 1464.71V1468.94C2492.2 1468.67 2498.77 1468.13 2505.07 1467.41ZM2464.39 1492.79V1483.61H2520.55V1506.83H2508.67V1492.79H2464.39ZM2530.99 1447.61V1457.33H2520.55V1480.37H2508.67V1423.85H2520.55V1447.61H2530.99ZM2557.35 1451.21V1462.82H2592.81V1451.21H2557.35ZM2581.02 1487.48H2612.7V1497.11H2537.64V1487.48H2569.14V1472.27H2545.56V1428.98H2557.35V1441.85H2592.81V1428.98H2604.51V1472.27H2581.02V1487.48Z" fill="black"/>
<path d="M3143.09 1370.26C3132.56 1370.26 3125.45 1366.3 3120.77 1360.99L3126.98 1352.62C3130.94 1356.49 3135.8 1359.46 3141.83 1359.46C3148.58 1359.46 3153.17 1356.13 3153.17 1350.1C3153.17 1343.62 3149.3 1339.48 3134.81 1339.48V1330.03C3147.05 1330.03 3151.01 1325.8 3151.01 1319.86C3151.01 1314.64 3147.77 1311.58 3142.1 1311.58C3137.33 1311.58 3133.46 1313.74 3129.5 1317.43L3122.75 1309.33C3128.51 1304.29 3134.9 1301.14 3142.73 1301.14C3155.6 1301.14 3164.33 1307.53 3164.33 1318.87C3164.33 1326.07 3160.28 1331.29 3153.26 1334.08V1334.53C3160.73 1336.6 3166.49 1342.18 3166.49 1350.91C3166.49 1363.15 3155.78 1370.26 3143.09 1370.26ZM3222.18 1328.23L3223.35 1337.59C3213.18 1339.84 3203.73 1340.29 3185.37 1340.29H3178.44V1300.42H3215.52V1309.87H3190.23V1330.75C3204.99 1330.66 3213.18 1330.12 3222.18 1328.23ZM3198.96 1347.49V1365.85H3243.51V1375.3H3187.08V1347.49H3198.96ZM3240.54 1316.44H3251.52V1326.16H3240.54V1353.79H3228.66V1293.85H3240.54V1316.44ZM3301.11 1315.72V1295.65H3312.18V1373.14H3301.11V1345.96H3289.59V1336.42H3301.11V1325.17H3291.12C3287.43 1338.85 3279.15 1350.37 3263.67 1359.55L3256.92 1351.27C3273.3 1341.28 3280.5 1329.31 3282.03 1313.11H3261.6V1303.66H3293.82C3293.82 1307.89 3293.55 1311.85 3293.1 1315.72H3301.11ZM3318.12 1293.76H3329.37V1376.74H3318.12V1293.76ZM3365.41 1298.8H3377.2V1309.69H3394.03V1298.8H3405.73V1339.03H3365.41V1298.8ZM3377.2 1318.78V1329.67H3394.03V1318.78H3377.2ZM3373.6 1347.13H3430.12V1376.83H3418.15V1356.58H3373.6V1347.13ZM3418.15 1293.85H3430.12V1343.35H3418.15V1293.85ZM3458.19 1312.66V1348.57C3466.83 1348.39 3473.49 1347.85 3480.78 1346.41L3481.77 1356.13C3472.5 1357.93 3464.31 1358.29 3452.16 1358.29H3446.49V1303.21H3478.08V1312.66H3458.19ZM3486.81 1324.09V1295.38H3497.88V1373.05H3486.81V1333.72H3472.41V1324.09H3486.81ZM3504 1293.76H3515.25V1376.65H3504V1293.76ZM3583.65 1293.76H3595.53V1376.92H3583.65V1293.76ZM3550.98 1299.61C3563.49 1299.61 3572.76 1310.95 3572.76 1329.13C3572.76 1347.4 3563.49 1358.83 3550.98 1358.83C3538.47 1358.83 3529.2 1347.4 3529.2 1329.13C3529.2 1310.95 3538.47 1299.61 3550.98 1299.61ZM3550.98 1310.32C3544.86 1310.32 3540.63 1316.89 3540.63 1329.13C3540.63 1341.46 3544.86 1348.03 3550.98 1348.03C3557.1 1348.03 3561.33 1341.46 3561.33 1329.13C3561.33 1316.89 3557.1 1310.32 3550.98 1310.32ZM3625.22 1333.09V1348.57C3636.38 1348.48 3645.47 1348.03 3655.64 1346.41L3656.72 1355.95C3644.75 1357.84 3634.13 1358.11 3620.18 1358.11H3613.43V1300.78H3651.77V1310.32H3625.22V1323.82H3648.98V1333.09H3625.22ZM3667.34 1293.76H3679.22V1376.92H3667.34V1332.55H3653.12V1323.01H3667.34V1293.76ZM3231.59 1462.55H3306.47V1471.91H3231.59V1462.55ZM3268.85 1476.41C3286.76 1476.41 3297.65 1481.9 3297.65 1491.62C3297.65 1501.34 3286.76 1506.83 3268.85 1506.83C3250.94 1506.83 3240.14 1501.34 3240.14 1491.62C3240.14 1481.9 3250.94 1476.41 3268.85 1476.41ZM3268.85 1485.41C3257.78 1485.41 3252.11 1487.39 3252.11 1491.62C3252.11 1495.94 3257.78 1497.83 3268.85 1497.83C3279.92 1497.83 3285.59 1495.94 3285.59 1491.62C3285.59 1487.39 3279.92 1485.41 3268.85 1485.41ZM3269.03 1425.65C3287.3 1425.65 3299.09 1431.86 3299.09 1441.85C3299.09 1452.02 3287.3 1458.14 3269.03 1458.14C3250.85 1458.14 3239.06 1452.02 3239.06 1441.85C3239.06 1431.86 3250.85 1425.65 3269.03 1425.65ZM3269.03 1434.74C3257.78 1434.74 3251.3 1437.17 3251.3 1441.85C3251.3 1446.71 3257.78 1449.05 3269.03 1449.05C3280.37 1449.05 3286.85 1446.71 3286.85 1441.85C3286.85 1437.17 3280.37 1434.74 3269.03 1434.74ZM3351.64 1497.83C3362.71 1497.83 3368.38 1495.94 3368.38 1491.71C3368.38 1487.48 3362.71 1485.68 3351.64 1485.68C3340.57 1485.68 3334.9 1487.48 3334.9 1491.71C3334.9 1495.94 3340.57 1497.83 3351.64 1497.83ZM3351.64 1476.68C3369.55 1476.68 3380.44 1482.08 3380.44 1491.71C3380.44 1501.34 3369.55 1506.83 3351.64 1506.83C3333.73 1506.83 3322.93 1501.34 3322.93 1491.71C3322.93 1482.08 3333.73 1476.68 3351.64 1476.68ZM3343.09 1456.25V1463.18H3360.37V1456.34C3357.76 1456.61 3354.88 1456.79 3351.82 1456.79C3348.67 1456.79 3345.79 1456.61 3343.09 1456.25ZM3351.82 1434.11C3340.57 1434.11 3334.09 1436.36 3334.09 1441.04C3334.09 1445.54 3340.57 1447.88 3351.82 1447.88C3363.16 1447.88 3369.64 1445.54 3369.64 1441.04C3369.64 1436.36 3363.16 1434.11 3351.82 1434.11ZM3372.25 1463.18H3389.26V1472.54H3314.38V1463.18H3331.21V1453.19C3325.27 1450.49 3321.85 1446.35 3321.85 1441.04C3321.85 1431.14 3333.55 1425.11 3351.82 1425.11C3370.18 1425.11 3381.88 1431.14 3381.88 1441.04C3381.88 1446.44 3378.37 1450.58 3372.25 1453.28V1463.18ZM3461.49 1470.56L3449.88 1469.57C3451.77 1457.78 3452.04 1448.87 3452.04 1441.49H3421.08V1432.04H3463.74V1438.79C3463.74 1446.8 3463.74 1456.88 3461.49 1470.56ZM3443.4 1455.8V1479.92C3451.41 1479.65 3459.51 1479.11 3467.07 1478.21L3467.7 1486.76C3450.87 1489.64 3432.33 1490 3417.93 1490.09L3416.85 1480.37C3421.44 1480.37 3426.48 1480.37 3431.7 1480.28V1455.8H3443.4ZM3493.89 1457.15V1467.05H3482.73V1506.65H3470.85V1423.76H3482.73V1457.15H3493.89ZM3545.36 1443.83H3557.78V1423.85H3569.66V1473.17H3557.78V1453.46H3545.36V1443.83ZM3550.31 1461.65L3544.55 1470.92C3535.55 1467.95 3529.34 1462.1 3525.74 1454.81C3522.14 1463.18 3515.57 1469.93 3505.94 1473.17L3499.91 1463.81C3513.05 1459.22 3519.08 1448.69 3519.44 1438.34H3503.15V1428.8H3547.7V1438.34H3531.59C3531.95 1447.79 3537.71 1457.51 3550.31 1461.65ZM3541.67 1497.83C3552.47 1497.83 3558.14 1495.58 3558.14 1490.9C3558.14 1486.22 3552.47 1483.97 3541.67 1483.97C3530.78 1483.97 3525.11 1486.22 3525.11 1490.9C3525.11 1495.58 3530.78 1497.83 3541.67 1497.83ZM3541.67 1474.97C3559.22 1474.97 3570.02 1480.82 3570.02 1490.9C3570.02 1500.98 3559.22 1506.83 3541.67 1506.83C3524.03 1506.83 3513.23 1500.98 3513.23 1490.9C3513.23 1480.82 3524.03 1474.97 3541.67 1474.97Z" fill="black"/>
<path fill-rule="evenodd" clip-rule="evenodd" d="M531.244 1943.67C563.306 1937.59 587.549 1909.43 587.549 1875.61C587.549 1837.35 556.523 1806.33 518.251 1806.33C479.979 1806.33 448.953 1837.35 448.953 1875.61C448.953 1909.43 473.196 1937.59 505.257 1943.67V2222H531.244V1943.67Z" fill="#31AC5B"/>
<path fill-rule="evenodd" clip-rule="evenodd" d="M2454.24 1943.67C2486.31 1937.59 2510.55 1909.43 2510.55 1875.61C2510.55 1837.35 2479.52 1806.33 2441.25 1806.33C2402.98 1806.33 2371.95 1837.35 2371.95 1875.61C2371.95 1909.43 2396.2 1937.59 2428.26 1943.67V2222H2454.24V1943.67Z" fill="#31AC5B"/>
<path fill-rule="evenodd" clip-rule="evenodd" d="M3389.76 846.323C3357.7 852.403 3333.45 880.563 3333.45 914.385C3333.45 952.646 3364.48 983.662 3402.75 983.662C3441.02 983.662 3472.05 952.646 3472.05 914.385C3472.05 880.564 3447.81 852.403 3415.74 846.323L3415.74 567.997L3389.76 567.997L3389.76 846.323Z" fill="#31AC5B"/>
<path fill-rule="evenodd" clip-rule="evenodd" d="M1466.76 846.323C1434.69 852.403 1410.45 880.563 1410.45 914.385C1410.45 952.646 1441.48 983.662 1479.75 983.662C1518.02 983.662 1549.05 952.646 1549.05 914.385C1549.05 880.564 1524.8 852.403 1492.74 846.323L1492.74 567.997L1466.76 567.997L1466.76 846.323Z" fill="#31AC5B"/>
<path d="M246.798 2378.04L241.438 2386.12C233.278 2383.56 227.678 2378.28 224.318 2371.72C221.038 2378.92 215.118 2384.68 206.558 2387.48L201.198 2379.24C213.198 2375.4 218.638 2366.04 218.798 2356.92H203.998V2348.6H244.078V2356.92H229.518C229.678 2365.56 235.118 2374.2 246.798 2378.04ZM211.918 2400.28V2391.88H262.078V2417.96H251.438V2400.28H211.918ZM251.438 2344.2H262.078V2388.6H251.438V2344.2ZM322.871 2369.24V2356.12H292.551V2369.24H322.871ZM333.191 2347.8V2377.56H282.151V2347.8H333.191ZM341.191 2385.4V2393.8H312.871V2417.88H302.311V2393.8H274.471V2385.4H341.191ZM410.59 2377.8L405.47 2386.04C397.39 2383.4 391.87 2378.12 388.75 2371.56C385.47 2378.76 379.71 2384.68 371.15 2387.48L365.79 2379.16C377.63 2375.16 382.99 2365.8 383.15 2356.68H368.67V2348.28H408.27V2356.68H393.95C394.11 2365.08 399.23 2373.96 410.59 2377.8ZM377.55 2399.72V2391.32H427.79V2417.96H417.23V2399.72H377.55ZM417.23 2344.28H427.79V2388.04H417.23V2370.28H406.35V2361.8H417.23V2344.28ZM439.784 2378.6H506.344V2386.92H439.784V2378.6ZM472.904 2390.92C488.824 2390.92 498.504 2395.8 498.504 2404.44C498.504 2413.08 488.824 2417.96 472.904 2417.96C456.984 2417.96 447.384 2413.08 447.384 2404.44C447.384 2395.8 456.984 2390.92 472.904 2390.92ZM472.904 2398.92C463.064 2398.92 458.024 2400.68 458.024 2404.44C458.024 2408.28 463.064 2409.96 472.904 2409.96C482.744 2409.96 487.784 2408.28 487.784 2404.44C487.784 2400.68 482.744 2398.92 472.904 2398.92ZM473.064 2345.8C489.304 2345.8 499.784 2351.32 499.784 2360.2C499.784 2369.24 489.304 2374.68 473.064 2374.68C456.904 2374.68 446.424 2369.24 446.424 2360.2C446.424 2351.32 456.904 2345.8 473.064 2345.8ZM473.064 2353.88C463.064 2353.88 457.304 2356.04 457.304 2360.2C457.304 2364.52 463.064 2366.6 473.064 2366.6C483.144 2366.6 488.904 2364.52 488.904 2360.2C488.904 2356.04 483.144 2353.88 473.064 2353.88ZM535.583 2351.8H570.943C570.943 2374.36 563.343 2392.76 537.183 2405.4L531.663 2397.08C550.463 2388.04 558.623 2376.52 560.143 2360.2H535.583V2351.8ZM582.223 2344.12H592.863V2417.8H582.223V2344.12ZM632.136 2378.6V2368.12H617.656V2378.6H632.136ZM642.536 2349.48V2386.92H607.256V2349.48H617.656V2359.96H632.136V2349.48H642.536ZM626.136 2393.08V2408.2H665.736V2416.6H615.576V2393.08H626.136ZM663.096 2365H672.856V2373.64H663.096V2398.44H652.536V2344.2H663.096V2365ZM709.455 2359.48V2391.64H723.855V2359.48H709.455ZM699.055 2399.96V2351.16H734.255V2399.96H699.055ZM765.215 2371.96V2380.68H754.495V2417.88H743.935V2344.28H754.495V2371.96H765.215ZM821.449 2398.76V2380.44H809.689V2371.96H821.449V2363.72H809.689V2355.32H821.449V2344.2H832.009V2398.76H821.449ZM808.009 2379.32L809.129 2387.8C799.929 2389.4 791.689 2389.72 778.889 2389.72H773.209V2365.08H794.969V2357.64H773.129V2349.24H805.369V2373H783.689V2381.24C793.449 2381.16 800.329 2380.68 808.009 2379.32ZM793.369 2408.12H833.849V2416.52H782.809V2394.44H793.369V2408.12Z" fill="#222222"/>
<path d="M241.987 2525.76C237.667 2525.76 234.007 2522.22 234.007 2517.3C234.007 2512.26 237.667 2508.72 241.987 2508.72C246.307 2508.72 249.967 2512.26 249.967 2517.3C249.967 2522.22 246.307 2525.76 241.987 2525.76ZM293.12 2491.14H318.8C318.8 2507.28 312.32 2520.96 293.72 2529.96L290.42 2525.04C304.64 2518.2 311.36 2508.66 312.44 2496.18H293.12V2491.14ZM328.58 2485.44H334.76V2539.62H328.58V2485.44ZM357.615 2523.42V2533.56H388.755V2538.6H351.375V2523.42H357.615ZM357.675 2498.46V2504.46H381.795V2498.46H357.675ZM372.795 2514.6H394.275V2519.58H345.135V2514.6H366.555V2509.38H351.555V2487.54H357.675V2493.66H381.795V2487.54H387.915V2509.38H372.795V2514.6ZM416.687 2535V2490.78H423.647V2535H416.687ZM444.203 2535V2496.66H431.243V2490.78H464.183V2496.66H451.163V2535H444.203ZM477.404 2525.16V2520.18H513.944V2539.68H507.764V2525.16H477.404ZM497.504 2505.06H507.764V2498.1H497.564C497.804 2499.18 497.984 2500.32 497.984 2501.58C497.984 2502.78 497.804 2503.98 497.504 2505.06ZM483.884 2509.5C488.564 2509.5 492.104 2506.32 492.104 2501.58C492.104 2496.84 488.564 2493.6 483.884 2493.6C479.204 2493.6 475.664 2496.84 475.664 2501.58C475.664 2506.32 479.204 2509.5 483.884 2509.5ZM507.764 2485.44L513.944 2485.38V2517.48H507.764V2510.1H494.924C492.404 2513.04 488.444 2514.84 483.884 2514.78C475.844 2514.78 469.784 2509.26 469.784 2501.58C469.784 2493.84 475.844 2488.38 483.884 2488.38C488.444 2488.38 492.404 2490.18 494.924 2493.06H507.764V2485.44ZM555.759 2508.6L556.419 2513.64C548.259 2515.08 541.179 2515.38 530.799 2515.38H526.419V2499.48H544.779V2493.66H526.299V2488.68H550.899V2504.16H532.479V2510.34C541.779 2510.28 548.319 2509.98 555.759 2508.6ZM549.039 2534.88C556.659 2534.88 561.039 2533.02 561.039 2529.54C561.039 2526.12 556.659 2524.26 549.039 2524.26C541.359 2524.26 537.039 2526.12 537.039 2529.54C537.039 2533.02 541.359 2534.88 549.039 2534.88ZM549.039 2519.46C560.259 2519.46 567.099 2523.18 567.099 2529.54C567.099 2535.9 560.259 2539.62 549.039 2539.62C537.819 2539.62 530.979 2535.9 530.979 2529.54C530.979 2523.18 537.819 2519.46 549.039 2519.46ZM574.179 2498.46H566.559V2504.76H574.179V2509.86H566.559V2518.2H560.379V2485.38H566.559V2493.36H574.179V2498.46ZM617.135 2496.18V2495.52H584.315V2490.48H623.315V2496.18C623.315 2502.96 623.315 2510.22 621.395 2520.72L615.215 2520C617.135 2510.1 617.135 2502.78 617.135 2496.18ZM610.235 2527.44H628.415V2532.54H579.455V2527.44H590.735V2509.92H596.855V2527.44H604.115V2509.92H610.235V2527.44ZM659.13 2491.44C651.03 2491.44 646.17 2493.48 646.17 2497.14C646.17 2500.74 651.03 2502.78 659.13 2502.78C667.17 2502.78 672.03 2500.74 672.03 2497.14C672.03 2493.48 667.17 2491.44 659.13 2491.44ZM659.13 2507.64C647.31 2507.64 639.81 2503.68 639.81 2497.14C639.81 2490.6 647.31 2486.64 659.13 2486.64C670.89 2486.64 678.45 2490.6 678.45 2497.14C678.45 2503.68 670.89 2507.64 659.13 2507.64ZM665.07 2522.1V2516.16H653.07V2522.1H665.07ZM683.61 2516.16H671.25V2522.1H677.61V2539.62H671.43V2527.02H640.05V2522.1H646.89V2516.16H634.53V2511.18H683.61V2516.16ZM241.987 2618.76C237.667 2618.76 234.007 2615.22 234.007 2610.3C234.007 2605.26 237.667 2601.72 241.987 2601.72C246.307 2601.72 249.967 2605.26 249.967 2610.3C249.967 2615.22 246.307 2618.76 241.987 2618.76ZM292.82 2581.62H298.94V2589.6H312.44V2581.62H318.62V2607.66H292.82V2581.62ZM298.94 2594.4V2602.68H312.44V2594.4H298.94ZM298.16 2613.78H334.7V2632.62H328.52V2618.76H298.16V2613.78ZM328.52 2578.44H334.7V2611.02H328.52V2578.44ZM353.175 2589.84V2614.92C359.895 2614.86 364.515 2614.56 369.855 2613.42L370.395 2618.52C364.275 2619.72 358.995 2620.02 350.715 2620.02H347.055V2584.8H367.575V2589.84H353.175ZM374.535 2598.72V2579.58H380.355V2630.04H374.535V2603.76H363.855V2598.72H374.535ZM385.575 2578.38H391.515V2632.56H385.575V2578.38ZM438.791 2578.38H445.031V2632.74H438.791V2578.38ZM416.171 2582.4C424.271 2582.4 430.151 2589.84 430.151 2601.48C430.151 2613.24 424.271 2620.62 416.171 2620.62C408.131 2620.62 402.251 2613.24 402.251 2601.48C402.251 2589.84 408.131 2582.4 416.171 2582.4ZM416.171 2587.98C411.491 2587.98 408.191 2593.08 408.191 2601.48C408.191 2610 411.491 2615.1 416.171 2615.1C420.911 2615.1 424.211 2610 424.211 2601.48C424.211 2593.08 420.911 2587.98 416.171 2587.98ZM464.226 2603.28V2614.98C472.866 2614.92 479.046 2614.62 486.126 2613.42L486.666 2618.4C478.926 2619.78 472.146 2620.02 462.306 2620.02H458.046V2583.12H483.186V2588.22H464.226V2598.36H480.966V2603.28H464.226ZM494.406 2578.32H500.646V2632.68H494.406V2603.34H484.026V2598.24H494.406V2578.32ZM527.378 2584.14H553.058C553.058 2600.28 546.578 2613.96 527.978 2622.96L524.678 2618.04C538.898 2611.2 545.618 2601.66 546.698 2589.18H527.378V2584.14ZM562.838 2578.44H569.018V2632.62H562.838V2578.44ZM591.873 2616.42V2626.56H623.013V2631.6H585.633V2616.42H591.873ZM591.933 2591.46V2597.46H616.053V2591.46H591.933ZM607.053 2607.6H628.533V2612.58H579.393V2607.6H600.813V2602.38H585.813V2580.54H591.933V2586.66H616.053V2580.54H622.173V2602.38H607.053V2607.6ZM685.865 2589.18V2588.52H653.045V2583.48H692.045V2589.18C692.045 2595.96 692.045 2603.22 690.125 2613.72L683.945 2613C685.865 2603.1 685.865 2595.78 685.865 2589.18ZM678.965 2620.44H697.145V2625.54H648.185V2620.44H659.465V2602.92H665.585V2620.44H672.845V2602.92H678.965V2620.44ZM727.86 2584.44C719.76 2584.44 714.9 2586.48 714.9 2590.14C714.9 2593.74 719.76 2595.78 727.86 2595.78C735.9 2595.78 740.76 2593.74 740.76 2590.14C740.76 2586.48 735.9 2584.44 727.86 2584.44ZM727.86 2600.64C716.04 2600.64 708.54 2596.68 708.54 2590.14C708.54 2583.6 716.04 2579.64 727.86 2579.64C739.62 2579.64 747.18 2583.6 747.18 2590.14C747.18 2596.68 739.62 2600.64 727.86 2600.64ZM733.8 2615.1V2609.16H721.8V2615.1H733.8ZM752.34 2609.16H739.98V2615.1H746.34V2632.62H740.16V2620.02H708.78V2615.1H715.62V2609.16H703.26V2604.18H752.34V2609.16ZM241.987 2711.76C237.667 2711.76 234.007 2708.22 234.007 2703.3C234.007 2698.26 237.667 2694.72 241.987 2694.72C246.307 2694.72 249.967 2698.26 249.967 2703.3C249.967 2708.22 246.307 2711.76 241.987 2711.76ZM299.54 2681.52V2707.32C309.62 2707.26 316.1 2706.96 323.36 2705.58L324.02 2710.74C316.16 2712.18 309.14 2712.48 297.92 2712.48H293.42V2676.42H319.22V2681.52H299.54ZM328.4 2671.38H334.64V2725.74H328.4V2671.38ZM364.215 2681.94V2687.16C364.215 2695.56 369.555 2705.16 377.775 2709.06L374.355 2713.92C368.295 2711.04 363.675 2705.04 361.215 2698.2C358.815 2705.76 354.015 2712.24 347.775 2715.3L344.235 2710.38C352.515 2706.42 358.035 2696.16 358.035 2687.16V2681.94H346.215V2676.84H375.675V2681.94H364.215ZM395.655 2692.8V2697.9H387.195V2725.62H381.015V2671.44H387.195V2692.8H395.655ZM445.091 2671.44V2710.8H438.911V2671.44H445.091ZM407.531 2688.6C407.531 2693.52 411.071 2696.82 415.871 2696.82C420.611 2696.82 424.211 2693.52 424.211 2688.6C424.211 2683.62 420.611 2680.38 415.871 2680.38C411.071 2680.38 407.531 2683.62 407.531 2688.6ZM430.211 2688.6C430.211 2696.46 424.031 2702.16 415.871 2702.16C407.711 2702.16 401.471 2696.46 401.471 2688.6C401.471 2680.68 407.711 2675.04 415.871 2675.04C424.031 2675.04 430.211 2680.68 430.211 2688.6ZM415.931 2719.56H446.651V2724.6H409.691V2706.84H415.931V2719.56ZM501.186 2671.44V2704.26H495.006V2671.44H501.186ZM492.006 2696.1L488.646 2700.48C484.746 2698.26 482.346 2694.48 480.966 2690.22C479.706 2694.6 477.426 2698.56 473.526 2701.08C469.566 2698.5 467.286 2694.36 466.026 2689.92C464.646 2694.24 462.246 2698.14 458.346 2700.48L455.046 2696.1C461.226 2692.26 463.206 2684.82 463.206 2678.88V2674.62H469.026V2678.88C469.026 2683.44 469.926 2689.44 473.526 2693.82C477.126 2689.56 477.966 2683.62 477.966 2678.88V2674.62H483.846V2678.88C483.846 2685.24 485.766 2692.44 492.006 2696.1ZM482.466 2720.7C490.506 2720.7 495.126 2718.78 495.126 2715.24C495.126 2711.7 490.506 2709.78 482.466 2709.78C474.366 2709.78 469.746 2711.7 469.746 2715.24C469.746 2718.78 474.366 2720.7 482.466 2720.7ZM482.466 2704.86C494.226 2704.86 501.486 2708.7 501.486 2715.24C501.486 2721.78 494.226 2725.62 482.466 2725.62C470.706 2725.62 463.386 2721.78 463.386 2715.24C463.386 2708.7 470.706 2704.86 482.466 2704.86ZM555.481 2671.44V2703.78H549.301V2671.44H555.481ZM514.561 2674.86H539.581C539.581 2689.38 532.141 2699.4 514.441 2704.5L512.101 2699.58C520.561 2697.24 526.081 2693.76 529.321 2689.5L512.761 2690.76L511.861 2685.84L531.901 2685C532.441 2683.44 532.861 2681.7 533.041 2679.9H514.561V2674.86ZM537.481 2720.82C545.101 2720.82 549.601 2718.72 549.601 2715.12C549.601 2711.46 545.101 2709.48 537.481 2709.48C529.741 2709.48 525.241 2711.46 525.241 2715.12C525.241 2718.72 529.741 2720.82 537.481 2720.82ZM537.481 2704.56C548.761 2704.56 555.781 2708.52 555.781 2715.12C555.781 2721.72 548.761 2725.62 537.481 2725.62C526.141 2725.62 519.061 2721.72 519.061 2715.12C519.061 2708.52 526.141 2704.56 537.481 2704.56ZM582.573 2677.14H608.253C608.253 2693.28 601.773 2706.96 583.173 2715.96L579.873 2711.04C594.093 2704.2 600.813 2694.66 601.893 2682.18H582.573V2677.14ZM618.033 2671.44H624.213V2725.62H618.033V2671.44ZM668.368 2676V2680.5H636.688V2676H649.408V2671.02H655.648V2676H668.368ZM645.328 2690.22C645.328 2692.74 648.148 2694.18 652.528 2694.18C656.968 2694.18 659.788 2692.74 659.788 2690.22C659.788 2687.82 656.968 2686.38 652.528 2686.38C648.148 2686.38 645.328 2687.82 645.328 2690.22ZM669.328 2700.12L669.808 2704.38C658.108 2706.36 645.448 2706.54 635.788 2706.54L635.008 2701.74C639.328 2701.74 644.308 2701.74 649.408 2701.56V2698.2C643.288 2697.48 639.448 2694.54 639.448 2690.22C639.448 2685.3 644.668 2682.18 652.528 2682.18C660.448 2682.18 665.668 2685.3 665.668 2690.22C665.668 2694.54 661.768 2697.48 655.648 2698.2V2701.32C660.328 2701.08 664.948 2700.72 669.328 2700.12ZM642.628 2715.18V2710.26H679.348V2725.68H673.168V2715.18H642.628ZM673.168 2671.5H679.348V2707.98H673.168V2671.5ZM711.72 2711.16V2706.18H748.26V2725.68H742.08V2711.16H711.72ZM731.82 2691.06H742.08V2684.1H731.88C732.12 2685.18 732.3 2686.32 732.3 2687.58C732.3 2688.78 732.12 2689.98 731.82 2691.06ZM718.2 2695.5C722.88 2695.5 726.42 2692.32 726.42 2687.58C726.42 2682.84 722.88 2679.6 718.2 2679.6C713.52 2679.6 709.98 2682.84 709.98 2687.58C709.98 2692.32 713.52 2695.5 718.2 2695.5ZM742.08 2671.44L748.26 2671.38V2703.48H742.08V2696.1H729.24C726.72 2699.04 722.76 2700.84 718.2 2700.78C710.16 2700.78 704.1 2695.26 704.1 2687.58C704.1 2679.84 710.16 2674.38 718.2 2674.38C722.76 2674.38 726.72 2676.18 729.24 2679.06H742.08V2671.44ZM790.076 2694.6L790.736 2699.64C782.576 2701.08 775.496 2701.38 765.116 2701.38H760.736V2685.48H779.096V2679.66H760.616V2674.68H785.216V2690.16H766.796V2696.34C776.096 2696.28 782.636 2695.98 790.076 2694.6ZM783.356 2720.88C790.976 2720.88 795.356 2719.02 795.356 2715.54C795.356 2712.12 790.976 2710.26 783.356 2710.26C775.676 2710.26 771.356 2712.12 771.356 2715.54C771.356 2719.02 775.676 2720.88 783.356 2720.88ZM783.356 2705.46C794.576 2705.46 801.416 2709.18 801.416 2715.54C801.416 2721.9 794.576 2725.62 783.356 2725.62C772.136 2725.62 765.296 2721.9 765.296 2715.54C765.296 2709.18 772.136 2705.46 783.356 2705.46ZM808.496 2684.46H800.876V2690.76H808.496V2695.86H800.876V2704.2H794.696V2671.38H800.876V2679.36H808.496V2684.46Z" fill="#464646"/>
<path d="M1121.49 292.35C1117.84 292.35 1114.84 289.4 1114.84 285.25C1114.84 281.05 1117.84 278.1 1121.49 278.1C1125.09 278.1 1128.14 281.05 1128.14 285.25C1128.14 289.4 1125.09 292.35 1121.49 292.35ZM1163.65 261.2H1168.8V267.8H1180.15V261.2H1185.35V283.05H1163.65V261.2ZM1168.8 271.9V278.9H1180.15V271.9H1168.8ZM1168.15 288.3H1198.95V304.15H1193.7V292.45H1168.15V288.3ZM1193.7 258.45H1198.95V285.95H1193.7V258.45ZM1241.25 258.45H1246.25V304.15H1241.25V258.45ZM1223 275.55H1234.1V279.8H1223V275.55ZM1231.95 259.4H1236.85V301.95H1231.95V259.4ZM1208.8 289.2H1211.85C1218.65 289.2 1222.95 289 1228 287.95L1228.45 292.25C1223.3 293.35 1218.85 293.55 1211.85 293.55H1208.8V289.2ZM1208.8 263.85H1226.1V268.05H1213.95V290.95H1208.8V263.85ZM1285.64 258.4H1290.89V304.2H1285.64V258.4ZM1266.54 261.8C1273.39 261.8 1278.34 268.05 1278.34 277.9C1278.34 287.75 1273.39 294.05 1266.54 294.05C1259.74 294.05 1254.79 287.75 1254.79 277.9C1254.79 268.05 1259.74 261.8 1266.54 261.8ZM1266.54 266.55C1262.54 266.55 1259.79 270.8 1259.79 277.9C1259.79 285.05 1262.54 289.35 1266.54 289.35C1270.54 289.35 1273.29 285.05 1273.29 277.9C1273.29 270.8 1270.54 266.55 1266.54 266.55ZM1331.99 258.4H1337.19V304.2H1331.99V258.4ZM1323.24 275.15H1332.69V279.45H1323.24V275.15ZM1301.34 289.25H1304.89C1313.04 289.25 1318.54 289.1 1324.99 288L1325.49 292.2C1318.89 293.3 1313.19 293.5 1304.89 293.5H1301.34V289.25ZM1301.34 262.45H1322.49V266.75H1306.54V290.65H1301.34V262.45ZM1305.29 275.25H1320.69V279.4H1305.29V275.25ZM1389.16 258.4H1394.41V304.2H1389.16V258.4ZM1380.11 276.4H1390.51V280.7H1380.11V276.4ZM1367.66 269.75H1371.76V273C1371.76 282.6 1367.01 291.85 1359.26 295.5L1356.41 291.45C1363.41 288.15 1367.66 280.4 1367.66 273V269.75ZM1368.71 269.75H1372.81V273C1372.81 280.1 1377.16 287.5 1384.16 290.7L1381.36 294.7C1373.56 291.2 1368.71 282.3 1368.71 273V269.75ZM1357.81 266.15H1382.51V270.35H1357.81V266.15ZM1367.61 259.4H1372.86V268.4H1367.61V259.4ZM1434.96 258.4H1440.21V304.2H1434.96V258.4ZM1405.06 289.05H1408.96C1416.81 289.05 1423.46 288.75 1431.16 287.45L1431.71 291.7C1423.81 293.05 1417.01 293.35 1408.96 293.35H1405.06V289.05ZM1404.96 262.5H1426.26V279.45H1410.36V290.65H1405.06V275.25H1420.96V266.75H1404.96V262.5ZM1492.19 258.45H1497.44V304.15H1492.19V258.45ZM1478.79 263.3H1483.94C1483.94 276.85 1478.54 288.35 1462.84 296L1460.09 291.8C1473.24 285.45 1478.79 276.4 1478.79 264.2V263.3ZM1462.34 263.3H1481.14V267.5H1462.34V263.3ZM1523.68 258.7H1528.13V260C1528.13 267.7 1520.08 273.25 1509.58 274.5L1507.83 270.55C1517.03 269.55 1523.68 265.1 1523.68 260V258.7ZM1524.58 258.7H1529.03V260C1529.03 265.1 1535.68 269.55 1544.83 270.55L1543.08 274.5C1532.58 273.25 1524.58 267.7 1524.58 260V258.7ZM1523.68 280.15H1528.88V286.85H1523.68V280.15ZM1505.68 277H1546.98V281.15H1505.68V277ZM1510.58 284.95H1541.83V296.05H1515.83V300.85H1510.63V292.3H1536.68V288.95H1510.58V284.95ZM1510.63 299.7H1543.13V303.75H1510.63V299.7ZM1595.36 258.5H1600.61V284.35H1595.36V258.5ZM1570.71 286.75H1600.61V303.6H1570.71V286.75ZM1595.46 290.9H1575.86V299.4H1595.46V290.9ZM1574.31 260.2H1578.66V264.6C1578.66 273.1 1573.86 280.55 1565.56 283.4L1563.01 279.25C1570.26 276.85 1574.31 270.8 1574.31 264.6V260.2ZM1575.31 260.2H1579.61V264.6C1579.61 270.65 1583.66 276.2 1590.71 278.45L1588.16 282.5C1580.06 279.9 1575.31 272.95 1575.31 264.6V260.2ZM1620.21 285.6H1625.46V293H1620.21V285.6ZM1639.41 258.45H1644.66V304.15H1639.41V258.45ZM1642.91 277.5H1651.16V281.85H1642.91V277.5ZM1609.11 295.95L1608.41 291.65C1616.46 291.65 1627.51 291.6 1636.86 290.25L1637.26 294.1C1627.51 295.9 1616.96 295.95 1609.11 295.95ZM1609.21 263.75H1636.36V267.9H1609.21V263.75ZM1622.81 270.2C1629.26 270.2 1633.76 273.6 1633.76 278.7C1633.76 283.85 1629.26 287.2 1622.81 287.2C1616.36 287.2 1611.91 283.85 1611.91 278.7C1611.91 273.6 1616.36 270.2 1622.81 270.2ZM1622.81 274.2C1619.21 274.2 1616.86 275.95 1616.86 278.7C1616.86 281.5 1619.21 283.2 1622.81 283.2C1626.41 283.2 1628.81 281.5 1628.81 278.7C1628.81 275.95 1626.41 274.2 1622.81 274.2ZM1620.21 258.6H1625.46V266.7H1620.21V258.6ZM1121.49 370.35C1117.84 370.35 1114.84 367.4 1114.84 363.25C1114.84 359.05 1117.84 356.1 1121.49 356.1C1125.09 356.1 1128.14 359.05 1128.14 363.25C1128.14 367.4 1125.09 370.35 1121.49 370.35ZM1163.65 339.2H1168.8V345.8H1180.15V339.2H1185.35V361.05H1163.65V339.2ZM1168.8 349.9V356.9H1180.15V349.9H1168.8ZM1168.15 366.3H1198.95V382.15H1193.7V370.45H1168.15V366.3ZM1193.7 336.45H1198.95V363.95H1193.7V336.45ZM1241.25 336.45H1246.25V382.15H1241.25V336.45ZM1223 353.55H1234.1V357.8H1223V353.55ZM1231.95 337.4H1236.85V379.95H1231.95V337.4ZM1208.8 367.2H1211.85C1218.65 367.2 1222.95 367 1228 365.95L1228.45 370.25C1223.3 371.35 1218.85 371.55 1211.85 371.55H1208.8V367.2ZM1208.8 341.85H1226.1V346.05H1213.95V368.95H1208.8V341.85ZM1285.64 336.4H1290.89V382.2H1285.64V336.4ZM1266.54 339.8C1273.39 339.8 1278.34 346.05 1278.34 355.9C1278.34 365.75 1273.39 372.05 1266.54 372.05C1259.74 372.05 1254.79 365.75 1254.79 355.9C1254.79 346.05 1259.74 339.8 1266.54 339.8ZM1266.54 344.55C1262.54 344.55 1259.79 348.8 1259.79 355.9C1259.79 363.05 1262.54 367.35 1266.54 367.35C1270.54 367.35 1273.29 363.05 1273.29 355.9C1273.29 348.8 1270.54 344.55 1266.54 344.55ZM1331.99 336.4H1337.19V382.2H1331.99V336.4ZM1323.24 353.15H1332.69V357.45H1323.24V353.15ZM1301.34 367.25H1304.89C1313.04 367.25 1318.54 367.1 1324.99 366L1325.49 370.2C1318.89 371.3 1313.19 371.5 1304.89 371.5H1301.34V367.25ZM1301.34 340.45H1322.49V344.75H1306.54V368.65H1301.34V340.45ZM1305.29 353.25H1320.69V357.4H1305.29V353.25ZM1356.46 360.25H1397.86V364.45H1356.46V360.25ZM1374.96 362.45H1380.16V372.55H1374.96V362.45ZM1361.51 377H1393.26V381.25H1361.51V377ZM1361.51 368.75H1366.71V378.7H1361.51V368.75ZM1361.86 337.9H1367.01V343.2H1387.26V337.9H1392.46V356.4H1361.86V337.9ZM1367.01 347.2V352.25H1387.26V347.2H1367.01ZM1425.86 345.55H1436.01V349.85H1425.86V345.55ZM1413.46 338.8H1417.76V343.35C1417.76 352.25 1413.26 359.75 1405.16 362.7L1402.36 358.55C1409.61 356.05 1413.46 349.95 1413.46 343.35V338.8ZM1414.46 338.8H1418.71V343.65C1418.71 349.65 1422.61 355.35 1429.41 357.7L1426.66 361.8C1418.91 359 1414.46 351.85 1414.46 343.65V338.8ZM1409.56 365.85H1440.36V382.15H1435.11V370.05H1409.56V365.85ZM1435.11 336.45H1440.36V363.55H1435.11V336.45ZM1492.19 336.45H1497.44V382.15H1492.19V336.45ZM1478.79 341.3H1483.94C1483.94 354.85 1478.54 366.35 1462.84 374L1460.09 369.8C1473.24 363.45 1478.79 354.4 1478.79 342.2V341.3ZM1462.34 341.3H1481.14V345.5H1462.34V341.3ZM1523.68 336.7H1528.13V338C1528.13 345.7 1520.08 351.25 1509.58 352.5L1507.83 348.55C1517.03 347.55 1523.68 343.1 1523.68 338V336.7ZM1524.58 336.7H1529.03V338C1529.03 343.1 1535.68 347.55 1544.83 348.55L1543.08 352.5C1532.58 351.25 1524.58 345.7 1524.58 338V336.7ZM1523.68 358.15H1528.88V364.85H1523.68V358.15ZM1505.68 355H1546.98V359.15H1505.68V355ZM1510.58 362.95H1541.83V374.05H1515.83V378.85H1510.63V370.3H1536.68V366.95H1510.58V362.95ZM1510.63 377.7H1543.13V381.75H1510.63V377.7ZM1595.36 336.5H1600.61V362.35H1595.36V336.5ZM1570.71 364.75H1600.61V381.6H1570.71V364.75ZM1595.46 368.9H1575.86V377.4H1595.46V368.9ZM1574.31 338.2H1578.66V342.6C1578.66 351.1 1573.86 358.55 1565.56 361.4L1563.01 357.25C1570.26 354.85 1574.31 348.8 1574.31 342.6V338.2ZM1575.31 338.2H1579.61V342.6C1579.61 348.65 1583.66 354.2 1590.71 356.45L1588.16 360.5C1580.06 357.9 1575.31 350.95 1575.31 342.6V338.2ZM1620.21 363.6H1625.46V371H1620.21V363.6ZM1639.41 336.45H1644.66V382.15H1639.41V336.45ZM1642.91 355.5H1651.16V359.85H1642.91V355.5ZM1609.11 373.95L1608.41 369.65C1616.46 369.65 1627.51 369.6 1636.86 368.25L1637.26 372.1C1627.51 373.9 1616.96 373.95 1609.11 373.95ZM1609.21 341.75H1636.36V345.9H1609.21V341.75ZM1622.81 348.2C1629.26 348.2 1633.76 351.6 1633.76 356.7C1633.76 361.85 1629.26 365.2 1622.81 365.2C1616.36 365.2 1611.91 361.85 1611.91 356.7C1611.91 351.6 1616.36 348.2 1622.81 348.2ZM1622.81 352.2C1619.21 352.2 1616.86 353.95 1616.86 356.7C1616.86 359.5 1619.21 361.2 1622.81 361.2C1626.41 361.2 1628.81 359.5 1628.81 356.7C1628.81 353.95 1626.41 352.2 1622.81 352.2ZM1620.21 336.6H1625.46V344.7H1620.21V336.6ZM1121.49 448.35C1117.84 448.35 1114.84 445.4 1114.84 441.25C1114.84 437.05 1117.84 434.1 1121.49 434.1C1125.09 434.1 1128.14 437.05 1128.14 441.25C1128.14 445.4 1125.09 448.35 1121.49 448.35ZM1163.65 417.2H1168.8V423.8H1180.15V417.2H1185.35V439.05H1163.65V417.2ZM1168.8 427.9V434.9H1180.15V427.9H1168.8ZM1168.15 444.3H1198.95V460.15H1193.7V448.45H1168.15V444.3ZM1193.7 414.45H1198.95V441.95H1193.7V414.45ZM1241.25 414.45H1246.25V460.15H1241.25V414.45ZM1223 431.55H1234.1V435.8H1223V431.55ZM1231.95 415.4H1236.85V457.95H1231.95V415.4ZM1208.8 445.2H1211.85C1218.65 445.2 1222.95 445 1228 443.95L1228.45 448.25C1223.3 449.35 1218.85 449.55 1211.85 449.55H1208.8V445.2ZM1208.8 419.85H1226.1V424.05H1213.95V446.95H1208.8V419.85ZM1285.64 414.4H1290.89V460.2H1285.64V414.4ZM1266.54 417.8C1273.39 417.8 1278.34 424.05 1278.34 433.9C1278.34 443.75 1273.39 450.05 1266.54 450.05C1259.74 450.05 1254.79 443.75 1254.79 433.9C1254.79 424.05 1259.74 417.8 1266.54 417.8ZM1266.54 422.55C1262.54 422.55 1259.79 426.8 1259.79 433.9C1259.79 441.05 1262.54 445.35 1266.54 445.35C1270.54 445.35 1273.29 441.05 1273.29 433.9C1273.29 426.8 1270.54 422.55 1266.54 422.55ZM1331.99 414.4H1337.19V460.2H1331.99V414.4ZM1323.24 431.15H1332.69V435.45H1323.24V431.15ZM1301.34 445.25H1304.89C1313.04 445.25 1318.54 445.1 1324.99 444L1325.49 448.2C1318.89 449.3 1313.19 449.5 1304.89 449.5H1301.34V445.25ZM1301.34 418.45H1322.49V422.75H1306.54V446.65H1301.34V418.45ZM1305.29 431.25H1320.69V435.4H1305.29V431.25ZM1356.88 418.2H1361.18V425.7C1361.18 436.75 1356.23 446.9 1348.03 450.9L1344.88 446.55C1352.18 443.25 1356.88 434.45 1356.88 425.7V418.2ZM1357.88 418.2H1362.13V425.7C1362.13 434.1 1366.78 442.5 1373.98 445.7L1370.88 449.9C1362.83 446.1 1357.88 436.35 1357.88 425.7V418.2ZM1377.63 414.4H1382.88V460.2H1377.63V414.4ZM1421.68 414.45H1426.93V441.1H1421.68V414.45ZM1425.48 425.6H1433.38V429.95H1425.48V425.6ZM1408.83 417.2H1414.33C1414.33 429.05 1406.53 437.3 1393.08 440.85L1390.93 436.8C1402.53 433.75 1408.83 427.45 1408.83 419.7V417.2ZM1393.08 417.2H1411.88V421.4H1393.08V417.2ZM1396.88 443.15H1426.93V460.15H1421.68V447.35H1396.88V443.15ZM1448.53 441.6H1453.78V449H1448.53V441.6ZM1467.73 414.45H1472.98V460.15H1467.73V414.45ZM1471.23 433.5H1479.48V437.85H1471.23V433.5ZM1437.43 451.95L1436.73 447.65C1444.78 447.65 1455.83 447.6 1465.18 446.25L1465.58 450.1C1455.83 451.9 1445.28 451.95 1437.43 451.95ZM1437.53 419.75H1464.68V423.9H1437.53V419.75ZM1451.13 426.2C1457.58 426.2 1462.08 429.6 1462.08 434.7C1462.08 439.85 1457.58 443.2 1451.13 443.2C1444.68 443.2 1440.23 439.85 1440.23 434.7C1440.23 429.6 1444.68 426.2 1451.13 426.2ZM1451.13 430.2C1447.53 430.2 1445.18 431.95 1445.18 434.7C1445.18 437.5 1447.53 439.2 1451.13 439.2C1454.73 439.2 1457.13 437.5 1457.13 434.7C1457.13 431.95 1454.73 430.2 1451.13 430.2ZM1448.53 414.6H1453.78V422.7H1448.53V414.6ZM1526.95 414.45H1532.2V460.15H1526.95V414.45ZM1513.55 419.3H1518.7C1518.7 432.85 1513.3 444.35 1497.6 452L1494.85 447.8C1508 441.45 1513.55 432.4 1513.55 420.2V419.3ZM1497.1 419.3H1515.9V423.5H1497.1V419.3ZM1558.45 414.7H1562.9V416C1562.9 423.7 1554.85 429.25 1544.35 430.5L1542.6 426.55C1551.8 425.55 1558.45 421.1 1558.45 416V414.7ZM1559.35 414.7H1563.8V416C1563.8 421.1 1570.45 425.55 1579.6 426.55L1577.85 430.5C1567.35 429.25 1559.35 423.7 1559.35 416V414.7ZM1558.45 436.15H1563.65V442.85H1558.45V436.15ZM1540.45 433H1581.75V437.15H1540.45V433ZM1545.35 440.95H1576.6V452.05H1550.6V456.85H1545.4V448.3H1571.45V444.95H1545.35V440.95ZM1545.4 455.7H1577.9V459.75H1545.4V455.7ZM1630.13 414.5H1635.38V440.35H1630.13V414.5ZM1605.48 442.75H1635.38V459.6H1605.48V442.75ZM1630.23 446.9H1610.63V455.4H1630.23V446.9ZM1609.08 416.2H1613.43V420.6C1613.43 429.1 1608.63 436.55 1600.33 439.4L1597.78 435.25C1605.03 432.85 1609.08 426.8 1609.08 420.6V416.2ZM1610.08 416.2H1614.38V420.6C1614.38 426.65 1618.43 432.2 1625.48 434.45L1622.93 438.5C1614.83 435.9 1610.08 428.95 1610.08 420.6V416.2ZM1654.97 441.6H1660.22V449H1654.97V441.6ZM1674.17 414.45H1679.42V460.15H1674.17V414.45ZM1677.67 433.5H1685.92V437.85H1677.67V433.5ZM1643.87 451.95L1643.17 447.65C1651.22 447.65 1662.27 447.6 1671.62 446.25L1672.02 450.1C1662.27 451.9 1651.72 451.95 1643.87 451.95ZM1643.97 419.75H1671.12V423.9H1643.97V419.75ZM1657.57 426.2C1664.02 426.2 1668.52 429.6 1668.52 434.7C1668.52 439.85 1664.02 443.2 1657.57 443.2C1651.12 443.2 1646.67 439.85 1646.67 434.7C1646.67 429.6 1651.12 426.2 1657.57 426.2ZM1657.57 430.2C1653.97 430.2 1651.62 431.95 1651.62 434.7C1651.62 437.5 1653.97 439.2 1657.57 439.2C1661.17 439.2 1663.57 437.5 1663.57 434.7C1663.57 431.95 1661.17 430.2 1657.57 430.2ZM1654.97 414.6H1660.22V422.7H1654.97V414.6Z" fill="#464646"/>
<path d="M2212.99 2641.76C2208.67 2641.76 2205.01 2638.22 2205.01 2633.3C2205.01 2628.26 2208.67 2624.72 2212.99 2624.72C2217.31 2624.72 2220.97 2628.26 2220.97 2633.3C2220.97 2638.22 2217.31 2641.76 2212.99 2641.76ZM2285.54 2607.26C2277.5 2607.26 2272.58 2609.18 2272.58 2612.72C2272.58 2616.2 2277.5 2618.18 2285.54 2618.18C2293.58 2618.18 2298.44 2616.2 2298.44 2612.72C2298.44 2609.18 2293.58 2607.26 2285.54 2607.26ZM2285.54 2622.92C2273.66 2622.92 2266.22 2619.08 2266.22 2612.72C2266.22 2606.3 2273.66 2602.46 2285.54 2602.46C2297.36 2602.46 2304.86 2606.3 2304.86 2612.72C2304.86 2619.08 2297.36 2622.92 2285.54 2622.92ZM2292.26 2636.6V2631.32H2278.88V2636.6C2280.86 2636.3 2283.08 2636.12 2285.42 2636.12C2287.94 2636.12 2290.22 2636.3 2292.26 2636.6ZM2285.42 2650.88C2293.34 2650.88 2297.84 2649.2 2297.84 2645.9C2297.84 2642.66 2293.34 2640.92 2285.42 2640.92C2277.5 2640.92 2273.06 2642.66 2273.06 2645.9C2273.06 2649.2 2277.5 2650.88 2285.42 2650.88ZM2310.02 2631.32H2298.38V2638.34C2302.1 2640.02 2304.08 2642.6 2304.08 2645.9C2304.08 2652.14 2297.12 2655.68 2285.42 2655.68C2273.78 2655.68 2266.76 2652.14 2266.76 2645.9C2266.76 2642.54 2268.92 2639.9 2272.76 2638.22V2631.32H2261V2626.34H2310.02V2631.32ZM2352.8 2618.36V2613.02H2328.68V2618.36H2352.8ZM2358.92 2602.76V2623.28H2322.56V2602.76H2328.68V2608.28H2352.8V2602.76H2358.92ZM2365.28 2632.64H2343.74V2638.16H2359.22V2655.62H2353.04V2643.08H2321.66V2638.16H2337.56V2632.64H2316.14V2627.66H2365.28V2632.64ZM2403.49 2607.62V2612.54H2371.51V2607.62H2384.41V2601.44H2390.59V2607.62H2403.49ZM2380.27 2625.32C2380.27 2628.74 2383.21 2630.78 2387.47 2630.78C2391.79 2630.78 2394.73 2628.74 2394.73 2625.32C2394.73 2621.9 2391.79 2619.86 2387.47 2619.86C2383.21 2619.86 2380.27 2621.9 2380.27 2625.32ZM2400.61 2625.32C2400.61 2631.5 2395.27 2635.58 2387.47 2635.58C2379.73 2635.58 2374.33 2631.5 2374.33 2625.32C2374.33 2619.2 2379.73 2615.06 2387.47 2615.06C2395.27 2615.06 2400.61 2619.2 2400.61 2625.32ZM2385.67 2638.94V2649.56H2415.91V2654.6H2379.43V2638.94H2385.67ZM2413.75 2618.72H2421.43V2623.82H2413.75V2642.06H2407.57V2601.44H2413.75V2618.72ZM2476.66 2620.22V2614.16H2452.54V2620.22H2476.66ZM2482.78 2603.18V2625.08H2446.42V2603.18H2452.54V2609.42H2476.66V2603.18H2482.78ZM2452.24 2639.78V2649.56H2483.74V2654.6H2446.06V2639.78H2452.24ZM2440.06 2629.64H2489.2V2634.62H2468.2V2644.28H2462.02V2634.62H2440.06V2629.64ZM2527.24 2626.7L2523.94 2631.5C2518.12 2629.4 2513.8 2625.2 2511.52 2619.86C2509.12 2625.68 2504.68 2630.3 2498.44 2632.64L2495.2 2627.72C2503.72 2624.72 2508.34 2617.52 2508.34 2609.6V2604.2H2514.58V2609.96C2514.58 2617.04 2519.2 2623.88 2527.24 2626.7ZM2503.66 2641.28V2636.36H2540.2V2655.68H2534.02V2641.28H2503.66ZM2534.02 2601.38H2540.2V2633.6H2534.02V2617.28H2523.04V2612.18H2534.02V2601.38ZM2602.33 2601.38H2608.57V2655.74H2602.33V2601.38ZM2579.71 2605.4C2587.81 2605.4 2593.69 2612.84 2593.69 2624.48C2593.69 2636.24 2587.81 2643.62 2579.71 2643.62C2571.67 2643.62 2565.79 2636.24 2565.79 2624.48C2565.79 2612.84 2571.67 2605.4 2579.71 2605.4ZM2579.71 2610.98C2575.03 2610.98 2571.73 2616.08 2571.73 2624.48C2571.73 2633 2575.03 2638.1 2579.71 2638.1C2584.45 2638.1 2587.75 2633 2587.75 2624.48C2587.75 2616.08 2584.45 2610.98 2579.71 2610.98ZM2632.39 2638.34C2636.05 2638.34 2638.63 2635.4 2638.63 2630.9C2638.63 2626.4 2636.05 2623.4 2632.39 2623.4C2628.73 2623.4 2626.15 2626.4 2626.15 2630.9C2626.15 2635.4 2628.73 2638.34 2632.39 2638.34ZM2632.39 2618.3C2639.23 2618.3 2644.15 2623.4 2644.15 2630.9C2644.15 2638.34 2639.23 2643.5 2632.39 2643.5C2625.55 2643.5 2620.63 2638.34 2620.63 2630.9C2620.63 2623.4 2625.55 2618.3 2632.39 2618.3ZM2635.45 2603V2610.26H2645.59V2615.24H2619.07V2610.26H2629.33V2603H2635.45ZM2659.45 2601.44H2665.33V2655.62H2659.45V2628.98H2653.69V2653.1H2647.93V2602.58H2653.69V2623.88H2659.45V2601.44ZM2212.99 2734.76C2208.67 2734.76 2205.01 2731.22 2205.01 2726.3C2205.01 2721.26 2208.67 2717.72 2212.99 2717.72C2217.31 2717.72 2220.97 2721.26 2220.97 2726.3C2220.97 2731.22 2217.31 2734.76 2212.99 2734.76ZM2282.18 2730.26V2704.4H2269.16V2730.26H2282.18ZM2299.82 2694.38H2306.06V2748.74H2299.82V2718.74H2288.24V2735.12H2263.1V2699.48H2288.24V2713.7H2299.82V2694.38ZM2360.9 2694.5V2734.1H2354.72V2694.5H2360.9ZM2349.08 2720.66L2345.9 2725.58C2339.72 2723.3 2335.28 2718.86 2332.94 2713.22C2330.48 2719.28 2325.98 2724.2 2319.62 2726.6L2316.44 2721.62C2324.96 2718.5 2329.7 2710.76 2329.7 2702.84V2697.44H2336V2702.84C2336 2710.52 2340.74 2717.78 2349.08 2720.66ZM2331.74 2742.56H2362.46V2747.6H2325.5V2730.38H2331.74V2742.56ZM2379.43 2718.86V2730.8C2387.77 2730.74 2394.25 2730.44 2401.69 2729.18L2402.23 2734.22C2394.13 2735.6 2387.11 2735.9 2377.63 2735.9H2373.37V2713.88H2391.49V2704.22H2373.25V2699.24H2397.55V2718.86H2379.43ZM2410.15 2694.32H2416.33V2748.68H2410.15V2719.76H2400.67V2714.66H2410.15V2694.32ZM2471.17 2694.44V2726.3H2464.99V2694.44H2471.17ZM2459.95 2714.96L2460.67 2720C2451.85 2721.8 2443.63 2722.4 2434.39 2722.4H2429.89V2697.86H2436.07V2717.3C2444.41 2717.24 2451.91 2716.64 2459.95 2714.96ZM2453.05 2743.64C2460.73 2743.64 2465.23 2741.54 2465.23 2737.76C2465.23 2734.04 2460.73 2731.94 2453.05 2731.94C2445.43 2731.94 2440.87 2734.04 2440.87 2737.76C2440.87 2741.54 2445.43 2743.64 2453.05 2743.64ZM2453.05 2726.96C2464.33 2726.96 2471.41 2731.04 2471.41 2737.76C2471.41 2744.54 2464.33 2748.62 2453.05 2748.62C2441.77 2748.62 2434.69 2744.54 2434.69 2737.76C2434.69 2731.04 2441.77 2726.96 2453.05 2726.96ZM2495.26 2720.3H2544.28V2725.28H2495.26V2720.3ZM2519.68 2729.06C2531.38 2729.06 2538.34 2732.66 2538.34 2738.9C2538.34 2745.14 2531.38 2748.68 2519.68 2748.68C2508.04 2748.68 2501.02 2745.14 2501.02 2738.9C2501.02 2732.66 2508.04 2729.06 2519.68 2729.06ZM2519.68 2733.86C2511.76 2733.86 2507.32 2735.6 2507.32 2738.9C2507.32 2742.2 2511.76 2743.94 2519.68 2743.94C2527.6 2743.94 2532.1 2742.2 2532.1 2738.9C2532.1 2735.6 2527.6 2733.86 2519.68 2733.86ZM2519.8 2695.7C2531.56 2695.7 2539.12 2699.66 2539.12 2706.2C2539.12 2712.68 2531.56 2716.64 2519.8 2716.64C2507.98 2716.64 2500.48 2712.68 2500.48 2706.2C2500.48 2699.66 2507.98 2695.7 2519.8 2695.7ZM2519.8 2700.56C2511.76 2700.56 2506.84 2702.6 2506.84 2706.2C2506.84 2709.74 2511.76 2711.78 2519.8 2711.78C2527.84 2711.78 2532.7 2709.74 2532.7 2706.2C2532.7 2702.6 2527.84 2700.56 2519.8 2700.56ZM2574.87 2743.88C2582.79 2743.88 2587.29 2742.2 2587.29 2738.9C2587.29 2735.66 2582.79 2733.92 2574.87 2733.92C2566.95 2733.92 2562.51 2735.66 2562.51 2738.9C2562.51 2742.2 2566.95 2743.88 2574.87 2743.88ZM2574.87 2729.18C2586.57 2729.18 2593.53 2732.72 2593.53 2738.9C2593.53 2745.14 2586.57 2748.62 2574.87 2748.62C2563.23 2748.62 2556.21 2745.14 2556.21 2738.9C2556.21 2732.72 2563.23 2729.18 2574.87 2729.18ZM2568.27 2715.26V2720.78H2581.59V2715.26C2579.61 2715.56 2577.39 2715.74 2574.99 2715.74C2572.59 2715.74 2570.25 2715.56 2568.27 2715.26ZM2574.99 2700.14C2566.89 2700.14 2562.03 2702.06 2562.03 2705.54C2562.03 2709.02 2566.89 2711 2574.99 2711C2583.03 2711 2587.89 2709.02 2587.89 2705.54C2587.89 2702.06 2583.03 2700.14 2574.99 2700.14ZM2587.77 2720.78H2599.47V2725.7H2550.45V2720.78H2562.09V2713.58C2558.01 2711.84 2555.67 2709.08 2555.67 2705.54C2555.67 2699.18 2563.11 2695.34 2574.99 2695.34C2586.81 2695.34 2594.31 2699.18 2594.31 2705.54C2594.31 2709.08 2591.91 2711.84 2587.77 2713.64V2720.78Z" fill="#464646"/>
<path d="M3083.49 292.35C3079.84 292.35 3076.84 289.4 3076.84 285.25C3076.84 281.05 3079.84 278.1 3083.49 278.1C3087.09 278.1 3090.14 281.05 3090.14 285.25C3090.14 289.4 3087.09 292.35 3083.49 292.35ZM3125.65 261.2H3130.8V267.8H3142.15V261.2H3147.35V283.05H3125.65V261.2ZM3130.8 271.9V278.9H3142.15V271.9H3130.8ZM3130.15 288.3H3160.95V304.15H3155.7V292.45H3130.15V288.3ZM3155.7 258.45H3160.95V285.95H3155.7V258.45ZM3203.25 258.45H3208.25V304.15H3203.25V258.45ZM3185 275.55H3196.1V279.8H3185V275.55ZM3193.95 259.4H3198.85V301.95H3193.95V259.4ZM3170.8 289.2H3173.85C3180.65 289.2 3184.95 289 3190 287.95L3190.45 292.25C3185.3 293.35 3180.85 293.55 3173.85 293.55H3170.8V289.2ZM3170.8 263.85H3188.1V268.05H3175.95V290.95H3170.8V263.85ZM3247.64 258.4H3252.89V304.2H3247.64V258.4ZM3228.54 261.8C3235.39 261.8 3240.34 268.05 3240.34 277.9C3240.34 287.75 3235.39 294.05 3228.54 294.05C3221.74 294.05 3216.79 287.75 3216.79 277.9C3216.79 268.05 3221.74 261.8 3228.54 261.8ZM3228.54 266.55C3224.54 266.55 3221.79 270.8 3221.79 277.9C3221.79 285.05 3224.54 289.35 3228.54 289.35C3232.54 289.35 3235.29 285.05 3235.29 277.9C3235.29 270.8 3232.54 266.55 3228.54 266.55ZM3293.99 258.4H3299.19V304.2H3293.99V258.4ZM3285.24 275.15H3294.69V279.45H3285.24V275.15ZM3263.34 289.25H3266.89C3275.04 289.25 3280.54 289.1 3286.99 288L3287.49 292.2C3280.89 293.3 3275.19 293.5 3266.89 293.5H3263.34V289.25ZM3263.34 262.45H3284.49V266.75H3268.54V290.65H3263.34V262.45ZM3267.29 275.25H3282.69V279.4H3267.29V275.25ZM3307.23 282.25H3348.63V286.45H3307.23V282.25ZM3325.73 284.45H3330.93V294.55H3325.73V284.45ZM3312.28 299H3344.03V303.25H3312.28V299ZM3312.28 290.75H3317.48V300.7H3312.28V290.75ZM3312.63 259.9H3317.78V265.2H3338.03V259.9H3343.23V278.4H3312.63V259.9ZM3317.78 269.2V274.25H3338.03V269.2H3317.78ZM3376.63 267.55H3386.78V271.85H3376.63V267.55ZM3364.23 260.8H3368.53V265.35C3368.53 274.25 3364.03 281.75 3355.93 284.7L3353.13 280.55C3360.38 278.05 3364.23 271.95 3364.23 265.35V260.8ZM3365.23 260.8H3369.48V265.65C3369.48 271.65 3373.38 277.35 3380.18 279.7L3377.43 283.8C3369.68 281 3365.23 273.85 3365.23 265.65V260.8ZM3360.33 287.85H3391.13V304.15H3385.88V292.05H3360.33V287.85ZM3385.88 258.45H3391.13V285.55H3385.88V258.45ZM3399.28 294.25H3440.68V298.55H3399.28V294.25ZM3417.28 283.2H3422.48V295.35H3417.28V283.2ZM3403.88 262.05H3435.83V284H3403.88V262.05ZM3430.73 266.25H3409.03V279.8H3430.73V266.25ZM3479.17 258.45H3484.17V282.55H3479.17V258.45ZM3462.07 268.3H3472.62V272.35H3462.07V268.3ZM3470.27 259.3H3475.17V282.2H3470.27V259.3ZM3447.32 276.65H3450.32C3457.22 276.65 3461.42 276.55 3466.52 275.65L3466.87 279.8C3461.67 280.75 3457.37 280.85 3450.32 280.85H3447.32V276.65ZM3447.32 260.9H3464.77V265.05H3452.47V279.4H3447.32V260.9ZM3453.37 284.35H3484.17V295.7H3458.67V301.95H3453.47V291.85H3479.02V288.45H3453.37V284.35ZM3453.47 299.45H3485.67V303.6H3453.47V299.45ZM3534.95 258.45H3540.2V304.15H3534.95V258.45ZM3521.55 263.3H3526.7C3526.7 276.85 3521.3 288.35 3505.6 296L3502.85 291.8C3516 285.45 3521.55 276.4 3521.55 264.2V263.3ZM3505.1 263.3H3523.9V267.5H3505.1V263.3ZM3550.1 262.25H3576.85V266.1H3550.1V262.25ZM3563.5 267.55C3570.15 267.55 3574.6 270.2 3574.6 274.35C3574.6 278.55 3570.15 281.2 3563.5 281.2C3556.85 281.2 3552.45 278.55 3552.45 274.35C3552.45 270.2 3556.85 267.55 3563.5 267.55ZM3563.5 271.1C3559.85 271.1 3557.4 272.3 3557.4 274.35C3557.4 276.35 3559.85 277.65 3563.5 277.65C3567.2 277.65 3569.6 276.35 3569.6 274.35C3569.6 272.3 3567.2 271.1 3563.5 271.1ZM3560.85 258.15H3566.15V264.25H3560.85V258.15ZM3560.85 279.2H3566.15V285.45H3560.85V279.2ZM3580.9 258.5H3586.15V289.25H3580.9V258.5ZM3555.1 291.2H3586.15V304.15H3580.9V295.3H3555.1V291.2ZM3549.35 288.05L3548.7 283.95C3557.05 283.95 3568.2 283.9 3577.65 282.65L3578.05 286.25C3568.25 287.9 3557.5 288.05 3549.35 288.05ZM3608.07 261.3H3629.72V280.25H3608.07V261.3ZM3624.62 265.45H3613.17V276.15H3624.62V265.45ZM3638.12 258.45H3643.37V284.55H3638.12V258.45ZM3625.77 290.15H3630.27V290.9C3630.27 297.45 3622.97 302.85 3612.62 304L3610.92 300.05C3619.77 299.15 3625.77 294.9 3625.77 290.9V290.15ZM3626.62 290.15H3631.17V290.9C3631.17 294.75 3637.12 299.1 3645.92 300.05L3644.17 304C3633.82 302.85 3626.62 297.25 3626.62 290.9V290.15ZM3612.72 287.35H3644.22V291.35H3612.72V287.35ZM3625.82 283.25H3631.17V289.2H3625.82V283.25ZM3696.8 258.45H3701.8V304.15H3696.8V258.45ZM3690.1 276.3H3698.35V280.55H3690.1V276.3ZM3677.5 264.2H3682.55C3682.55 276.45 3678.6 287.15 3665.7 294.55L3662.65 290.85C3673.65 284.55 3677.5 276 3677.5 265.25V264.2ZM3664.65 264.2H3679.15V268.45H3664.65V264.2ZM3686.65 259.65H3691.6V302H3686.65V259.65ZM3710.54 260.4H3715.74V266.45H3726.89V260.4H3732.04V280.35H3710.54V260.4ZM3715.74 270.45V276.2H3726.89V270.45H3715.74ZM3739.34 258.45H3744.59V281.85H3739.34V258.45ZM3742.39 267.8H3750.99V272.1H3742.39V267.8ZM3715.09 283.85H3744.59V295.55H3720.34V301.75H3715.14V291.75H3739.44V287.95H3715.09V283.85ZM3715.14 299.6H3746.09V303.75H3715.14V299.6ZM3083.49 370.35C3079.84 370.35 3076.84 367.4 3076.84 363.25C3076.84 359.05 3079.84 356.1 3083.49 356.1C3087.09 356.1 3090.14 359.05 3090.14 363.25C3090.14 367.4 3087.09 370.35 3083.49 370.35ZM3123.25 360.25H3164.65V364.45H3123.25V360.25ZM3141.75 362.45H3146.95V372.55H3141.75V362.45ZM3128.3 377H3160.05V381.25H3128.3V377ZM3128.3 368.75H3133.5V378.7H3128.3V368.75ZM3128.65 337.9H3133.8V343.2H3154.05V337.9H3159.25V356.4H3128.65V337.9ZM3133.8 347.2V352.25H3154.05V347.2H3133.8ZM3192.65 345.55H3202.8V349.85H3192.65V345.55ZM3180.25 338.8H3184.55V343.35C3184.55 352.25 3180.05 359.75 3171.95 362.7L3169.15 358.55C3176.4 356.05 3180.25 349.95 3180.25 343.35V338.8ZM3181.25 338.8H3185.5V343.65C3185.5 349.65 3189.4 355.35 3196.2 357.7L3193.45 361.8C3185.7 359 3181.25 351.85 3181.25 343.65V338.8ZM3176.35 365.85H3207.15V382.15H3201.9V370.05H3176.35V365.85ZM3201.9 336.45H3207.15V363.55H3201.9V336.45ZM3215.29 372.25H3256.69V376.55H3215.29V372.25ZM3233.29 361.2H3238.49V373.35H3233.29V361.2ZM3219.89 340.05H3251.84V362H3219.89V340.05ZM3246.74 344.25H3225.04V357.8H3246.74V344.25ZM3295.19 336.45H3300.19V360.55H3295.19V336.45ZM3278.09 346.3H3288.64V350.35H3278.09V346.3ZM3286.29 337.3H3291.19V360.2H3286.29V337.3ZM3263.34 354.65H3266.34C3273.24 354.65 3277.44 354.55 3282.54 353.65L3282.89 357.8C3277.69 358.75 3273.39 358.85 3266.34 358.85H3263.34V354.65ZM3263.34 338.9H3280.79V343.05H3268.49V357.4H3263.34V338.9ZM3269.39 362.35H3300.19V373.7H3274.69V379.95H3269.49V369.85H3295.04V366.45H3269.39V362.35ZM3269.49 377.45H3301.69V381.6H3269.49V377.45ZM3318.46 360.25H3359.86V364.45H3318.46V360.25ZM3336.96 362.45H3342.16V372.55H3336.96V362.45ZM3323.51 377H3355.26V381.25H3323.51V377ZM3323.51 368.75H3328.71V378.7H3323.51V368.75ZM3323.86 337.9H3329.01V343.2H3349.26V337.9H3354.46V356.4H3323.86V337.9ZM3329.01 347.2V352.25H3349.26V347.2H3329.01ZM3387.86 345.55H3398.01V349.85H3387.86V345.55ZM3375.46 338.8H3379.76V343.35C3379.76 352.25 3375.26 359.75 3367.16 362.7L3364.36 358.55C3371.61 356.05 3375.46 349.95 3375.46 343.35V338.8ZM3376.46 338.8H3380.71V343.65C3380.71 349.65 3384.61 355.35 3391.41 357.7L3388.66 361.8C3380.91 359 3376.46 351.85 3376.46 343.65V338.8ZM3371.56 365.85H3402.36V382.15H3397.11V370.05H3371.56V365.85ZM3397.11 336.45H3402.36V363.55H3397.11V336.45ZM3408.81 387L3422.71 338.05H3426.66L3412.81 387H3408.81ZM3441.59 340.2H3445.89V347.7C3445.89 358.75 3440.94 368.9 3432.74 372.9L3429.59 368.55C3436.89 365.25 3441.59 356.45 3441.59 347.7V340.2ZM3442.59 340.2H3446.84V347.7C3446.84 356.1 3451.49 364.5 3458.69 367.7L3455.59 371.9C3447.54 368.1 3442.59 358.35 3442.59 347.7V340.2ZM3462.34 336.4H3467.59V382.2H3462.34V336.4ZM3506.39 336.45H3511.64V363.1H3506.39V336.45ZM3510.19 347.6H3518.09V351.95H3510.19V347.6ZM3493.54 339.2H3499.04C3499.04 351.05 3491.24 359.3 3477.79 362.85L3475.64 358.8C3487.24 355.75 3493.54 349.45 3493.54 341.7V339.2ZM3477.79 339.2H3496.59V343.4H3477.79V339.2ZM3481.59 365.15H3511.64V382.15H3506.39V369.35H3481.59V365.15ZM3533.23 363.6H3538.48V371H3533.23V363.6ZM3552.43 336.45H3557.68V382.15H3552.43V336.45ZM3555.93 355.5H3564.18V359.85H3555.93V355.5ZM3522.13 373.95L3521.43 369.65C3529.48 369.65 3540.53 369.6 3549.88 368.25L3550.28 372.1C3540.53 373.9 3529.98 373.95 3522.13 373.95ZM3522.23 341.75H3549.38V345.9H3522.23V341.75ZM3535.83 348.2C3542.28 348.2 3546.78 351.6 3546.78 356.7C3546.78 361.85 3542.28 365.2 3535.83 365.2C3529.38 365.2 3524.93 361.85 3524.93 356.7C3524.93 351.6 3529.38 348.2 3535.83 348.2ZM3535.83 352.2C3532.23 352.2 3529.88 353.95 3529.88 356.7C3529.88 359.5 3532.23 361.2 3535.83 361.2C3539.43 361.2 3541.83 359.5 3541.83 356.7C3541.83 353.95 3539.43 352.2 3535.83 352.2ZM3533.23 336.6H3538.48V344.7H3533.23V336.6ZM3579.21 372.2H3620.61V376.55H3579.21V372.2ZM3582.61 340.75H3616.91V345H3582.61V340.75ZM3582.76 359.85H3616.81V364.1H3582.76V359.85ZM3589.31 344.65H3594.56V360.3H3589.31V344.65ZM3605.01 344.65H3610.21V360.3H3605.01V344.65ZM3625.2 372.5H3666.6V376.8H3625.2V372.5ZM3643.2 363.2H3648.4V374.25H3643.2V363.2ZM3630.05 339.65H3661.65V354.1H3635.35V362.6H3630.15V349.95H3656.45V343.85H3630.05V339.65ZM3630.15 360.45H3662.7V364.7H3630.15V360.45ZM3690.05 348H3697.85V352.25H3690.05V348ZM3696 337.4H3700.95V364.05H3696V337.4ZM3680 342.85H3684.1V346.2C3684.1 353.55 3680.7 360.65 3673.7 363.6L3671 359.55C3677 357.05 3680 351.5 3680 346.2V342.85ZM3680.95 342.85H3685.05V346.2C3685.05 351.15 3687.9 356.25 3693.6 358.6L3691 362.65C3684.15 359.85 3680.95 353.15 3680.95 346.2V342.85ZM3672.1 339.95H3692.4V344.2H3672.1V339.95ZM3704.9 336.45H3709.85V364.35H3704.9V336.45ZM3678.9 366.2H3709.85V382.15H3704.65V370.45H3678.9V366.2ZM3722.3 360.6H3754V364.75H3722.3V360.6ZM3717.2 372.25H3758.6V376.55H3717.2V372.25ZM3722.3 340.1H3753.55V344.35H3727.6V361.8H3722.3V340.1ZM3725.95 350.25H3752.55V354.35H3725.95V350.25Z" fill="#464646"/>
<path d="M1128.16 37.08V15H1113.12V37.08H1128.16ZM1102.64 37.08V15H1092.64V6.6H1148.64V15H1138.64V37.08H1148.4V45.48H1093.04V37.08H1102.64ZM1087.44 56.76H1154.16V65.32H1087.44V56.76ZM1199.59 57.16H1227.75V65.8H1161.03V57.16H1189.03V46.2H1168.71V21.24H1209.83V13.32H1168.63V4.92H1220.23V29.48H1179.19V37.72H1221.91V46.2H1199.59V57.16ZM1265.11 18.36H1272.95V1.56H1282.79V44.76H1272.95V26.92H1265.11V18.36ZM1270.87 35.08L1265.67 43.24C1259.43 40.84 1255.27 36.6 1252.79 31.32C1250.15 37.16 1245.75 41.88 1239.03 44.52L1233.67 36.44C1243.67 32.52 1247.59 24.12 1247.59 15.88V13.88H1235.99V5.48H1268.55V13.88H1257.83V15.88C1257.83 23.8 1261.51 31.4 1270.87 35.08ZM1246.71 56.2V47.88H1297.43V73.96H1286.87V56.2H1246.71ZM1287.43 0.199997H1297.43V45.08H1287.43V0.199997ZM1367.82 38.2V46.52H1316.06V5.56H1367.26V14.04H1326.78V21.8H1365.58V29.96H1326.78V38.2H1367.82ZM1308.22 56.84H1374.94V65.4H1308.22V56.84ZM1464.18 26.36L1460.18 34.84C1447.3 32.92 1438.1 26.92 1433.38 19C1428.66 26.92 1419.38 32.92 1406.5 34.84L1402.5 26.36C1419.3 24.04 1427.7 14.52 1427.7 5.88V2.36H1438.98V5.88C1438.98 14.44 1447.46 24.04 1464.18 26.36ZM1466.58 40.28V48.84H1438.34V73.96H1427.78V48.84H1400.02V40.28H1466.58ZM1520.89 26.92V43.96H1511.05V1.56H1520.89V18.36H1526.33V0.199997H1536.33V46.28H1526.33V26.92H1520.89ZM1508.97 7.72V15.88H1473.13V7.72H1485.85V0.999996H1496.25V7.72H1508.97ZM1484.65 31.08C1484.65 34.52 1487.29 36.44 1491.21 36.44C1495.13 36.44 1497.69 34.52 1497.69 31.08C1497.69 27.64 1495.13 25.8 1491.21 25.8C1487.29 25.8 1484.65 27.64 1484.65 31.08ZM1507.05 31.08C1507.05 38.68 1500.49 43.96 1491.21 43.96C1481.85 43.96 1475.29 38.68 1475.29 31.08C1475.29 23.48 1481.85 18.28 1491.21 18.28C1500.49 18.28 1507.05 23.48 1507.05 31.08ZM1511.37 66.04C1521.21 66.04 1526.17 64.36 1526.17 60.52C1526.17 56.68 1521.21 55 1511.37 55C1501.53 55 1496.57 56.68 1496.57 60.52C1496.57 64.36 1501.53 66.04 1511.37 66.04ZM1511.37 47.08C1527.21 47.08 1536.73 51.96 1536.73 60.52C1536.73 69.08 1527.21 73.88 1511.37 73.88C1495.53 73.88 1486.01 69.08 1486.01 60.52C1486.01 51.96 1495.53 47.08 1511.37 47.08ZM1589.17 11.72C1583.81 11.72 1579.97 14.28 1579.97 18.92C1579.97 23.4 1583.81 25.96 1589.17 25.96C1594.61 25.96 1598.37 23.4 1598.37 18.92C1598.37 14.28 1594.61 11.72 1589.17 11.72ZM1589.17 34.6C1578.05 34.6 1569.81 28.04 1569.81 18.92C1569.81 9.64 1578.05 3.16 1589.17 3.16C1600.29 3.16 1608.45 9.64 1608.45 18.92C1608.45 28.04 1600.29 34.6 1589.17 34.6ZM1612.21 36.44L1612.85 44.12C1606.93 45.32 1600.77 46.04 1594.77 46.6V71.64H1584.21V47.24C1577.89 47.48 1571.89 47.56 1566.69 47.56L1565.49 38.92C1578.37 38.92 1596.61 38.76 1612.21 36.44ZM1616.37 0.199997H1626.93V73.8H1616.37V0.199997ZM1682.29 7.96L1682.21 16.2H1638.85V7.96H1655.17V0.119998H1665.81V7.96H1682.29ZM1652.53 33C1652.53 37.08 1655.81 39.24 1660.53 39.24C1665.17 39.24 1668.53 37.08 1668.53 33C1668.53 29 1665.17 26.84 1660.53 26.84C1655.81 26.84 1652.53 29 1652.53 33ZM1678.61 33C1678.61 41.48 1671.09 47.24 1660.53 47.24C1649.97 47.24 1642.45 41.48 1642.45 33C1642.45 24.68 1649.97 18.84 1660.53 18.84C1671.09 18.84 1678.61 24.68 1678.61 33ZM1659.89 51.24V64.2H1699.49V72.6H1649.33V51.24H1659.89ZM1696.85 22.68H1706.61V31.4H1696.85V55.32H1686.29V0.199997H1696.85V22.68ZM1091.12 120.6H1101.6V130.28H1116.56V120.6H1126.96V156.36H1091.12V120.6ZM1101.6 138.36V148.04H1116.56V138.36H1101.6ZM1098.4 163.56H1148.64V189.96H1138V171.96H1098.4V163.56ZM1138 116.2H1148.64V160.2H1138V116.2ZM1173.59 132.92V164.84C1181.27 164.68 1187.19 164.2 1193.67 162.92L1194.55 171.56C1186.31 173.16 1179.03 173.48 1168.23 173.48H1163.19V124.52H1191.27V132.92H1173.59ZM1199.03 143.08V117.56H1208.87V186.6H1199.03V151.64H1186.23V143.08H1199.03ZM1214.31 116.12H1224.31V189.8H1214.31V116.12ZM1285.11 116.12H1295.67V190.04H1285.11V116.12ZM1256.07 121.32C1267.19 121.32 1275.43 131.4 1275.43 147.56C1275.43 163.8 1267.19 173.96 1256.07 173.96C1244.95 173.96 1236.71 163.8 1236.71 147.56C1236.71 131.4 1244.95 121.32 1256.07 121.32ZM1256.07 130.84C1250.63 130.84 1246.87 136.68 1246.87 147.56C1246.87 158.52 1250.63 164.36 1256.07 164.36C1261.51 164.36 1265.27 158.52 1265.27 147.56C1265.27 136.68 1261.51 130.84 1256.07 130.84ZM1322.06 151.08V164.84C1331.98 164.76 1340.06 164.36 1349.1 162.92L1350.06 171.4C1339.42 173.08 1329.98 173.32 1317.58 173.32H1311.58V122.36H1345.66V130.84H1322.06V142.84H1343.18V151.08H1322.06ZM1359.5 116.12H1370.06V190.04H1359.5V150.6H1346.86V142.12H1359.5V116.12ZM1404.02 123.8H1439.38C1439.38 146.36 1431.78 164.76 1405.62 177.4L1400.1 169.08C1418.9 160.04 1427.06 148.52 1428.58 132.2H1404.02V123.8ZM1450.66 116.12H1461.3V189.8H1450.66V116.12ZM1492.17 167.8V180.2H1532.73V188.6H1481.61V167.8H1492.17ZM1492.49 134.2V140.6H1521.21V134.2H1492.49ZM1512.01 155.08H1540.17V163.48H1473.53V155.08H1501.45V148.92H1482.01V118.84H1492.49V126.04H1521.21V118.84H1531.69V148.92H1512.01V155.08ZM1576.69 171.48V163.16H1626.85V189.96H1616.29V171.48H1576.69ZM1604.61 142.12H1616.29V134.52H1604.61C1604.85 135.72 1605.01 136.92 1605.01 138.28C1605.01 139.56 1604.85 140.84 1604.61 142.12ZM1585.57 147.56C1591.01 147.56 1595.01 144.12 1595.01 138.28C1595.01 132.52 1591.01 129.08 1585.57 129.08C1580.21 129.08 1576.21 132.52 1576.21 138.28C1576.21 144.12 1580.21 147.56 1585.57 147.56ZM1616.29 116.2H1626.85V159.8H1616.29V150.52H1600.29C1596.77 154.28 1591.49 156.6 1585.57 156.6C1574.69 156.6 1566.21 148.92 1566.21 138.28C1566.21 127.72 1574.69 120.04 1585.57 120.04C1591.57 120.04 1596.85 122.36 1600.37 126.12H1616.29V116.2ZM1641.49 134.84H1664.61V129H1641.41V120.52H1675.01V142.68H1651.97V149.08C1663.97 149 1672.05 148.52 1681.25 146.84L1682.13 155.32C1671.89 157.24 1662.53 157.56 1647.81 157.56H1641.49V134.84ZM1672.61 181.88C1682.21 181.88 1687.17 180.04 1687.17 175.96C1687.17 171.88 1682.21 170.04 1672.61 170.04C1663.01 170.04 1658.05 171.88 1658.05 175.96C1658.05 180.04 1663.01 181.88 1672.61 181.88ZM1672.61 161.96C1687.97 161.96 1697.57 167.08 1697.57 175.96C1697.57 184.76 1687.97 189.96 1672.61 189.96C1657.25 189.96 1647.65 184.76 1647.65 175.96C1647.65 167.08 1657.25 161.96 1672.61 161.96ZM1706.61 134.68H1696.85V141.64H1706.61V150.2H1696.85V160.6H1686.29V116.2H1696.85V126.12H1706.61V134.68ZM1773.37 121.64V129.16H1731.53V121.64H1747.21V115.56H1757.77V121.64H1773.37ZM1744.49 141.88C1744.49 144.6 1747.53 146.04 1752.49 146.04C1757.45 146.04 1760.41 144.6 1760.41 141.88C1760.41 139.16 1757.45 137.8 1752.49 137.8C1747.53 137.8 1744.49 139.16 1744.49 141.88ZM1775.21 154.92L1776.01 162.04C1760.57 164.76 1743.77 164.92 1730.81 164.92L1729.69 156.84C1734.97 156.84 1740.97 156.84 1747.21 156.68V152.52C1739.37 151.32 1734.49 147.48 1734.49 141.88C1734.49 135.16 1741.61 131 1752.49 131C1763.37 131 1770.41 135.16 1770.41 141.88C1770.41 147.48 1765.61 151.32 1757.77 152.52V156.28C1763.77 156.04 1769.61 155.56 1775.21 154.92ZM1739.05 177.48V169.32H1788.97V189.96H1778.41V177.48H1739.05ZM1798.25 137.32V145.96H1788.97V166.44H1778.41V116.2H1788.97V137.32H1798.25ZM1821.68 140.52V150.84H1853.2V140.52H1821.68ZM1842.72 172.76H1870.88V181.32H1804.16V172.76H1832.16V159.24H1811.2V120.76H1821.68V132.2H1853.2V120.76H1863.6V159.24H1842.72V172.76Z" fill="#222222"/>
<path d="M2204.72 2353.48C2194.72 2353.48 2188.96 2355.48 2188.96 2359.64C2188.96 2363.72 2194.72 2365.8 2204.72 2365.8C2214.8 2365.8 2220.56 2363.72 2220.56 2359.64C2220.56 2355.48 2214.8 2353.48 2204.72 2353.48ZM2204.72 2373.72C2188.48 2373.72 2178.08 2368.44 2178.08 2359.64C2178.08 2350.84 2188.48 2345.48 2204.72 2345.48C2221.04 2345.48 2231.44 2350.84 2231.44 2359.64C2231.44 2368.44 2221.04 2373.72 2204.72 2373.72ZM2212.8 2391.48V2385.56H2196.72V2391.48C2199.12 2391.16 2201.76 2391 2204.56 2391C2207.52 2391 2210.32 2391.16 2212.8 2391.48ZM2204.56 2409.96C2214.4 2409.96 2219.44 2408.28 2219.44 2404.52C2219.44 2400.76 2214.4 2399 2204.56 2399C2194.72 2399 2189.68 2400.76 2189.68 2404.52C2189.68 2408.28 2194.72 2409.96 2204.56 2409.96ZM2238 2385.56H2223.36V2394.52C2227.76 2396.84 2230.16 2400.28 2230.16 2404.52C2230.16 2413.08 2220.48 2417.96 2204.56 2417.96C2188.64 2417.96 2179.04 2413.08 2179.04 2404.52C2179.04 2400.12 2181.6 2396.6 2186.24 2394.36V2385.56H2171.44V2377.24H2238V2385.56ZM2252.39 2402.44V2394.04H2303.59V2417.96H2293.03V2402.44H2252.39ZM2263.99 2360.52V2366.28H2292.71V2360.52H2263.99ZM2283.51 2380.6H2311.67V2389H2245.03V2380.6H2272.95V2374.52H2253.51V2346.12H2263.99V2352.6H2292.71V2346.12H2303.19V2374.52H2283.51V2380.6ZM2362.07 2351.96L2361.99 2360.2H2318.63V2351.96H2334.95V2344.12H2345.59V2351.96H2362.07ZM2332.31 2377C2332.31 2381.08 2335.59 2383.24 2340.31 2383.24C2344.95 2383.24 2348.31 2381.08 2348.31 2377C2348.31 2373 2344.95 2370.84 2340.31 2370.84C2335.59 2370.84 2332.31 2373 2332.31 2377ZM2358.39 2377C2358.39 2385.48 2350.87 2391.24 2340.31 2391.24C2329.75 2391.24 2322.23 2385.48 2322.23 2377C2322.23 2368.68 2329.75 2362.84 2340.31 2362.84C2350.87 2362.84 2358.39 2368.68 2358.39 2377ZM2339.67 2395.24V2408.2H2379.27V2416.6H2329.11V2395.24H2339.67ZM2376.63 2366.68H2386.39V2375.4H2376.63V2399.32H2366.07V2344.2H2376.63V2366.68ZM2458.03 2368.6V2361.96H2429.31V2368.6H2458.03ZM2468.51 2346.52V2376.84H2418.83V2346.52H2429.31V2354.04H2458.03V2346.52H2468.51ZM2428.59 2396.36V2408.2H2469.71V2416.6H2418.03V2396.36H2428.59ZM2410.27 2381.96H2477.07V2390.28H2449.87V2401.88H2439.31V2390.28H2410.27V2381.96ZM2527.94 2377.56L2522.42 2385.72C2514.58 2383 2509.3 2377.8 2506.18 2371.32C2502.98 2378.44 2497.3 2384.12 2488.98 2387L2483.46 2378.68C2495.7 2374.68 2500.74 2364.92 2500.74 2354.92V2347.96H2511.46V2355.56C2511.46 2364.76 2516.34 2373.72 2527.94 2377.56ZM2495.3 2399.72V2391.4H2545.54V2417.96H2534.98V2399.72H2495.3ZM2534.98 2344.2H2545.54V2388.04H2534.98V2366.52H2521.54V2357.96H2534.98V2344.2ZM2626.14 2344.12H2636.7V2418.04H2626.14V2344.12ZM2597.1 2349.32C2608.22 2349.32 2616.46 2359.4 2616.46 2375.56C2616.46 2391.8 2608.22 2401.96 2597.1 2401.96C2585.98 2401.96 2577.74 2391.8 2577.74 2375.56C2577.74 2359.4 2585.98 2349.32 2597.1 2349.32ZM2597.1 2358.84C2591.66 2358.84 2587.9 2364.68 2587.9 2375.56C2587.9 2386.52 2591.66 2392.36 2597.1 2392.36C2602.54 2392.36 2606.3 2386.52 2606.3 2375.56C2606.3 2364.68 2602.54 2358.84 2597.1 2358.84ZM2666.93 2393.24C2670.93 2393.24 2673.81 2390.04 2673.81 2384.52C2673.81 2379 2670.93 2375.72 2666.93 2375.72C2662.93 2375.72 2660.05 2379 2660.05 2384.52C2660.05 2390.04 2662.93 2393.24 2666.93 2393.24ZM2666.93 2366.92C2676.37 2366.92 2683.09 2374.2 2683.09 2384.52C2683.09 2394.76 2676.37 2402.04 2666.93 2402.04C2657.49 2402.04 2650.77 2394.76 2650.77 2384.52C2650.77 2374.2 2657.49 2366.92 2666.93 2366.92ZM2672.13 2346.2V2355.32H2684.37V2363.72H2649.17V2355.32H2661.73V2346.2H2672.13ZM2702.45 2344.12H2712.45V2417.8H2702.45V2382.68H2696.85V2414.76H2687.01V2345.56H2696.85V2374.2H2702.45V2344.12ZM2198.8 2507.64V2474.92H2184.56V2507.64H2198.8ZM2222.72 2460.2H2233.28V2534.04H2222.72V2494.04H2209.2V2515.96H2174.16V2466.68H2209.2V2485.56H2222.72V2460.2ZM2306.23 2460.28V2513.96H2295.59V2460.28H2306.23ZM2290.15 2494.44L2284.79 2502.84C2276.63 2500.04 2271.03 2494.6 2267.83 2487.72C2264.47 2495.16 2258.71 2501.16 2250.15 2504.12L2244.79 2495.72C2257.03 2491.56 2262.31 2481.24 2262.31 2471.4V2464.28H2273.03V2471.4C2273.03 2481.16 2278.15 2490.6 2290.15 2494.44ZM2267.75 2524.2H2308.07V2532.6H2257.19V2508.84H2267.75V2524.2ZM2331.59 2494.04V2508.36C2341.59 2508.28 2349.99 2507.8 2359.27 2506.28L2360.23 2514.84C2349.27 2516.6 2339.51 2517 2327.27 2517H2321.19V2485.8H2343.75V2474.84H2321.03V2466.44H2354.23V2494.04H2331.59ZM2369.67 2460.12H2380.31V2534.04H2369.67V2495.24H2358.15V2486.68H2369.67V2460.12ZM2453.18 2460.2V2502.84H2442.62V2460.2H2453.18ZM2436.94 2487L2438.06 2495.56C2425.98 2498.12 2414.38 2498.84 2402.78 2498.84H2396.38V2464.84H2406.86V2490.2C2416.7 2489.96 2426.62 2489.08 2436.94 2487ZM2428.3 2525.48C2437.82 2525.48 2443.02 2523.4 2443.02 2518.92C2443.02 2514.36 2437.82 2512.28 2428.3 2512.28C2418.86 2512.28 2413.66 2514.36 2413.66 2518.92C2413.66 2523.4 2418.86 2525.48 2428.3 2525.48ZM2428.3 2503.88C2443.74 2503.88 2453.5 2509.56 2453.5 2518.92C2453.5 2528.28 2443.74 2533.88 2428.3 2533.88C2412.94 2533.88 2403.18 2528.28 2403.18 2518.92C2403.18 2509.56 2412.94 2503.88 2428.3 2503.88ZM2483.94 2494.6H2550.5V2502.92H2483.94V2494.6ZM2517.06 2506.92C2532.98 2506.92 2542.66 2511.8 2542.66 2520.44C2542.66 2529.08 2532.98 2533.96 2517.06 2533.96C2501.14 2533.96 2491.54 2529.08 2491.54 2520.44C2491.54 2511.8 2501.14 2506.92 2517.06 2506.92ZM2517.06 2514.92C2507.22 2514.92 2502.18 2516.68 2502.18 2520.44C2502.18 2524.28 2507.22 2525.96 2517.06 2525.96C2526.9 2525.96 2531.94 2524.28 2531.94 2520.44C2531.94 2516.68 2526.9 2514.92 2517.06 2514.92ZM2517.22 2461.8C2533.46 2461.8 2543.94 2467.32 2543.94 2476.2C2543.94 2485.24 2533.46 2490.68 2517.22 2490.68C2501.06 2490.68 2490.58 2485.24 2490.58 2476.2C2490.58 2467.32 2501.06 2461.8 2517.22 2461.8ZM2517.22 2469.88C2507.22 2469.88 2501.46 2472.04 2501.46 2476.2C2501.46 2480.52 2507.22 2482.6 2517.22 2482.6C2527.3 2482.6 2533.06 2480.52 2533.06 2476.2C2533.06 2472.04 2527.3 2469.88 2517.22 2469.88ZM2590.65 2525.96C2600.49 2525.96 2605.53 2524.28 2605.53 2520.52C2605.53 2516.76 2600.49 2515.16 2590.65 2515.16C2580.81 2515.16 2575.77 2516.76 2575.77 2520.52C2575.77 2524.28 2580.81 2525.96 2590.65 2525.96ZM2590.65 2507.16C2606.57 2507.16 2616.25 2511.96 2616.25 2520.52C2616.25 2529.08 2606.57 2533.96 2590.65 2533.96C2574.73 2533.96 2565.13 2529.08 2565.13 2520.52C2565.13 2511.96 2574.73 2507.16 2590.65 2507.16ZM2583.05 2489V2495.16H2598.41V2489.08C2596.09 2489.32 2593.53 2489.48 2590.81 2489.48C2588.01 2489.48 2585.45 2489.32 2583.05 2489ZM2590.81 2469.32C2580.81 2469.32 2575.05 2471.32 2575.05 2475.48C2575.05 2479.48 2580.81 2481.56 2590.81 2481.56C2600.89 2481.56 2606.65 2479.48 2606.65 2475.48C2606.65 2471.32 2600.89 2469.32 2590.81 2469.32ZM2608.97 2495.16H2624.09V2503.48H2557.53V2495.16H2572.49V2486.28C2567.21 2483.88 2564.17 2480.2 2564.17 2475.48C2564.17 2466.68 2574.57 2461.32 2590.81 2461.32C2607.13 2461.32 2617.53 2466.68 2617.53 2475.48C2617.53 2480.28 2614.41 2483.96 2608.97 2486.36V2495.16Z" fill="#222222"/>
<path d="M3077.12 5.88V16.52C3077.12 30.44 3082.48 43.96 3094.64 49.4L3088.4 57.8C3080.32 53.88 3074.96 46.68 3071.92 37.8C3068.72 47.24 3063.2 54.92 3054.96 59.08L3048.4 50.6C3060.88 44.84 3066.48 30.52 3066.48 16.52V5.88H3077.12ZM3100.72 0.119998H3111.28V74.04H3100.72V31.72H3086.56V23.24H3100.72V0.119998ZM3173.51 0.119998H3184.07V74.04H3173.51V0.119998ZM3126.63 6.04H3137.11V23.88H3152.47V6.04H3162.95V56.84H3126.63V6.04ZM3137.11 32.12V48.44H3152.47V32.12H3137.11ZM3261.03 34.84L3256.55 43.72C3243.75 41.16 3234.31 34.04 3229.59 24.68C3224.87 34.04 3215.51 41.24 3202.71 43.72L3198.23 34.84C3214.79 32.04 3223.99 20.36 3223.99 9.8V4.52H3235.27V9.8C3235.27 20.6 3244.39 32.04 3261.03 34.84ZM3196.63 56.36H3263.35V64.92H3196.63V56.36ZM3053.52 123.8H3088.88C3088.88 146.36 3081.28 164.76 3055.12 177.4L3049.6 169.08C3068.4 160.04 3076.56 148.52 3078.08 132.2H3053.52V123.8ZM3100.16 116.12H3110.8V189.8H3100.16V116.12ZM3168.71 121.64V129.16H3125.51V121.64H3141.91V115.64H3152.47V121.64H3168.71ZM3138.95 141.96C3138.95 144.6 3142.15 146.12 3147.19 146.12C3152.15 146.12 3155.27 144.6 3155.27 141.96C3155.27 139.24 3152.15 137.88 3147.19 137.88C3142.15 137.88 3138.95 139.24 3138.95 141.96ZM3169.43 154.76L3170.15 161.8C3154.55 164.44 3137.67 164.68 3124.79 164.68L3123.43 156.76C3129.03 156.76 3135.27 156.76 3141.91 156.6V152.68C3133.91 151.48 3128.87 147.56 3128.87 141.96C3128.87 135.24 3136.23 131 3147.19 131C3157.99 131 3165.35 135.24 3165.35 141.96C3165.35 147.56 3160.31 151.48 3152.47 152.68V156.2C3158.23 155.88 3163.99 155.4 3169.43 154.76ZM3133.51 177.16V169H3184.39V189.96H3173.75V177.16H3133.51ZM3173.75 116.28H3184.39V166.12H3173.75V116.28ZM3194.31 197.56L3214.23 118.52H3221.99L3202.15 197.56H3194.31ZM3230.44 125.32H3259.48C3259.48 145.96 3253.4 162.84 3232.84 174.84L3226.68 167.48C3241.48 158.84 3247.72 148.2 3249.08 133.72H3230.44V125.32ZM3280.68 116.2H3290.76V189.88H3280.68V152.44H3274.12V186.76H3264.28V118.12H3274.12V143.96H3280.68V116.2ZM3328.28 143.48V136.12H3313.8V143.48H3328.28ZM3338.68 119.4V151.72H3303.4V119.4H3313.8V128.2H3328.28V119.4H3338.68ZM3321.16 176.52V181.16H3361.4V189.32H3310.68V169H3348.84V164.52H3310.6V156.52H3359.24V176.52H3321.16ZM3359.24 130.44H3368.92V139H3359.24V153.64H3348.68V116.2H3359.24V130.44Z" fill="#222222"/>
</svg>
